<svg width="465" height="168" viewBox="0 0 465 168" fill="none" xmlns="http://www.w3.org/2000/svg">
<g clip-path="url(#clip0_2_1943)">
<path d="M158.7 113.6L107.9 3.5C142.3 13.8 167.4 45.7 167.6 83.4C167.5 96.1 164.6 106.3 158.7 113.6ZM27.1 42.5C27.1 26.8 36.1 14.4 40.9 11.8C16.4 26.4 0 53.2 0 83.8C0 101.3 5.3 117.5 14.5 130.9L42.2 91.3C32.8 76.6 27.1 59.9 27.1 42.5ZM47.1 98.3L19.6 137.6C35 155.9 58 167.5 83.8 167.5C107 167.5 128.1 158 143.2 142.7C139.6 143.4 136.1 143.7 132.9 143.7C101.1 143.8 67.7 125.3 47.1 98.3ZM54.8 87.3C72.8 109.4 101.2 126.1 128.9 126.1C136.3 126.1 142.6 124.7 147.9 122.2L105 15.5L54.8 87.3ZM35.8 40.7C35.8 54 41.1 67.9 49.7 80.5L104.3 2.5C97.7 0.8 90.9 0 83.8 0C47 0 35.8 21.7 35.8 40.7Z" fill="url(#paint0_linear_2_1943)"/>
<path d="M147.301 159.2H153.301V160.4H150.901V167.3H149.601V160.4H147.301V159.2Z" fill="#313235"/>
<path d="M161.702 159.2H162.802L163.802 167.3H162.602L161.902 161.5L159.502 166.4H158.402L156.002 161.5L155.302 167.3H154.102L155.102 159.2H156.202L158.902 165L161.702 159.2Z" fill="#313235"/>
<path d="M454.5 99C454.5 98 454.7 97.1 455.2 96.2C455.7 95.3 456.3 94.7 457.1 94.2C457.9 93.7 458.8 93.5 459.7 93.5C460.6 93.5 461.5 93.7 462.3 94.2C463.1 94.7 463.7 95.4 464.2 96.2C464.7 97 464.9 98 464.9 99C464.9 100 464.7 100.9 464.2 101.8C463.7 102.6 463.1 103.3 462.3 103.8C461.5 104.3 460.6 104.5 459.7 104.5C458.8 104.5 457.9 104.3 457.1 103.8C456.3 103.3 455.7 102.6 455.2 101.8C454.7 100.9 454.5 100 454.5 99ZM455.4 99C455.4 99.8 455.6 100.6 455.9 101.3C456.3 102 456.8 102.6 457.5 103C458.2 103.4 458.9 103.6 459.7 103.6C460.5 103.6 461.2 103.4 461.9 103C462.6 102.6 463.1 102 463.5 101.3C463.9 100.6 464 99.8 464 99C464 98.2 463.8 97.4 463.5 96.7C463.1 96 462.6 95.4 461.9 95C461.2 94.6 460.5 94.4 459.7 94.4C458.9 94.4 458.2 94.6 457.5 95C456.8 95.4 456.3 96 455.9 96.7C455.5 97.4 455.4 98.2 455.4 99ZM458.6 99.6V102.1H457.5V95.9H459.6C460.4 95.9 460.9 96.1 461.4 96.4C461.8 96.7 462 97.2 462 97.8C462 98.3 461.7 98.8 461.2 99C461.5 99.2 461.7 99.4 461.8 99.6C461.9 99.9 462 100.2 462 100.6C462 101 462 101.3 462 101.5C462 101.7 462 101.8 462.1 101.9V102H461C460.9 101.8 460.9 101.4 460.9 100.6C460.9 100.2 460.8 100 460.7 99.8C460.5 99.6 460.3 99.6 459.9 99.6H458.6ZM458.6 98.6H459.5C459.9 98.6 460.2 98.5 460.4 98.4C460.6 98.2 460.8 98 460.8 97.8C460.8 97.5 460.7 97.2 460.5 97.1C460.3 97 460 96.9 459.6 96.9H458.6V98.6Z" fill="#313235"/>
<path d="M235.2 141.3H209.5L203.4 157.2H193L217 93.5996H227.6L251.6 157.2H241.3L235.2 141.3ZM212.8 132.6H231.8L222.3 105.9L212.8 132.6Z" fill="#313235"/>
<path d="M262.301 93.5996H272.101V157.2H262.301V93.5996Z" fill="#313235"/>
<path d="M342.8 146.4C337.3 153.6 328.4 158.1 318.1 158.1C300.1 158.1 286 143.5 286 125.5C286 107.4 300.1 92.7998 318.1 92.7998C328.3 92.7998 337 97.1998 342.6 104.2L335 110.1C330.8 105.4 324.9 102.2 318 102.2C305.4 102.2 295.7 112.6 295.7 125.5C295.7 138.4 305.4 148.7 318 148.7C325 148.7 331.2 145.5 335.2 140.4L342.8 146.4Z" fill="#313235"/>
<path d="M355.5 93.5996H381.1C394.9 93.5996 400.5 103.7 400.5 113.8C400.5 124 394.9 133.8 381.1 133.8H365.4V157.1H355.5V93.5996ZM365.4 102.7V124.9H380.5C387.6 124.9 390.7 119.3 390.7 113.8C390.7 108.4 387.7 102.6 380.9 102.6H365.4V102.7Z" fill="#313235"/>
<path d="M443.3 141.3H417.6L411.5 157.2H401.1L425.1 93.5996H435.7L459.7 157.2H449.4L443.3 141.3ZM421 132.6H440L430.5 105.9L421 132.6Z" fill="#313235"/>
</g>
<defs>
<linearGradient id="paint0_linear_2_1943" x1="6.9729" y1="117.367" x2="160.832" y2="50.786" gradientUnits="userSpaceOnUse">
<stop offset="1" stop-color="#313235"/>
</linearGradient>
<clipPath id="clip0_2_1943">
<rect width="464.9" height="167.5" fill="white"/>
</clipPath>
</defs>
</svg>
