<svg width="338" height="173" viewBox="0 0 338 173" fill="none" xmlns="http://www.w3.org/2000/svg">
<g clip-path="url(#clip0_2_1686)">
<path d="M298.7 172.3C284.1 172.3 275 166.1 269.1 151.6C264 139.1 243.9 88.4 240.5 79.8C240.1 78.8 239.6 77.4 239.6 76.2C239.6 73.9 241.3 72.5 243.9 72.5H265.4C268.8 72.5 271.2 73.3 272.4 76.6C273.7 80.1 298.4 145.5 298.4 145.5C305.2 140.5 307.8 131.6 307.8 119.1V77.4C307.8 74.7 310 72.6 312.6 72.6H333.2C335.9 72.6 338 74.8 338 77.4V119.2C338.1 146.8 324.1 172.3 298.7 172.3Z" fill="#313235"/>
<path d="M173.1 146C166.3 138.9 163.3 131.9 163.3 119.2V4.8C163.3 2.1 161.1 0 158.5 0H137.2C134.5 0 132.4 2.2 132.4 4.8V121.1C132.4 152.7 149.8 172.3 169.7 172.3C178.4 172.3 184.4 167.6 184.4 160.5C184.2 153.6 177.4 150.5 173.1 146Z" fill="#313235"/>
<path d="M109.7 122.3C109.7 121.8 109.7 118.9 109.7 118.4C109.7 89.4 90.5 65.8 54.8 65.8C21 65.8 0 87.2 0 118.9C0 154.8 25.3 172.4 52.5 172.4C73.8 172.4 83.5 161.1 85.3 158.9C86.3 161.1 92.3 172.4 108 172.4C117.2 172.4 122.5 167.4 122.5 160.8C122.5 151.6 115.6 149.6 111.9 137.5C110.5 133.5 109.7 128.6 109.7 122.3ZM79.4 119.1C79.4 133.3 70.2 144.9 54.8 144.9C39.3 144.9 30.1 133.4 30.1 119.1C30.1 104.9 39.3 93.3 54.8 93.3C70.1 93.3 79.4 104.9 79.4 119.1Z" fill="#313235"/>
<path d="M226.699 37.6C226.699 48.1 218.199 56.6 207.699 56.6C197.199 56.6 188.699 48.1 188.699 37.6C188.699 27.1 197.199 18.6 207.699 18.6C218.199 18.6 226.699 27.1 226.699 37.6ZM233.099 146C226.299 138.9 223.299 131.9 223.299 119.2V77.4C223.299 74.7 221.099 72.6 218.499 72.6H197.199C194.499 72.6 192.399 74.8 192.399 77.4V121.2C192.399 152.8 209.799 172.4 229.699 172.4C238.399 172.4 244.399 167.7 244.399 160.6C244.199 153.6 237.399 150.5 233.099 146Z" fill="#313235"/>
</g>
<defs>
<clipPath id="clip0_2_1686">
<rect width="338" height="172.4" fill="white"/>
</clipPath>
</defs>
</svg>
