<?xml version="1.0" encoding="UTF-8"?><svg id="Layer_1" xmlns="http://www.w3.org/2000/svg" viewBox="0 0 108.24 88.22"><defs><style>.cls-1{fill:#655aff;}</style></defs><path class="cls-1" d="M54.19,4.02c10.71,0,21.41,.02,32.12,0,3.62,0,6.64,1.21,8.86,4.13,1.34,1.76,2.05,3.76,2.05,5.98,0,15.9,.02,31.81,0,47.71,0,5.61-4.63,10.08-10.42,10.11-7.12,.03-14.23,.02-21.35-.02-.86,0-1.13,.21-1.04,1.06,.08,.73,.06,1.48,0,2.21-.06,.69,.19,.84,.85,.84,5.42-.03,10.84-.02,16.25-.01,4.04,0,7.26,3.08,7.49,7.12,.11,1.88-.92,3.05-2.79,3.17-.26,.02-.51,0-.77,0-20.87,0-41.74,0-62.61,0-.74,0-1.48,.03-2.15-.35-1.23-.68-1.68-2.03-1.31-3.89,.7-3.51,3.79-6.06,7.4-6.06,5.39-.01,10.77-.02,16.16,.01,.75,0,1.01-.17,.95-.94-.07-.8-.05-1.61,0-2.41,.04-.6-.15-.76-.75-.75-2.05,.04-4.1,.01-6.15,.01-5.07,0-10.13,0-15.2,0-5.56,0-9.65-3.42-10.63-8.87-.11-.59-.09-1.22-.09-1.82,0-15.45,.09-30.91-.05-46.36-.05-5.58,4.11-10.95,10.87-10.89,10.77,.09,21.54,.02,32.31,.02Zm-.07,6.23c-10.77,0-21.54,.05-32.31-.03-2.77-.02-4.64,1.95-4.63,4.69,.06,13.33,.02,26.67,.03,40,0,2.96,1.62,4.63,4.54,4.63,21.61,0,43.21,0,64.82,0,2.87,0,4.5-1.68,4.5-4.57,0-13.37-.03-26.73,.02-40.1,0-2.62-1.76-4.67-4.66-4.65-10.77,.09-21.54,.03-32.31,.03Zm.04,52.44c-1.69,0-3.08,1.35-3.09,3.02-.02,1.66,1.37,3.05,3.05,3.07,1.66,.02,3.09-1.37,3.09-3.02,0-1.67-1.37-3.05-3.05-3.06Z"/><path class="cls-1" d="M71.63,22.57c0,1.6,.04,3.21-.01,4.81-.03,1.11,.45,1.8,1.4,2.29,2.91,1.51,5.81,3.06,8.73,4.57,.61,.31,.83,.51,.23,1.11-3.34,3.39-7.31,4.56-11.82,3.11-4.51-1.46-7.15-4.7-7.74-9.44-.7-5.64,2.8-10.71,8.25-12.25,.87-.25,1.01,0,.98,.79-.05,1.67-.01,3.34-.01,5.01Z"/><path class="cls-1" d="M35.68,27.69c0-2.99,0-5.97,0-8.96,0-1.55,.72-2.32,2.26-2.36,1.25-.04,2.5-.04,3.75,0,1.44,.05,2.24,.87,2.24,2.32,.01,6,.01,12.01,0,18.01,0,1.49-.84,2.29-2.34,2.3-1.25,0-2.5,.01-3.75,0-1.35-.02-2.15-.81-2.15-2.16-.01-3.05,0-6.1,0-9.15Z"/><path class="cls-1" d="M39.75,47.27c-4.65,0-9.3,0-13.94,0-1.34,0-2.25-.66-2.43-1.72-.22-1.33,.72-2.43,2.15-2.47,1.28-.03,2.56,0,3.85,0,7.98,0,15.96,0,23.95,0,.26,0,.51-.01,.77,0,1.21,.07,2.11,.94,2.14,2.05,.03,1.14-.89,2.1-2.15,2.13-1.51,.04-3.01,.01-4.52,.01-3.27,0-6.54,0-9.81,0Z"/><path class="cls-1" d="M47.99,30.7c0-1.96,0-3.92,0-5.88,0-1.43,.72-2.23,2.14-2.28,1.31-.05,2.63-.05,3.94,0,1.38,.05,2.16,.88,2.16,2.29,.02,3.95,.02,7.9,0,11.85,0,1.5-.83,2.31-2.32,2.32-1.19,0-2.37,0-3.56,0-1.65,0-2.37-.74-2.37-2.43,0-1.96,0-3.92,0-5.88Z"/><path class="cls-1" d="M35.7,49.24c3.27,0,6.53,0,9.8,0,1.59,0,2.52,.81,2.5,2.14-.02,1.27-.96,2.05-2.49,2.05-6.56,0-13.12,0-19.69,0-1.52,0-2.45-.81-2.45-2.09,0-1.29,.92-2.1,2.44-2.1,3.3,0,6.59,0,9.89,0Z"/><path class="cls-1" d="M23.37,32.83c0-1.35-.01-2.69,0-4.04,.02-1.29,.81-2.1,2.09-2.12,1.34-.02,2.69-.02,4.03,0,1.21,.02,2.09,.8,2.11,2.03,.05,2.76,.05,5.52,0,8.27-.02,1.22-.9,2.01-2.11,2.03-1.34,.02-2.69,.02-4.03,0-1.27-.02-2.07-.84-2.08-2.13-.02-1.35,0-2.69,0-4.04Z"/><path class="cls-1" d="M73.62,47.27c-2.98,0-5.96,.01-8.93,0-1.58,0-2.54-1.08-2.29-2.5,.19-1.09,1.05-1.69,2.43-1.69,5.51,0,11.01,0,16.52,0,.42,0,.83,0,1.25,0,1.42,.03,2.34,.86,2.33,2.12-.01,1.24-.94,2.07-2.37,2.07-2.98,.01-5.96,0-8.93,0Z"/><path class="cls-1" d="M84.4,31.09c-2.83-1.5-5.56-2.95-8.31-4.39-.35-.18-.41-.42-.41-.77,0-2.92,.02-5.85,0-8.77,0-.52,.18-.57,.62-.49,4.48,.87,8.46,5.58,8.62,10.23,.05,1.38-.02,2.75-.51,4.18Z"/><path class="cls-1" d="M70.55,53.44c-1.92,0-3.84,0-5.76,0-1.49,0-2.45-.84-2.44-2.11,0-1.27,.96-2.08,2.47-2.08,3.84,0,7.68,0,11.52,0,1.51,0,2.44,.82,2.43,2.11,0,1.28-.94,2.08-2.46,2.08-1.92,0-3.84,0-5.76,0Z"/></svg>
