<svg width="442" height="565" viewBox="0 0 442 565" fill="none" xmlns="http://www.w3.org/2000/svg">
<g clip-path="url(#clip0_2_2116)">
<path d="M194.775 419.796H201.769L218.604 458.431H209.021L205.654 450.263H190.631L187.394 458.431H178.069L194.775 419.796ZM198.013 431.075L193.351 443.132H202.805L198.013 431.075Z" fill="#313235"/>
<path d="M244.246 429.26C242.822 427.575 240.102 426.667 238.03 426.667C235.569 426.667 232.332 427.704 232.332 430.686C232.332 437.687 250.074 433.15 250.074 446.762C250.074 455.319 243.21 459.468 235.181 459.468C230.26 459.468 225.857 458.042 222.23 454.671L228.317 448.059C230.001 450.393 232.85 451.689 235.699 451.689C238.419 451.689 241.527 450.393 241.527 447.67C241.527 440.539 223.396 444.429 223.396 431.594C223.396 423.426 230.519 419.018 238.16 419.018C242.563 419.018 246.707 420.185 249.944 423.037L244.246 429.26Z" fill="#313235"/>
<path d="M259.14 419.796H273.515C281.544 419.796 288.149 422.389 288.149 431.464C288.149 440.539 281.932 443.262 273.903 443.262H267.687V458.301H259.14V419.796ZM267.557 436.131H273.256C276.234 436.131 279.213 435.094 279.213 431.464C279.213 427.445 275.198 426.926 271.961 426.926H267.557V436.131Z" fill="#313235"/>
<path d="M296.437 419.796H322.597V427.704H304.855V434.835H321.561V442.743H304.855V450.652H323.504V458.56H296.308V419.796H296.437Z" fill="#313235"/>
<path d="M333.216 419.796H344.742L361.189 446.633H361.318V419.796H369.866V458.431H358.728L341.893 430.946H341.763V458.431H333.216V419.796Z" fill="#313235"/>
<path d="M178.069 472.562H186.617V511.197H178.069V472.562Z" fill="#313235"/>
<path d="M196.977 472.562H209.668C222.1 472.562 232.461 477.878 232.461 492.009C232.461 504.455 222.23 511.197 210.834 511.197H196.977V472.562ZM205.524 503.288H209.927C217.827 503.288 223.784 500.306 223.784 491.49C223.784 483.971 217.697 480.341 210.575 480.341H205.524V503.288Z" fill="#313235"/>
<path d="M239.195 472.562H265.485V480.47H247.743V487.731H264.449V495.639H247.743V503.548H266.391V511.456H239.195V472.562Z" fill="#313235"/>
<path d="M288.666 472.562H295.659L312.495 511.197H302.912L299.544 503.029H284.522L281.284 511.197H271.96L288.666 472.562ZM291.904 483.841L287.242 495.769H296.695L291.904 483.841Z" fill="#313235"/>
<path d="M338.137 482.026C336.712 480.341 333.993 479.433 331.921 479.433C329.46 479.433 326.222 480.471 326.222 483.452C326.222 490.453 343.965 485.916 343.965 499.529C343.965 508.085 337.101 512.234 329.072 512.234C324.15 512.234 319.747 510.808 316.121 507.437L322.208 500.825C323.891 503.159 326.74 504.455 329.59 504.455C332.309 504.455 335.417 503.159 335.417 500.436C335.417 493.306 317.287 497.195 317.287 484.36C317.287 476.063 324.409 471.784 332.05 471.784C336.453 471.784 340.597 472.951 343.835 475.803L338.137 482.026Z" fill="#313235"/>
<path d="M178.069 525.328H203.97V533.237H186.617V541.145H202.675V549.053H186.617V563.963H178.069V525.328Z" fill="#313235"/>
<path d="M213.035 525.328H239.195V533.237H221.453V540.497H238.289V548.405H221.582V556.314H240.231V564.222H213.035V525.328Z" fill="#313235"/>
<path d="M268.852 534.792C267.427 533.107 264.708 532.199 262.636 532.199C260.175 532.199 256.937 533.237 256.937 536.218C256.937 543.219 274.679 538.682 274.679 552.295C274.679 560.851 267.816 565 259.786 565C254.865 565 250.462 563.574 246.836 560.203L252.923 553.591C254.606 555.925 257.455 557.221 260.304 557.221C263.024 557.221 266.132 555.925 266.132 553.202C266.132 546.072 248.001 549.961 248.001 537.126C248.001 528.958 255.124 524.55 262.765 524.55C267.168 524.55 271.312 525.717 274.55 528.569L268.852 534.792Z" fill="#313235"/>
<path d="M291.257 532.848H280.249V525.328H310.683V532.848H299.675V563.963H291.127V532.848H291.257Z" fill="#313235"/>
<path d="M317.676 525.328H326.223V563.963H317.676V525.328Z" fill="#313235"/>
<path d="M332.827 525.328H342.54L352.123 550.609H352.253L361.966 525.328H371.031L354.972 563.963H348.109L332.827 525.328Z" fill="#313235"/>
<path d="M386.96 525.328H393.954L410.789 563.963H401.206L397.839 555.795H382.816L379.579 563.963H370.384L386.96 525.328ZM390.198 536.607L385.536 548.665H394.99L390.198 536.607Z" fill="#313235"/>
<path d="M417.653 525.328H426.201V556.054H442V563.963H417.783V525.328H417.653Z" fill="#313235"/>
<path d="M274.81 109.94L184.156 162.317V138.981L274.81 86.4741V109.94Z" fill="#636569"/>
<path d="M301.099 118.108L184.156 185.783V162.317L301.099 94.7715V118.108Z" fill="#797C81"/>
<path d="M268.463 160.373L230.389 182.413V159.077L268.463 137.037V160.373Z" fill="#606367"/>
<path d="M368.829 149.223L330.755 171.263V147.797L368.829 125.887V149.223Z" fill="#96989C"/>
<path d="M221.583 210.806L184.156 232.586V209.12L221.583 187.469V210.806Z" fill="#96989C"/>
<path d="M276.493 225.974L184.156 279.259V255.922L276.493 202.508V225.974Z" fill="#606367"/>
<path d="M324.41 221.696L184.156 302.725V279.259L324.41 198.229V221.696Z" fill="#96989C"/>
<path d="M313.013 158.039L221.583 210.805V187.469L313.013 134.703V158.039Z" fill="#616366"/>
<path d="M289.832 194.859L184.156 255.922V232.586L289.832 171.522V194.859Z" fill="#6F7376"/>
<path d="M312.883 251.774L240.49 293.52V270.183L312.883 228.308V251.774Z" fill="#606367"/>
<path d="M339.303 189.673L276.493 225.974V202.508L339.303 166.336V189.673Z" fill="#85878A"/>
<path d="M200.603 59.2483L184.156 68.7125V45.2464L200.603 35.7822V59.2483Z" fill="#6F7376"/>
<path d="M212.777 75.5842L184.156 92.0493V68.7129L212.777 52.1182V75.5842Z" fill="#96989C"/>
<path d="M262.506 23.3364L233.886 39.8015V16.4651L262.506 0V23.3364Z" fill="#6F7376"/>
<path d="M221.583 117.33L184.156 138.981V115.515L221.583 93.8643V117.33Z" fill="#96989C"/>
<path d="M269.888 89.4563L221.583 117.33V93.8643L269.888 65.9902V89.4563Z" fill="#616366"/>
<path d="M67.2129 117.978L184.156 185.784V162.318L67.2129 94.6421V117.978Z" fill="#6F7376"/>
<path d="M126.008 175.542L184.155 209.12V185.784L126.008 152.076V175.542Z" fill="#96989C"/>
<path d="M30.0449 190.321L74.5946 215.991V192.655L30.0449 166.855V190.321Z" fill="#96989C"/>
<path d="M55.2988 158.039L145.175 210.027V186.561L55.2988 134.703V158.039Z" fill="#606367"/>
<path d="M55.2988 181.505L184.156 255.922V232.586L55.2988 158.039V181.505Z" fill="#616366"/>
<path d="M34.1895 239.587L93.7617 273.944V250.477L34.1895 216.121V239.587Z" fill="#6F7376"/>
<path d="M299.027 283.148L184.156 349.527V326.191L299.027 259.682V283.148Z" fill="#6F7376"/>
<path d="M93.7617 273.943L184.156 326.191V302.725L93.7617 250.477V273.943Z" fill="#797C81"/>
<path d="M74.5947 215.991L163.694 267.591V244.124L74.5947 192.655V215.991Z" fill="#85878A"/>
<path d="M162.658 56.2666L184.156 68.7126V45.2466L162.658 32.9302V56.2666Z" fill="#636569"/>
<path d="M153.204 74.2876L184.156 92.0492V68.7128L153.204 50.9512V74.2876Z" fill="#797C81"/>
<path d="M145.693 93.3454L184.156 115.515V92.049L145.693 69.8794V93.3454Z" fill="#616366"/>
<path d="M135.851 111.107L184.156 138.981V115.515L135.851 87.6411V111.107Z" fill="#606367"/>
<path d="M118.497 77.6584L145.693 93.3457V69.8796L118.497 54.1924V77.6584Z" fill="#6F7376"/>
<path d="M40.0166 78.9548L67.2126 94.642V71.4353L40.0166 55.748V78.9548Z" fill="#606367"/>
<path d="M0 149.612L27.196 165.299V141.833L0 126.146V149.612Z" fill="#6F7376"/>
<path d="M42.7363 314.523L87.027 340.323V316.857L42.7363 291.187V314.523Z" fill="#96989C"/>
<path d="M73.4297 262.146V285.612L178.07 346.027V396.33H184.156V349.527V343.693V326.191L73.4297 262.146Z" fill="#85878A"/>
</g>
<defs>
<clipPath id="clip0_2_2116">
<rect width="442" height="565" fill="white"/>
</clipPath>
</defs>
</svg>
