<svg width="240" height="54" viewBox="0 0 240 54" fill="none" xmlns="http://www.w3.org/2000/svg">
<path d="M0.175781 53.1941H53.3008V0.944088H0.175781V53.1941Z" fill="url(#paint0_linear_2_1621)"/>
<path d="M4.30078 1.81909C3.30078 1.81909 2.55078 2.69409 2.42578 3.94409C2.42578 3.94409 1.05078 10.9441 1.05078 25.6941C1.05078 40.5691 2.42578 50.1941 2.42578 50.1941C2.55078 51.3191 3.30078 52.3191 4.30078 52.3191H50.3008C51.3008 52.3191 52.1758 51.4441 52.1758 50.1941C52.1758 50.1941 51.6758 38.8191 51.6758 27.6941C51.6758 16.5691 52.1758 3.81909 52.1758 3.81909C52.1758 2.69409 51.3008 1.6941 50.3008 1.6941L4.30078 1.81909Z" fill="url(#paint1_linear_2_1621)"/>
<path d="M30.1758 7.19409C31.6758 7.81909 37.4258 10.9441 38.1758 11.9441C35.3008 12.3191 29.4258 13.8191 26.4258 15.3191L26.3008 15.6941C29.6758 14.9441 34.5508 14.5691 37.8008 14.3191C36.5508 16.0691 35.8008 16.9441 33.9258 19.0691L33.8008 19.4441C37.4258 17.3191 38.4258 17.1941 41.6758 15.1941C42.9258 17.0691 43.1758 21.3191 43.3008 24.5691C44.4258 22.4441 45.6758 14.4441 45.1758 12.9441C47.3008 11.4441 47.6758 10.1941 47.6758 10.1941C45.6758 10.3191 44.5508 10.4441 43.5508 10.6941C41.0508 9.06909 35.1758 7.06909 30.6758 6.56909L30.1758 7.19409Z" fill="url(#paint2_linear_2_1621)"/>
<path d="M8.30078 32.0691C8.05078 34.6941 7.92578 36.6941 8.30078 38.8191C7.17578 39.0691 6.30078 39.1941 5.42578 39.5691L5.30078 39.9441C6.67578 40.8191 7.80078 41.4441 9.42578 42.1941C10.3008 43.9441 11.1758 45.1941 12.5508 46.5691L12.6758 46.1941C12.4258 45.1941 12.0508 44.3191 12.1758 43.1941C13.9258 43.6941 15.4258 43.9441 17.4258 44.0691L17.5508 43.6941C15.8008 43.0691 14.0508 42.4441 12.6758 41.1941C13.1758 39.9441 13.6758 38.9441 14.4258 37.8191L14.5508 37.4441C13.0508 37.6941 11.6758 38.1941 10.4258 38.4441C9.42578 36.6941 9.05078 34.1941 8.55078 31.8191L8.30078 32.0691Z" fill="url(#paint3_linear_2_1621)"/>
<path d="M17.3008 19.9441C17.3008 19.9441 16.1758 19.8191 14.3008 19.9441C12.6758 20.0691 10.4258 20.1941 9.30079 20.4441L9.17578 20.8191C10.9258 20.9441 13.4258 21.4441 14.4258 22.3191C14.4258 22.3191 11.6758 24.8191 8.92578 30.1941C8.92578 30.1941 13.9258 25.5691 16.0508 24.4441C16.0508 24.4441 17.1758 28.1941 17.9258 30.0691L18.0508 29.6941C18.3008 28.4441 18.8008 25.1941 19.6758 23.1941C19.6758 23.1941 20.0508 22.9441 21.5508 22.8191C23.1758 22.6941 25.4258 22.5691 29.6758 23.3191L29.8008 22.9441C28.8008 22.3191 24.9258 20.6941 20.9258 20.1941H21.0508C21.5508 18.5691 22.3008 17.3191 22.3008 17.3191C21.3008 17.4441 18.9258 18.5691 17.3008 19.9441Z" fill="url(#paint4_linear_2_1621)"/>
<path d="M27.5508 42.8191C27.5508 42.0691 27.4258 41.4441 27.4258 40.6941C26.5508 41.8191 25.8008 42.8191 24.9258 43.8191C23.9258 44.0691 22.8008 44.0691 21.6758 44.0691C21.3008 44.0691 20.9258 44.0691 20.5508 44.0691L20.4258 44.4441C21.4258 44.9441 22.3008 45.1941 23.4258 45.4441C22.5508 46.1941 21.5508 46.8191 20.6758 47.3191L20.4258 47.5691C22.0508 47.1941 24.3008 46.4441 25.9258 45.5691C26.8008 45.5691 27.5508 45.5691 28.1758 45.4441L28.3008 45.0691C28.1758 44.6941 27.8008 44.4441 27.8008 43.9441C29.3008 42.8191 30.4258 41.6941 31.6758 40.4441L31.8008 40.0691C30.5508 40.8191 29.0508 42.0691 27.5508 42.8191Z" fill="url(#paint5_linear_2_1621)"/>
<path d="M41.5684 14.879C38.3184 16.754 37.3184 17.004 33.6934 19.129C35.8184 16.879 36.5684 15.879 37.8184 14.004C34.5684 14.129 29.6934 14.629 26.3184 15.379C29.3184 13.754 35.1934 12.004 38.3184 11.629C37.5684 10.504 31.6934 7.37903 30.3184 6.75403C34.9434 7.12903 40.5684 8.87903 43.3184 10.504C44.4434 10.129 45.5684 10.129 47.5684 10.004C47.0684 10.879 47.0684 11.379 45.0684 12.629C45.5684 14.129 44.3184 22.129 43.1934 24.254C43.0684 21.004 42.8184 16.754 41.5684 14.879Z" fill="white"/>
<path d="M17.5488 43.6194C15.6738 42.8694 14.2988 42.1194 12.7988 40.7444C13.2988 39.4944 13.7988 38.4944 14.5488 37.2444C13.0488 37.4944 11.9238 37.6194 10.5488 37.8694C9.42383 35.9944 9.04883 34.1194 8.42383 31.6194C8.17383 34.2444 8.04883 36.2444 8.42383 38.3694C7.17383 38.7444 6.29883 38.9944 5.29883 39.4944C6.67383 40.3694 7.79883 40.9944 9.42383 41.7444C10.2988 43.4944 11.1738 44.7444 12.6738 46.1194C12.2988 44.9944 12.2988 43.9944 12.4238 42.7444C14.0488 43.2444 15.5488 43.6194 17.5488 43.6194Z" fill="white"/>
<path d="M22.457 16.9746C21.832 17.7246 21.207 19.0996 20.957 19.8496C25.832 20.4746 29.707 22.9746 29.707 22.9746C25.457 22.2246 23.332 22.3496 21.707 22.4746C20.082 22.5996 19.832 22.8496 19.832 22.8496C18.707 25.3496 17.957 29.7246 17.957 29.7246C17.207 27.8496 16.082 24.0996 16.082 24.0996C13.957 25.2246 8.95703 29.8496 8.95703 29.8496C11.707 24.4746 14.457 21.9746 14.457 21.9746C13.457 20.9746 11.082 20.4746 9.20703 20.4746C10.207 19.9746 12.582 19.5996 14.457 19.4746C16.332 19.3496 17.457 19.4746 17.457 19.4746C19.082 18.2246 21.582 17.0996 22.457 16.9746Z" fill="white"/>
<path d="M27.6094 40.2533C26.7344 41.3783 25.9844 42.3783 25.1094 43.3783C23.4844 43.8783 22.1094 44.0033 20.4844 44.0033C21.4844 44.5033 22.3594 44.7533 23.4844 45.0033C22.4844 45.8783 21.6094 46.6283 20.6094 47.2533C22.2344 46.8783 24.4844 46.1283 26.1094 45.2533C26.9844 45.2533 27.7344 45.2533 28.3594 45.1283C28.1094 44.6283 28.1094 44.2533 27.9844 43.5033C29.4844 42.3783 30.6094 41.2533 31.8594 40.0033C30.4844 41.0033 29.3594 41.6283 27.7344 42.3783C27.7344 41.6283 27.6094 41.1283 27.6094 40.2533Z" fill="white"/>
<path d="M72.668 20.9331C75.918 20.9331 77.168 21.6831 77.168 23.4331C77.168 23.9331 77.043 24.3081 76.793 24.6831C76.043 25.4331 74.793 25.8081 73.293 25.6831H73.168L72.293 28.0581H73.168C74.918 28.0581 76.543 28.5581 77.293 29.5581C77.668 30.0581 77.793 30.5581 77.793 31.0581C77.793 32.9331 76.168 33.8081 72.918 33.8081C72.418 33.8081 71.543 33.8081 70.918 33.8081C70.793 31.3081 70.793 27.9331 70.793 26.9331C70.793 25.8081 70.918 23.1831 70.918 20.9331C71.418 20.9331 72.043 20.9331 72.668 20.9331ZM66.668 19.1831C66.793 20.9331 66.918 25.4331 66.918 27.0581C66.918 28.5581 66.918 33.5581 66.668 35.6831V35.8081H74.418C78.293 35.8081 82.293 34.5581 82.293 31.1831C82.293 29.0581 80.793 27.4331 77.918 26.5581C79.918 26.0581 81.418 24.6831 81.418 22.9331C81.418 20.1831 78.168 19.0581 75.168 19.0581L66.668 19.1831Z" fill="#313235"/>
<path d="M100.273 19.0725H96.5234L96.6484 23.3225C96.7734 25.4475 96.7734 27.5725 96.8984 29.6975C96.6484 28.9475 96.3984 28.6975 95.2734 26.9475C95.2734 26.9475 91.2734 20.8225 89.8984 19.0725H85.5234V19.1975C85.6484 20.9475 85.7734 25.4475 85.7734 27.0725C85.7734 28.5725 85.7734 33.5725 85.5234 35.6975V35.8225H89.3984V35.6975C89.1484 31.5725 89.1484 27.4475 89.1484 23.4475C89.2734 23.9475 89.5234 24.3225 90.1484 25.3225C90.1484 25.4475 97.0234 35.3225 97.2734 35.8225V35.9475H100.398V35.8225C100.148 33.6975 100.148 28.6975 100.148 27.1975C100.148 25.5725 100.273 21.1975 100.398 19.3225L100.273 19.0725Z" fill="#313235"/>
<path d="M110.572 21.0979C112.822 21.0979 114.322 21.4729 115.072 22.4729C115.322 22.8479 115.572 23.3479 115.572 23.9729C115.572 26.3479 112.822 26.9729 110.572 26.9729H109.697C109.697 26.9729 109.447 26.9729 109.322 26.9729C109.322 26.4729 109.322 25.7229 109.322 24.8479C109.322 23.8479 109.322 22.5979 109.322 21.3479C109.572 21.0979 110.072 21.0979 110.572 21.0979ZM104.822 19.2229C104.947 20.9729 105.072 25.4729 105.072 27.0979C105.072 28.5979 105.072 33.5979 104.822 35.7229V35.8479H109.447V35.7229C109.322 34.0979 109.197 31.2229 109.197 28.9729C109.447 28.9729 110.072 28.9729 110.072 28.9729H110.697C116.822 28.9729 119.822 27.3479 119.822 23.9729C119.822 20.0979 115.572 19.2229 112.072 19.0979L104.822 19.2229Z" fill="#313235"/>
<path d="M134.535 21.0979C136.785 21.0979 138.285 21.4729 139.035 22.4729C139.285 22.8479 139.535 23.3479 139.535 23.9729C139.535 26.3479 136.785 26.9729 134.535 26.9729H133.66C133.66 26.9729 133.41 26.9729 133.285 26.9729C133.285 26.4729 133.285 25.7229 133.285 24.8479C133.285 23.7229 133.285 22.5979 133.285 21.3479C133.535 21.0979 134.035 21.0979 134.535 21.0979ZM128.785 19.2229C128.91 20.9729 129.035 25.4729 129.035 27.0979C129.035 28.5979 129.035 33.5979 128.785 35.7229V35.8479H133.41V35.7229C133.285 34.0979 133.16 31.2229 133.16 28.9729C133.41 28.9729 134.035 28.9729 134.035 28.9729H134.66C140.785 28.9729 143.785 27.3479 143.785 23.9729C143.785 20.0979 139.535 19.2229 136.035 19.0979L128.785 19.2229Z" fill="#313235"/>
<path d="M151.234 24.0153C151.609 24.7653 152.609 27.0153 153.609 29.7653C153.484 29.7653 153.234 29.7653 153.234 29.7653H151.234C151.234 29.7653 149.109 29.7653 148.734 29.7653C149.609 27.6403 150.484 25.6403 151.234 24.0153ZM150.109 19.0153C149.109 21.5153 143.484 33.7653 142.609 35.6403L142.484 35.8903H146.484V35.7653C146.859 34.6403 147.359 33.2653 147.859 31.8903C147.984 31.8903 151.234 31.8903 151.234 31.8903H153.984C153.984 31.8903 154.484 31.8903 154.609 31.8903C155.359 33.6403 155.859 35.0153 156.109 35.7653V35.8903H160.734L153.234 19.0153H153.109H150.109Z" fill="#313235"/>
<path d="M162.576 19.2301C162.701 20.9801 162.826 25.4801 162.826 27.1051C162.826 28.6051 162.826 33.6051 162.576 35.7301V35.8551H167.326V35.7301C167.076 33.6051 167.076 28.6051 167.076 27.1051C167.076 25.9801 167.076 23.3551 167.201 21.2301C167.576 21.2301 168.076 21.1051 168.451 21.1051C170.576 21.1051 172.201 21.4801 172.826 22.4801C173.201 22.8551 173.326 23.3551 173.326 23.9801C173.326 25.9801 171.576 26.8551 169.826 26.9801C169.201 26.9801 168.826 26.9801 168.826 26.9801H168.451L168.576 27.2301C170.201 29.6051 172.701 33.8551 173.826 35.8551V35.9801H178.826V35.6051C178.576 35.3551 175.326 30.4801 173.951 28.4801C173.951 28.4801 173.951 28.4801 173.826 28.3551C176.326 27.6051 177.576 26.1051 177.576 23.9801C177.576 20.1051 173.326 19.2301 169.826 19.1051H162.576V19.2301Z" fill="#313235"/>
<path d="M185.549 19.0725H181.049V19.1975C181.174 20.9475 181.299 25.4475 181.299 27.0725C181.299 28.5725 181.299 33.5725 181.049 35.6975V35.8225H185.674V35.6975C185.549 33.5725 185.424 28.5725 185.424 27.0725C185.424 25.4475 185.549 21.0725 185.674 19.1975L185.549 19.0725Z" fill="#313235"/>
<path d="M195.947 20.9331C199.197 20.9331 200.447 21.6831 200.447 23.4331C200.447 23.9331 200.322 24.3081 199.947 24.6831C199.322 25.4331 198.072 25.8081 196.572 25.6831H196.447L195.572 28.0581H196.447C198.197 28.0581 199.822 28.5581 200.572 29.5581C200.947 30.0581 201.197 30.5581 201.197 31.0581C201.197 32.9331 199.572 33.8081 196.322 33.8081C195.822 33.8081 194.947 33.8081 194.322 33.8081C194.197 31.3081 194.197 27.9331 194.197 26.9331C194.197 25.8081 194.197 23.1831 194.322 20.9331C194.822 20.9331 195.322 20.9331 195.947 20.9331ZM189.947 19.1831C190.072 20.9331 190.197 25.4331 190.197 27.0581C190.197 28.5581 190.197 33.5581 189.947 35.6831V35.8081H197.822C201.697 35.8081 205.697 34.5581 205.697 31.1831C205.697 29.0581 204.197 27.4331 201.197 26.5581C203.322 26.0581 204.697 24.6831 204.697 22.9331C204.697 20.1831 201.447 19.0581 198.572 19.0581L189.947 19.1831Z" fill="#313235"/>
<path d="M215.135 24.0062C215.51 24.7562 216.51 27.0062 217.51 29.6312C217.385 29.6312 217.135 29.6312 217.135 29.6312L215.135 29.7562C215.135 29.7562 213.01 29.7562 212.635 29.7562C213.51 27.5062 214.385 25.6312 215.135 24.0062ZM217.01 19.1312H213.885V19.2562C212.885 21.7562 207.01 34.6312 206.51 35.7562L206.385 36.0062H210.385V35.8812C210.76 34.7562 211.135 33.3812 211.76 32.0062C211.885 32.0062 215.01 32.0062 215.01 32.0062H217.76C217.76 32.0062 218.26 32.0062 218.385 32.0062C219.135 33.7562 219.635 35.1312 219.885 35.8812V36.0062H224.51L217.01 19.1312Z" fill="#313235"/>
<path d="M225.922 23.4127C225.922 26.4127 228.922 27.5377 231.547 28.6627C233.547 29.4127 235.672 30.2877 235.672 31.7877C235.672 32.1627 235.547 32.5377 235.297 32.7877C234.797 33.2877 233.797 33.5377 232.297 33.4127C230.672 33.4127 228.922 32.9127 227.047 32.0377L226.172 31.6627V32.2877V35.2877L226.672 35.4127H226.922C227.922 35.6627 229.797 36.0377 231.672 36.0377C236.672 36.1627 239.672 34.1627 239.672 30.9127C239.672 27.9127 236.672 26.6627 233.922 25.6627C231.922 24.7877 229.922 24.0377 229.922 22.7877C229.922 22.4127 229.922 21.2877 232.422 21.2877C234.297 21.2877 236.172 22.0377 237.172 22.4127L238.172 22.7877V22.1627V19.1627L237.172 19.0377C236.297 18.7877 234.672 18.4127 233.047 18.4127C228.797 18.4127 225.922 20.4127 225.922 23.4127Z" fill="#313235"/>
<defs>
<linearGradient id="paint0_linear_2_1621" x1="26.7197" y1="-0.403239" x2="26.7197" y2="87.2719" gradientUnits="userSpaceOnUse">
<stop stop-color="#303031"/>
<stop offset="0.6" stop-color="#CDCFD0"/>
<stop offset="1" stop-color="#8A8C8E"/>
</linearGradient>
<linearGradient id="paint1_linear_2_1621" x1="26.6018" y1="-12.2939" x2="26.6018" y2="86.2287" gradientUnits="userSpaceOnUse">
<stop stop-color="#8A8C8E"/>
<stop offset="0.3" stop-color="#CDCFD0"/>
<stop offset="0.55" stop-color="#8A8C8E"/>
<stop offset="0.8352" stop-color="#7B7C7F"/>
<stop offset="1" stop-color="#919396"/>
</linearGradient>
<linearGradient id="paint2_linear_2_1621" x1="37.0148" y1="47.2616" x2="37.0148" y2="-16.4943" gradientUnits="userSpaceOnUse">
<stop stop-color="#97999C"/>
<stop offset="1" stop-color="#8A8C8E"/>
</linearGradient>
<linearGradient id="paint3_linear_2_1621" x1="11.4402" y1="47.2661" x2="11.4402" y2="-16.509" gradientUnits="userSpaceOnUse">
<stop stop-color="#97999C"/>
<stop offset="1" stop-color="#8A8C8E"/>
</linearGradient>
<linearGradient id="paint4_linear_2_1621" x1="19.3645" y1="47.2545" x2="19.3645" y2="-16.4786" gradientUnits="userSpaceOnUse">
<stop stop-color="#97999C"/>
<stop offset="1" stop-color="#8A8C8E"/>
</linearGradient>
<linearGradient id="paint5_linear_2_1621" x1="26.1249" y1="47.2642" x2="26.1249" y2="-16.4909" gradientUnits="userSpaceOnUse">
<stop stop-color="#97999C"/>
<stop offset="1" stop-color="#8A8C8E"/>
</linearGradient>
</defs>
</svg>
