<?xml version="1.0" encoding="UTF-8"?><svg id="Layer_1" xmlns="http://www.w3.org/2000/svg" viewBox="0 0 108.24 88.22"><defs><style>.cls-1{fill:#655aff;}</style></defs><path class="cls-1" d="M97.86,75.38v3.03c-.67,1.06-1.68,1.26-2.86,1.26-25.39-.02-50.78-.01-76.18-.01-.43,0-.84-.02-1.26-.12-.72-.18-1.23-.64-1.32-1.33-.13-1.09-.24-2.2,.2-3.29,2.54-6.36,5.05-12.73,7.58-19.09,.19-.48,.28-.95,.28-1.46,0-11.99,0-23.98,0-35.97,0-1.81,.68-2.5,2.49-2.5,20.13,0,40.26,0,60.38,0,1.85,0,2.53,.68,2.53,2.54,0,11.96,0,23.93,0,35.89,0,.54,.09,1.03,.29,1.54,2.32,5.82,4.62,11.65,6.94,17.47,.28,.69,.42,1.45,.92,2.04ZM57.1,20.65c-8.88,0-17.76,0-26.64-.01-.6,0-.74,.14-.74,.74,.02,10.16,.02,20.31,0,30.47,0,.65,.19,.77,.79,.77,17.65-.02,35.31-.02,52.96,0,.66,0,.83-.16,.82-.82-.02-10.1-.03-20.21,0-30.31,0-.74-.22-.85-.88-.84-8.77,.02-17.55,.01-26.32,.01Zm-7.94,52.97h15.71c-.51-1.61-1.02-3.16-1.51-4.72-.09-.29-.26-.39-.58-.39-3.85,.01-7.7,0-11.55,0-.26,0-.45,.04-.54,.32-.5,1.58-1.01,3.16-1.53,4.78Z"/></svg>
