<?xml version="1.0" encoding="UTF-8"?><svg id="Layer_1" xmlns="http://www.w3.org/2000/svg" viewBox="0 0 108.24 88.22"><defs><style>.cls-1{fill:#655aff;}</style></defs><path class="cls-1" d="M88.18,58.29c-.47-.2-.59-.43-.59-.89-.03-2-.05-4.01-.16-6.01-.08-1.57-1.18-2.67-2.76-2.93-1.33-.22-2.71,.6-3.31,1.96-.08,.17-.12,.38-.24,.51-1.55,1.6-3.3,2.92-5.32,3.91-.04-.12-.07-.16-.07-.21,0-4.39,0-8.77-.02-13.16,0-.51,.2-.55,.62-.55,2.27,.02,4.55,.01,6.82,0,3.24,0,5.38-2.15,5.38-5.39,0-5.06,0-10.13,0-15.19,0-4.83-3.32-8.15-8.14-8.15-8.1,0-16.19,0-24.29,0-4.39,0-8.77,0-13.16,0-.36,0-.7,.11-.73-.52-.16-2.65-2.29-4.7-4.94-4.72-5.52-.03-11.05-.04-16.57,0-2.77,.02-4.93,2.28-4.95,5.07-.01,3.09-.01,6.17,0,9.26,0,2.38,1.58,4.43,3.91,4.92,.71,.15,.8,.42,.8,1.04-.02,16.54-.01,33.09,0,49.63,0,.59-.03,1.19,.09,1.78,.55,2.7,3.01,4.74,6.04,4.72,10.53-.06,21.07-.02,31.6-.02,3.98,0,7.96,.03,11.94-.02,3.06-.04,5.52-2.55,5.59-5.61,.03-1.41,.03-2.82,0-4.22,0-.5,.04-.7,.61-.43,1.85,.86,3.54,1.95,5.08,3.3,.19,.17,.29,.34,.34,.61,.3,1.72,1.77,2.91,3.36,2.75,1.77-.17,2.98-1.52,2.96-3.35-.02-1.92-.08-3.84-.15-5.76-.01-.43,.04-.69,.52-.92,2.49-1.18,3.8-3.18,3.67-5.95-.12-2.62-1.51-4.45-3.92-5.46ZM27.29,12.45l5,3.04c.75,.45,.75,1.54,0,1.99l-5.18,3.12c-.79,.48-1.79-.11-1.76-1.03l.18-6.16c.03-.89,1-1.42,1.77-.96Zm30.83,68.51c-10.48-.03-20.95-.05-31.43,0-2.36,.01-3.85-1.72-3.84-3.82,.05-16.65,.03-33.3,.01-49.95,0-.68,.17-.85,.85-.84,1.87,.05,3.74,.03,5.6,0,.49,0,.87,.13,1.23,.47,1.16,1.09,2.36,2.15,3.53,3.24,.76,.7,1.62,.99,2.6,.59,.98-.4,1.41-1.21,1.45-2.24,0-.05,0-.11,0-.16-.16-1.23,.07-2.02,1.47-2.58,1.76-.71,2.63-2.35,2.66-4.3,.03-2.06,.02-4.11,0-6.17,0-.44,.1-.6,.57-.6,10.8,.01,21.6,.01,32.61,.01-1.84,1.99-2.14,4.29-2.13,6.73,.04,11.23,0,22.47,.03,33.7,0,.7-.22,.97-.87,1.16-2.02,.57-4.07,.87-6.15,.95-2.6,.11-5.2,.14-7.79,.18-2.38,.04-4.36,1.93-4.38,4.32-.02,1.95,.01,3.9,.17,5.84,.12,1.56,1.02,2.72,2.42,3.41,.42,.21,.58,.46,.65,.91,.44,2.77,.91,5.54,1.4,8.3,.11,.6,.09,.85-.65,.85Zm6.27-.01c-.4-.04-.81,0-1.22,0q-1.81,0-2.12-1.79c-.41-2.39-.81-4.78-1.23-7.17-.07-.4-.02-.6,.45-.6,.89,0,1.79,0,2.67-.08,.53-.05,.64,.21,.7,.62,.45,2.77,.89,5.54,1.38,8.3,.11,.61-.05,.79-.64,.74Zm8.92-5.81h-.01c0,.86,.03,1.73,0,2.59-.07,1.72-1.44,3.09-3.17,3.18-.73,.04-1.46,.01-2.19,.02-.26,0-.42-.01-.47-.37-.45-2.96-.92-5.91-1.42-8.86-.07-.4-.03-.52,.39-.53,2.17-.05,4.31,.17,6.42,.66,.35,.08,.46,.25,.45,.62-.03,.89,0,1.78,0,2.67Zm3.41-4.54c-2.44-1-4.97-1.6-7.6-1.72-.47-.02-.58-.17-.58-.61-.05-2.76-.1-5.52-.21-8.27-.03-.78,.49-.65,.89-.7,3.42-.42,6.61-1.49,9.53-3.33,.77-.49,1.5-1.04,2.39-1.66,.15,6.39,.31,12.65,.46,19.06-1.62-1.14-3.18-2.06-4.87-2.76Zm11.06-3.26v-6.54c2.18,1,2.84,4.63,0,6.54Z"/><path class="cls-1" d="M56.38,18.78c2.54,0,5.08,0,7.63,0,1.56,0,2.09,.54,2.09,2.1,0,2.22,0,4.44,0,6.65,0,1.37-.62,2-1.97,2-5.22,0-10.44,0-15.66,0-1.32,0-1.95-.62-1.96-1.92-.01-2.33-.01-4.65,0-6.98,0-1.24,.6-1.84,1.84-1.85,2.68-.02,5.36,0,8.03,0Z"/><path class="cls-1" d="M35.44,45.16c-1.43,0-2.87,.01-4.3,0-1.04-.01-1.69-.61-1.7-1.65-.03-2.81-.03-5.63,0-8.44,0-1.04,.64-1.64,1.7-1.65,2.89-.02,5.79-.02,8.68,0,1.05,0,1.69,.59,1.71,1.64,.04,2.81,.04,5.63,0,8.44-.01,1.08-.68,1.64-1.79,1.65-1.43,.01-2.87,0-4.3,0Z"/><path class="cls-1" d="M47.89,53.11c-6.01,0-12.02,0-18.03,0-.32,0-.65,.05-.95-.14-.46-.28-.69-.68-.62-1.22,.07-.58,.45-.91,1-1.03,.26-.06,.54-.03,.81-.03,11.91,0,23.83,0,35.74,0,.11,0,.22,0,.32,0,.93,.01,1.51,.48,1.51,1.22,0,.75-.55,1.21-1.5,1.21-6.09,0-12.18,0-18.28,0Z"/><path class="cls-1" d="M39.69,58.64c3.27,0,6.55,0,9.82,0,.98,0,1.49,.42,1.5,1.19,0,.78-.51,1.23-1.47,1.23-6.6,0-13.21,0-19.81,0-.94,0-1.48-.47-1.47-1.24,.01-.77,.53-1.18,1.52-1.18,3.3,0,6.6,0,9.91,0Z"/><path class="cls-1" d="M39.65,66.59c3.25,0,6.49,0,9.74,0,1.01,0,1.49,.39,1.5,1.17,0,.77-.52,1.24-1.47,1.24-6.55,0-13.09,0-19.64,0-.96,0-1.49-.45-1.5-1.21-.01-.78,.5-1.2,1.48-1.2,3.3,0,6.6,0,9.9,0Z"/><path class="cls-1" d="M56.72,41.52c2.92,0,5.84,0,8.76,0,.3,0,.6-.01,.89,.06,.56,.14,.87,.53,.89,1.11,.03,.54-.25,.93-.74,1.14-.19,.08-.42,.12-.63,.12-6.11,0-12.22,0-18.33,0-.65,0-1.18-.23-1.38-.9-.24-.81,.34-1.5,1.3-1.52,1.73-.02,3.46,0,5.19,0,1.35,0,2.7,0,4.06,0Z"/><path class="cls-1" d="M56.65,37.03c-3.03,0-6.06,0-9.09,0-.92,0-1.42-.41-1.42-1.17,0-.75,.5-1.24,1.39-1.24,6.11,0,12.22,0,18.33,0,.87,0,1.41,.51,1.4,1.24-.01,.73-.54,1.16-1.44,1.16-3.06,0-6.11,0-9.17,0Z"/><path class="cls-1" d="M34.37,76.91c-1.54,0-3.08,.01-4.62,0-.98,0-1.48-.45-1.47-1.23,.01-.75,.5-1.16,1.44-1.17,3.11,0,6.22-.01,9.33,0,.95,0,1.41,.41,1.42,1.18,0,.77-.46,1.2-1.39,1.21-1.57,.02-3.14,0-4.71,0Z"/></svg>
