<svg width="612" height="203" viewBox="0 0 612 203" fill="none" xmlns="http://www.w3.org/2000/svg">
<g clip-path="url(#clip0_2_1791)">
<path d="M160.347 71.266C162.941 69.5383 165.534 67.8106 168.127 66.083C170.288 68.2426 172.017 69.9702 173.746 72.1298C171.153 73.4255 168.559 75.1532 165.966 76.4489C164.237 75.1532 162.076 72.9936 160.347 71.266ZM149.542 62.6277C152.136 60.4681 154.729 58.7404 157.322 56.5809C159.483 58.3085 161.644 60.4681 163.805 62.1957C160.78 63.9234 158.186 65.6511 156.025 67.3787C153.864 65.6511 151.703 64.3553 149.542 62.6277ZM341.441 42.3277L341.008 41.8957C277.042 44.4872 216.534 64.3553 176.339 89.4064C174.61 86.8149 172.881 84.2234 170.72 81.6319C207.025 59.1723 257.593 40.6 300.814 34.9851L300.381 34.5532C254.136 39.3043 208.754 53.5574 176.771 70.834C175.475 68.6745 173.746 66.083 172.017 63.9234C200.11 47.9426 236.415 34.5532 270.992 28.5064L270.559 28.0745C230.364 34.1213 193.627 45.3511 168.559 59.6043C166.831 57.4447 164.669 55.717 162.508 53.5574C165.102 51.8298 167.695 50.534 170.72 48.8064C172.017 50.1021 173.314 51.3979 174.178 52.6936L175.475 51.3979C174.61 50.1021 173.746 48.8064 172.881 47.5106C193.627 37.1447 219.127 28.5064 239.441 24.6191L239.008 24.1872C218.695 27.6426 191.466 34.1213 170.72 44.0553C153.432 23.7553 118.856 9.93404 68.2881 0L67.8559 0.431915C113.669 10.7979 146.949 26.3468 167.695 45.783C164.669 47.5106 162.076 48.8064 159.051 50.534C134.847 30.666 92.0593 12.9574 35.4407 4.31915L35.0085 5.18298C84.7119 14.2532 126.203 31.9617 154.297 53.9894C151.703 56.1489 149.11 58.3085 146.949 60.4681C115.831 38.4404 66.5593 20.3 0.432203 11.6617H0C54.4576 20.3 111.508 39.7362 149.975 72.1298C144.788 76.4489 140.898 81.2 137.873 85.5191L139.602 87.2468C143.924 83.3596 148.678 79.0404 153.864 75.1532C156.025 76.8809 157.754 78.6085 159.915 80.7681C146.517 89.8383 137.008 99.7723 132.686 109.274L134.415 110.57C141.763 101.932 152.136 93.7255 164.237 85.5191C166.398 88.1106 168.559 90.2702 170.72 92.8617C145.653 109.274 129.229 127.415 125.771 143.828L127.5 145.123C137.873 127.415 154.729 111.866 175.042 98.4766C178.068 102.796 181.093 107.547 183.686 112.298L185.415 111.002C184.551 105.819 182.822 100.636 179.797 95.4532C230.797 63.4915 299.517 44.9192 341.441 42.3277Z" fill="#313235"/>
<path d="M304.271 159.809H314.212V201.704H304.271V159.809ZM304.271 142.1H314.644V152.034H304.271V142.1Z" fill="#313235"/>
<path d="M418.372 140.804H408.432V201.704H418.372V140.804Z" fill="#313235"/>
<path d="M429.609 140.804H434.796V166.719H456.838V140.804H462.025V201.704H456.838V171.47H434.796V201.704H429.609V140.804Z" fill="#313235"/>
<path d="M495.304 177.949C495.304 168.879 491.847 163.696 485.796 163.696C479.313 163.696 476.287 169.743 476.287 177.949H495.304ZM476.72 182.268C476.72 197.817 487.093 197.817 488.821 197.817C491.415 197.817 495.304 196.521 497.898 194.362L498.33 199.545C496.169 200.841 493.576 202.136 488.389 202.136C471.965 202.136 471.533 184.86 471.533 180.541C471.533 166.287 477.152 158.945 486.228 158.945C496.601 158.945 500.923 167.151 500.923 181.836C500.923 182.268 476.72 182.268 476.72 182.268Z" fill="#313235"/>
<path d="M551.491 140.804H546.736V201.704H551.491V140.804Z" fill="#313235"/>
<path d="M569.644 150.306V160.24H578.288V164.559H569.644V191.77C569.644 195.225 570.076 198.249 574.398 198.249C576.559 198.249 577.423 197.817 578.288 197.385V201.704C577.855 202.136 576.559 202.136 573.533 202.136C566.186 202.136 564.889 197.385 564.889 192.634V163.696H558.406V159.376H564.889V151.17L569.644 150.306Z" fill="#313235"/>
<path d="M214.804 181.404H210.915C206.16 181.404 200.109 182.7 200.109 189.179C200.109 193.066 202.703 195.657 206.593 195.657C211.779 195.657 214.804 191.338 214.804 185.723V181.404ZM194.923 162.4C197.948 161.104 201.838 159.376 207.457 159.376C219.991 159.376 224.313 165.423 224.313 175.357V194.793C224.313 197.817 224.745 200.408 224.745 202.136H215.669C215.237 200.408 215.237 198.681 215.237 197.385C213.94 198.681 210.482 203 203.567 203C196.22 203 191.033 198.681 191.033 190.906C191.033 179.676 200.974 176.653 211.347 176.653H215.237V174.493C215.237 170.174 213.076 166.719 207.457 166.719C202.27 166.719 197.948 169.311 195.787 170.606L194.923 162.4Z" fill="#313235"/>
<path d="M388.982 181.404H385.092C380.338 181.404 374.287 182.7 374.287 189.179C374.287 193.066 376.88 195.657 380.77 195.657C386.389 195.657 388.982 191.338 388.982 185.723V181.404ZM369.101 162.4C372.126 161.104 376.016 159.376 381.635 159.376C394.169 159.376 398.491 165.423 398.491 175.357V194.793C398.491 197.817 398.923 200.408 398.923 202.136H389.847C389.414 200.408 389.414 198.249 389.414 196.953C388.118 198.249 384.66 202.568 377.745 202.568C370.397 202.568 365.211 198.249 365.211 190.474C365.211 179.245 375.152 176.221 385.524 176.221H389.414V174.493C389.414 170.174 387.253 166.719 381.635 166.719C376.448 166.719 372.126 169.311 369.965 170.606L369.101 162.4Z" fill="#313235"/>
<path d="M233.823 166.719C233.823 164.128 233.823 161.536 233.391 159.809H242.467C242.467 162.4 242.899 163.264 242.899 165.424C243.764 163.696 245.492 158.945 253.704 158.945C254.136 158.945 255.001 158.945 255.433 159.377V168.879C255.001 168.879 254.136 168.447 252.408 168.447C248.086 168.447 243.764 171.038 243.764 178.813V201.704H233.823V166.719Z" fill="#313235"/>
<path d="M276.177 195.225C282.228 195.225 284.389 188.747 284.389 180.972C284.389 172.766 282.228 167.151 276.61 167.151C270.991 167.151 268.83 172.766 268.83 180.972C268.83 190.043 270.127 195.225 276.177 195.225ZM294.33 140.804V194.794C294.33 197.817 294.33 200.408 294.762 202.136H285.254C285.254 200.84 284.821 198.681 284.821 196.521H284.389C283.957 197.817 281.364 202.568 273.152 202.568C262.779 202.568 258.457 192.634 258.457 180.972C258.457 167.151 263.643 159.377 274.016 159.377C280.932 159.377 283.093 163.264 283.957 164.128V140.804H294.33Z" fill="#313235"/>
<path d="M184.984 200.841C184.119 201.273 180.662 203 172.882 203C155.594 203 146.518 190.475 146.518 173.63C146.518 157.217 155.594 144.26 172.45 144.26C179.797 144.26 183.687 145.987 184.984 146.419L184.551 155.921C183.687 155.49 180.662 152.898 173.746 152.898C165.102 152.898 157.755 158.945 157.755 173.63C157.755 188.315 165.102 194.362 173.746 194.362C178.933 194.362 181.958 193.066 184.551 191.338L184.984 200.841Z" fill="#313235"/>
<path d="M325.016 166.719C325.016 164.128 325.016 161.536 324.584 159.809H334.092C334.092 161.104 334.525 164.128 334.525 164.992C335.389 163.696 337.982 158.945 345.33 158.945C353.974 158.945 357.864 164.56 357.864 172.766V201.272H347.923V174.062C347.923 168.879 344.898 167.151 341.44 167.151C337.982 167.151 334.957 168.879 334.957 174.062V201.272H325.016V166.719Z" fill="#313235"/>
<path d="M584.772 140.804H589.959V163.696C591.255 162.4 593.848 159.377 599.899 159.377C607.679 159.377 612.001 165.855 612.001 171.47V201.704H606.814V172.766C606.814 167.151 603.357 163.264 598.17 163.264C592.984 163.264 589.526 166.719 589.526 172.766V201.704H584.34L584.772 140.804Z" fill="#313235"/>
<path d="M526.425 180.541C517.781 180.541 512.162 183.132 512.162 189.611C512.162 193.93 514.755 197.817 520.374 197.817C522.535 197.817 530.314 196.953 530.314 185.292V180.541H526.425ZM530.747 173.198C530.747 167.583 528.586 163.696 521.67 163.696C516.052 163.696 512.162 167.583 511.73 168.015L510.865 162.832C513.026 161.536 516.916 158.945 522.103 158.945C533.772 158.945 535.933 167.583 535.933 171.902V192.202C535.933 195.226 536.365 198.249 536.365 201.704H531.611L531.179 196.521C530.314 197.817 527.721 202.136 519.942 202.136C512.162 202.136 507.84 197.385 507.84 189.611C507.84 178.813 516.916 176.221 527.721 176.221H531.179L530.747 173.198Z" fill="#313235"/>
</g>
<defs>
<clipPath id="clip0_2_1791">
<rect width="612" height="203" fill="white"/>
</clipPath>
</defs>
</svg>
