<svg xmlns="http://www.w3.org/2000/svg" width="485" height="169" viewBox="0 0 485 169">
    <g fill="none" fill-rule="evenodd">
        <g>
            <g>
                <g>
                    <path fill="#A0C8EA" d="M89.465 0L59.218 18.394 27.357 0.424 2.29 14.967 61.275 48.547 114.495 15.076z" transform="translate(-105 -272) translate(105 272)"/>
                    <path fill="#3251A2" d="M0 20.43L0 51.347 30.243 68.168 30.243 101.753 56.331 115.873 56.331 51.875 0 20.152z" transform="translate(-105 -272) translate(105 272)"/>
                </g>
                <path fill="#000" d="M391.034 145.531c1.075 0 2.018.224 2.83.67.813.447 1.487 1.054 2.025 1.822.538.767.944 1.661 1.218 2.68.275 1.019.412 2.09.412 3.213 0 1.466-.166 2.749-.498 3.848-.332 1.1-.8 2.022-1.407 2.766-.606.745-1.332 1.3-2.178 1.667-.847.366-1.773.55-2.78.55-1.258 0-2.367-.316-3.328-.946-.96-.63-1.67-1.392-2.127-2.285V169h-2.54v-23.16h2.094l.446 2.68c.228-.32.532-.657.909-1.013.377-.355.812-.675 1.304-.962.491-.286 1.046-.526 1.664-.722.617-.194 1.27-.292 1.956-.292zm30.675.31v10.41c0 1.353.296 2.4.892 3.145.595.745 1.407 1.116 2.436 1.116.618 0 1.2-.09 1.75-.274.55-.183 1.052-.43 1.51-.738.458-.31.875-.671 1.253-1.083.377-.413.703-.836.977-1.271V145.84h2.54v16.596h-2.025l-.515-2.92c-.206.343-.486.71-.84 1.099-.355.39-.778.739-1.27 1.048-.492.31-1.052.567-1.681.773-.63.206-1.333.31-2.11.31-1.578 0-2.871-.516-3.878-1.547-1.007-1.031-1.51-2.68-1.51-4.948V145.84h2.47zm-78.815-.31c2.15 0 3.774.613 4.872 1.839 1.098 1.225 1.647 2.903 1.647 5.033 0 .55-.034 1.066-.103 1.547-.068.48-.16.928-.274 1.34h-11.22c.136 1.718.68 3.047 1.63 3.986.948.94 2.315 1.408 4.1 1.408.755 0 1.52-.08 2.299-.24.777-.16 1.475-.4 2.093-.722l.617 1.89c-.71.367-1.492.648-2.35.842-.858.194-1.813.292-2.866.292-1.35 0-2.521-.206-3.516-.618-.995-.413-1.819-.991-2.47-1.736-.653-.744-1.145-1.65-1.477-2.714-.331-1.065-.497-2.25-.497-3.556 0-1.214.149-2.348.447-3.402.296-1.054.748-1.964 1.355-2.732.605-.767 1.383-1.368 2.333-1.804.95-.434 2.075-.653 3.38-.653zm65.708 0c2.15 0 3.774.613 4.872 1.839 1.098 1.225 1.647 2.903 1.647 5.033 0 .55-.034 1.066-.103 1.547-.068.48-.16.928-.274 1.34h-11.22c.136 1.718.68 3.047 1.63 3.986.948.94 2.315 1.408 4.1 1.408.755 0 1.52-.08 2.299-.24.777-.16 1.475-.4 2.093-.722l.617 1.89c-.71.367-1.492.648-2.35.842-.858.194-1.813.292-2.866.292-1.35 0-2.521-.206-3.516-.618-.995-.413-1.819-.991-2.47-1.736-.653-.744-1.145-1.65-1.477-2.714-.331-1.065-.497-2.25-.497-3.556 0-1.214.149-2.348.447-3.402.296-1.054.748-1.964 1.355-2.732.605-.767 1.383-1.368 2.333-1.804.95-.434 2.075-.653 3.38-.653zm-36.715 0c2.15 0 3.74.54 4.77 1.616 1.03 1.076 1.544 2.542 1.544 4.398v10.892h-1.922l-.514-2.92c-.252.435-.544.847-.875 1.237-.332.389-.72.733-1.167 1.03-.446.298-.967.533-1.561.704-.596.172-1.304.258-2.127.258-.71 0-1.373-.109-1.991-.326-.618-.218-1.161-.533-1.63-.945-.469-.412-.835-.928-1.098-1.546-.263-.619-.394-1.329-.394-2.13 0-1.856.64-3.247 1.922-4.176 1.28-.927 3.064-1.392 5.352-1.392h3.569v-.72c0-1.398-.355-2.4-1.064-3.007-.71-.607-1.67-.911-2.882-.911-1.03 0-1.973.12-2.831.361-.858.24-1.642.533-2.35.876l-.584-1.82c.618-.367 1.436-.705 2.454-1.015 1.017-.309 2.144-.464 3.379-.464zm107.26 0c.962 0 1.876.092 2.746.275.869.184 1.635.436 2.299.756l-.583 1.959c-.618-.298-1.282-.533-1.99-.704-.71-.172-1.464-.258-2.265-.258-1.236 0-2.151.206-2.745.618-.595.413-.892.962-.892 1.65 0 .802.308 1.409.926 1.821.618.412 1.442.778 2.47 1.099 1.854.573 3.254 1.254 4.204 2.045.95.79 1.424 1.906 1.424 3.35 0 1.397-.504 2.514-1.51 3.35-1.006.837-2.585 1.254-4.735 1.254-1.052 0-2.036-.091-2.951-.275-.916-.182-1.681-.447-2.299-.79l.584-1.89c.594.275 1.292.504 2.093.687.8.184 1.624.275 2.47.275 1.395 0 2.39-.258 2.986-.773.594-.515.891-1.14.891-1.873 0-.916-.388-1.608-1.166-2.078-.778-.47-1.728-.865-2.848-1.186-.733-.206-1.401-.447-2.008-.721-.606-.275-1.132-.607-1.578-.997-.446-.389-.79-.847-1.03-1.374-.24-.527-.36-1.157-.36-1.89 0-1.397.532-2.468 1.596-3.213 1.064-.744 2.488-1.117 4.272-1.117zm-13.724 0c.938 0 1.796.098 2.574.293.777.194 1.498.453 2.161.773l-.583 1.924c-.595-.275-1.235-.498-1.921-.67-.687-.172-1.43-.258-2.23-.258-.94 0-1.757.16-2.454.481-.698.321-1.27.773-1.716 1.357-.446.585-.778 1.278-.995 2.08-.218.801-.326 1.672-.326 2.611 0 .94.108 1.81.326 2.611.217.803.554 1.494 1.012 2.08.457.583 1.041 1.042 1.75 1.373.709.332 1.556.499 2.54.499.708 0 1.423-.087 2.144-.258.72-.172 1.401-.418 2.042-.74l.583 1.89c-.709.367-1.458.654-2.248.86-.789.206-1.698.31-2.728.31-1.35 0-2.516-.219-3.499-.653-.984-.436-1.808-1.043-2.47-1.822-.664-.778-1.157-1.695-1.477-2.749-.32-1.053-.48-2.187-.48-3.4 0-1.215.16-2.349.48-3.403.32-1.054.813-1.964 1.476-2.732.663-.767 1.498-1.368 2.505-1.803 1.006-.435 2.184-.654 3.534-.654zm-24.019-4.432v4.741h5.113v2.062h-5.113v10c0 .916.138 1.609.412 2.078.274.47.846.705 1.716.705.525 0 1.012-.07 1.458-.207.446-.137.84-.297 1.184-.48l.583 1.82c-.458.298-.96.528-1.51.688-.55.16-1.247.24-2.093.24-1.441 0-2.505-.378-3.19-1.134-.687-.756-1.03-1.98-1.03-3.677v-10.033h-2.642v-2.062h2.642l.652-4.74h1.818zm-121.466-1.821v9.14c.229-.32.537-.653.927-.996.388-.344.835-.653 1.338-.928.502-.275 1.064-.504 1.682-.687.617-.184 1.269-.276 1.955-.276 1.761 0 3.14.574 4.135 1.718.994 1.146 1.492 2.738 1.492 4.777v10.41h-2.47v-10.41c0-1.306-.32-2.337-.961-3.093-.64-.756-1.51-1.134-2.607-1.134-1.168 0-2.226.281-3.175.842-.949.562-1.721 1.254-2.316 2.08v11.716H317.4v-23.16h2.54zm40.936 6.22c.686 0 1.212.085 1.578.255.365.17.583.28.652.328l-.72 2.509c-.48-.413-1.122-.619-1.922-.619-.939 0-1.78.264-2.522.79-.744.528-1.345 1.272-1.802 2.234v11.442H353.6V145.84h2.025l.514 2.955c.229-.393.498-.787.807-1.18.309-.394.657-.747 1.046-1.06.389-.312.818-.567 1.287-.763.468-.197 1-.296 1.596-.296zm92.3.342v16.597h-2.539V145.84h2.54zm-139.458-7.068v2.491l-7.153-.034v20.901h-2.64V141.23l-7.152.034v-2.49h16.945zm62.049 15.384h-3.603c-1.578 0-2.768.315-3.569.945-.8.63-1.2 1.529-1.2 2.697 0 .962.291 1.696.874 2.2.584.504 1.31.756 2.18.756.8 0 1.526-.15 2.178-.448.652-.297 1.212-.692 1.681-1.185.469-.492.83-1.042 1.081-1.65.252-.606.378-1.22.378-1.838v-1.477zm14.822-6.322c-1.051 0-2.053.28-3.002.842-.95.56-1.744 1.277-2.384 2.147v3.711c0 .848.13 1.632.394 2.354.263.721.623 1.351 1.08 1.89.458.538.996.956 1.614 1.254.617.298 1.28.446 1.99.446.618 0 1.212-.114 1.784-.343.571-.229 1.075-.601 1.51-1.117.434-.515.784-1.19 1.046-2.028.264-.835.395-1.86.395-3.074 0-2.062-.412-3.59-1.235-4.588-.824-.996-1.887-1.494-3.192-1.494zm-47.693-.344c-.87 0-1.613.15-2.23.447-.618.298-1.133.71-1.544 1.237-.412.527-.72 1.151-.927 1.873-.206.721-.332 1.506-.378 2.354h9.196c.023-.046.035-.207.035-.482v-.516c0-1.58-.321-2.794-.961-3.641-.64-.848-1.704-1.272-3.191-1.272zm65.708 0c-.87 0-1.613.15-2.23.447-.618.298-1.133.71-1.544 1.237-.412.527-.72 1.151-.927 1.873-.206.721-.332 1.506-.378 2.354h9.196c.023-.046.035-.207.035-.482v-.516c0-1.58-.321-2.794-.961-3.641-.64-.848-1.704-1.272-3.191-1.272zm43.302-8.556c.595 0 1.035.172 1.321.516.286.344.43.756.43 1.237 0 .48-.144.887-.43 1.22-.286.332-.726.498-1.32.498-.573 0-1.007-.166-1.304-.499-.298-.332-.447-.738-.447-1.22 0-.48.149-.892.447-1.236.297-.344.73-.516 1.303-.516zM319.99 67.736c2.731 0 5.106.585 7.126 1.752 2.018 1.169 3.697 2.722 5.035 4.658 1.336 1.937 2.331 4.174 2.987 6.707.653 2.537.98 5.171.98 7.906 0 3.589-.455 6.766-1.365 9.528-.91 2.764-2.147 5.084-3.712 6.965-1.565 1.88-3.37 3.32-5.418 4.316-2.049.996-4.211 1.495-6.487 1.495-3.186 0-5.704-.655-7.553-1.966-1.848-1.31-3.37-2.79-4.564-4.442v21.705h-10.924V68.762h9.729l1.195 5.384c.568-.74 1.292-1.48 2.175-2.223.883-.739 1.878-1.423 2.987-2.05 1.11-.626 2.318-1.139 3.627-1.538 1.308-.398 2.702-.599 4.182-.599zm148.317-10.767v11.793h11.69v7.69h-11.69v21.024c0 1.708.34 2.948 1.024 3.717.682.768 1.735 1.154 3.157 1.154 1.878 0 3.756-.655 5.633-1.966l2.219 7.948c-1.423.912-2.917 1.596-4.481 2.051-1.565.455-3.314.683-5.248.683-4.609 0-7.923-1.11-9.942-3.333-2.02-2.221-3.03-5.668-3.03-10.34V76.453h-6.315v-7.691h6.486l2.56-11.793h7.937zM103.67 51.414c3.129 0 6.002.314 8.62.94 2.616.628 5.148 1.596 7.595 2.906l-2.73 8.46c-4.041-2.164-8.25-3.247-12.631-3.247-5.747 0-10.07 1.824-12.972 5.469-2.901 3.646-4.352 8.745-4.352 15.297 0 6.552 1.464 11.65 4.395 15.296 2.93 3.647 7.24 5.47 12.929 5.47 1.706 0 3.74-.285 6.101-.855 2.36-.569 4.708-1.48 7.04-2.734l2.561 8.545c-2.276 1.311-4.822 2.322-7.638 3.034-2.816.712-5.79 1.068-8.918 1.068-4.437 0-8.378-.756-11.819-2.265-3.443-1.508-6.33-3.602-8.662-6.28-2.333-2.678-4.096-5.84-5.292-9.486-1.194-3.646-1.791-7.576-1.791-11.793 0-4.215.597-8.147 1.791-11.794 1.196-3.645 2.96-6.806 5.292-9.485 2.332-2.677 5.219-4.771 8.662-6.282 3.44-1.508 7.382-2.264 11.82-2.264zm89.008 16.322c2.786 0 5.262.442 7.425 1.325 2.161.884 3.996 2.109 5.504 3.675 1.506 1.567 2.645 3.433 3.414 5.597.767 2.166 1.151 4.502 1.151 7.008 0 1.311-.115 2.678-.341 4.101-.229 1.425-.512 2.65-.854 3.675h-25.516c.625 3.362 2.005 5.798 4.14 7.306 2.132 1.51 4.564 2.266 7.296 2.266 3.697 0 7.168-.855 10.41-2.564l2.39 7.605c-1.821 1.082-3.911 1.91-6.272 2.479-2.362.569-4.936.855-7.723.855-3.529 0-6.6-.514-9.216-1.539-2.618-1.025-4.809-2.492-6.572-4.402-1.764-1.907-3.072-4.2-3.926-6.878-.853-2.677-1.28-5.668-1.28-8.974 0-2.96.397-5.753 1.195-8.375.796-2.619 2.006-4.9 3.627-6.836 1.622-1.936 3.698-3.474 6.23-4.615 2.53-1.138 5.505-1.709 8.918-1.709zm43.607 0c2.22 0 4.437.271 6.657.812 2.218.542 4.295 1.382 6.229 2.521l-2.304 7.606c-1.423-.797-2.944-1.424-4.565-1.88-1.622-.456-3.372-.683-5.249-.683-3.925 0-6.742 1.182-8.448 3.546-1.707 2.364-2.561 5.597-2.561 9.699 0 4.102.867 7.35 2.603 9.742 1.736 2.393 4.366 3.59 7.894 3.59 3.982 0 7.623-.912 10.923-2.735l2.39 7.776c-1.935 1.14-4.11 1.981-6.529 2.521-2.419.54-4.793.813-7.126.813-3.47 0-6.527-.57-9.173-1.71-2.646-1.14-4.851-2.692-6.614-4.658-1.764-1.965-3.087-4.258-3.969-6.879-.882-2.62-1.323-5.44-1.323-8.46 0-2.961.428-5.769 1.28-8.418.854-2.648 2.162-4.942 3.927-6.879 1.763-1.936 3.968-3.474 6.614-4.615 2.645-1.138 5.76-1.709 9.344-1.709zm125.862 0c3.47 0 6.498.57 9.088 1.71 2.588 1.14 4.736 2.678 6.443 4.614 1.707 1.937 2.988 4.23 3.84 6.879.853 2.65 1.28 5.457 1.28 8.418 0 3.02-.427 5.84-1.28 8.46-.852 2.621-2.133 4.914-3.84 6.88-1.707 1.965-3.855 3.518-6.443 4.657-2.59 1.14-5.619 1.709-9.088 1.709-3.472 0-6.502-.57-9.09-1.71-2.589-1.138-4.736-2.69-6.442-4.657-1.707-1.965-2.987-4.258-3.84-6.879-.854-2.62-1.28-5.44-1.28-8.46 0-2.961.426-5.769 1.28-8.418.853-2.648 2.133-4.942 3.84-6.879 1.706-1.936 3.853-3.474 6.443-4.615 2.587-1.138 5.617-1.709 9.089-1.709zM139.343 52.44v21.707c.625-.684 1.408-1.41 2.346-2.18.94-.769 1.991-1.466 3.158-2.093 1.165-.627 2.474-1.139 3.926-1.538 1.45-.398 3-.6 4.65-.6 3.811 0 6.941 1.426 9.388 4.274 2.446 2.85 3.67 6.866 3.67 12.05v25.979h-10.924V84.4c0-2.62-.484-4.6-1.451-5.94-.968-1.337-2.531-2.008-4.693-2.008-1.993 0-3.884.57-5.675 1.71-1.792 1.14-3.258 2.392-4.395 3.759v28.116h-10.924V52.439h10.924zm153.254 16.323L275.871 87.22l17.153 22.817h-11.776c-2.106-2.792-4.097-5.44-5.975-7.948-1.65-2.164-3.285-4.344-4.906-6.537-1.622-2.193-2.888-3.945-3.798-5.256v-6.153l13.825-15.382h12.203zm-26.187-16.75v58.026h-10.924V52.012h10.924zm134.396 16.75v41.276h-10.924V68.762h10.924zm34.305-1.026c4.04 0 7.267 1.425 9.685 4.273 2.418 2.85 3.628 6.866 3.628 12.05v25.979H437.5V84.4c0-2.62-.456-4.6-1.365-5.94-.91-1.337-2.447-2.008-4.609-2.008-1.992 0-3.883.57-5.675 1.71-1.792 1.14-3.258 2.392-4.395 3.759v28.116h-10.923V68.762h9.728l1.195 5.384c.626-.684 1.408-1.41 2.347-2.18.94-.769 1.976-1.466 3.115-2.093 1.138-.627 2.403-1.139 3.798-1.538 1.393-.398 2.859-.6 4.395-.6zm-72.963 8.376c-3.301 0-5.748 1.182-7.34 3.546-1.594 2.364-2.39 5.597-2.39 9.699 0 4.102.796 7.35 2.39 9.741 1.592 2.394 4.039 3.59 7.34 3.59 3.298 0 5.745-1.196 7.338-3.59 1.593-2.392 2.39-5.64 2.39-9.741 0-4.102-.797-7.335-2.39-9.699s-4.04-3.546-7.338-3.546zm-45.571.34c-2.105 0-3.926.543-5.462 1.624-1.536 1.084-2.901 2.365-4.096 3.846v8.716c0 3.59.823 6.44 2.474 8.546 1.65 2.11 3.783 3.163 6.4 3.163 1.252 0 2.446-.242 3.585-.727 1.138-.483 2.133-1.253 2.987-2.308.853-1.053 1.521-2.448 2.005-4.187.483-1.737.726-3.859.726-6.366 0-3.874-.798-6.893-2.39-9.058-1.594-2.165-3.67-3.248-6.23-3.248zm-123.813-.768c-2.73 0-4.936.983-6.613 2.949-1.68 1.964-2.66 4.657-2.945 8.075h16.727v-1.11c0-3.249-.598-5.711-1.793-7.393-1.195-1.68-2.987-2.52-5.376-2.52zm202.58-24.27c2.103 0 3.725.613 4.863 1.837 1.138 1.226 1.708 2.664 1.708 4.317 0 1.652-.57 3.09-1.708 4.315-1.138 1.225-2.76 1.837-4.864 1.837-2.105 0-3.727-.612-4.864-1.837-1.139-1.225-1.707-2.663-1.707-4.315 0-1.653.568-3.09 1.707-4.317 1.137-1.224 2.759-1.837 4.864-1.837z" transform="translate(-105 -272) translate(105 272)"/>
            </g>
        </g>
    </g>
</svg>