<?xml version="1.0" encoding="UTF-8"?><svg id="Layer_1" xmlns="http://www.w3.org/2000/svg" viewBox="0 0 108.24 88.22"><defs><style>.cls-1{fill:#655aff;}</style></defs><path class="cls-1" d="M72.75,2.58c1.23,.33,2.48,.51,3.69,.96,5.32,1.99,9.11,7.22,9.48,12.87,.46,7.13-4.28,13.47-10.88,15.25-1.37,.37-1.35,.39-1.37,1.8-.03,1.7,.15,3.41-.1,5.1-.27,1.83-2.19,2.74-3.72,1.66-1.57-1.1-2.99-2.39-4.47-3.61-1.58-1.31-3.16-2.62-4.72-3.95-.4-.34-.8-.46-1.31-.46-4.65,.01-9.3-.02-13.95,.02-3.79,.04-7.23-.89-10.27-3.23-6.54-5.04-7.52-15.07-2.05-21.25,2.47-2.79,5.52-4.52,9.23-5.02,.09-.01,.18-.09,.27-.14,10.06,0,20.11,0,30.17,0Z"/><path class="cls-1" d="M68.54,65.17c-2.28-2.41-3.33-5.2-3.24-8.44,.14-5.21,4.49-9.85,9.66-10.55,5.57-.76,11.21,2.86,12.46,8.63,.79,3.65-.01,6.96-2.47,9.8-.42,.49-.42,.63,.18,.93,3.7,1.83,6.66,4.49,8.56,8.19,2.72,5.31-1.25,11.84-7.23,11.88-6.59,.04-13.19,.04-19.78,0-3.18-.02-5.61-1.5-7.15-4.24-1.58-2.81-1.47-5.68,.21-8.44,1.99-3.27,4.73-5.72,8.15-7.41,.19-.09,.37-.2,.65-.34Z"/><path class="cls-1" d="M28.32,85.62c-2.51,0-5.02,.01-7.54,0-2.74-.02-4.84-1.24-6.17-3.61-1.35-2.4-1.23-4.84,.22-7.2,1.44-2.35,3.4-4.17,5.81-5.5,.51-.28,.55-.47,.21-.93-4.09-5.59-.89-13.61,6.37-14.68,4.87-.71,9.86,3.17,10.32,8.08,.23,2.45-.24,4.72-1.75,6.7-.36,.48-.14,.6,.24,.81,2.38,1.32,4.32,3.11,5.77,5.42,1.48,2.37,1.65,4.82,.28,7.27-1.34,2.41-3.46,3.62-6.23,3.63-2.51,0-5.02,0-7.54,0Z"/><path class="cls-1" d="M57.29,37.13c-2,3.52-4.8,5.62-8.72,5.99-3.69,.34-7.4,.08-11.1,.13-.5,0-.86,.14-1.23,.46-1.81,1.54-3.64,3.06-5.47,4.58-.78,.65-1.64,1.03-2.68,.67-1.03-.35-1.67-1.29-1.7-2.5-.02-.95-.04-1.89,0-2.84,.02-.53-.16-.73-.67-.89-3.25-1.01-5.54-3.11-6.94-6.2-2.04-4.5-.41-10.4,3.67-13.2,.64-.44,1.31-.83,2.03-1.16,.48-.22,.63-.23,.79,.35,1.08,3.93,3.16,7.24,6.27,9.88,3.7,3.14,8.01,4.69,12.85,4.72,4.24,.03,8.48,0,12.89,0Z"/></svg>
