<svg width="344" height="72" viewBox="0 0 344 72" fill="none" xmlns="http://www.w3.org/2000/svg">
<g clip-path="url(#clip0_2_1487)">
<path d="M23.8359 23.8047H58.8359V58.8047H23.8359V23.8047Z" fill="white"/>
<path d="M0.535156 0.504791V70.4048H70.4352V58.7048H12.1352V12.1048H70.4352V0.404785L0.535156 0.504791Z" fill="#313235"/>
<path d="M12.1348 12.2046V58.8046H23.7348V23.8046H58.7348V58.8046H70.4348V12.2046H12.1348Z" fill="#62646A"/>
<path d="M47.1355 47.1048H35.4355V35.4048H47.1355V47.1048Z" fill="#313235"/>
<path d="M95.8359 70.7049C91.3359 70.7049 88.3359 67.8049 88.3359 63.3049C88.3359 58.5049 91.8359 55.5049 96.2359 55.5049C97.8359 55.5049 99.3359 55.8049 100.336 56.4049V59.4049C99.2359 58.6049 97.9359 58.2049 96.6359 58.2049C93.7359 58.2049 92.0359 60.4049 92.0359 63.0049C92.0359 65.7049 93.7359 67.7049 96.4359 67.7049C97.9359 67.7049 99.1359 67.2049 100.036 66.6049L101.036 69.0049C99.5359 70.2049 97.6359 70.7049 95.8359 70.7049Z" fill="#313235"/>
<path d="M114.136 70.4047L108.836 63.4047C107.936 62.3047 107.236 61.4047 106.836 60.8047C106.936 61.5047 106.936 62.4047 106.936 63.3047V70.5047H103.336V55.9047H106.836L111.736 62.3047C112.836 63.7047 113.536 64.6047 113.836 65.2047C113.836 64.5047 113.736 63.6047 113.736 62.5047V55.8047H117.336V70.4047H114.136Z" fill="#313235"/>
<path d="M127.734 58.405C125.334 58.405 123.934 60.205 123.934 63.205C123.934 66.105 125.434 68.005 127.734 68.005C130.134 68.005 131.534 66.205 131.534 63.205C131.534 60.205 130.134 58.405 127.734 58.405ZM132.934 68.905C131.634 70.005 129.834 70.705 127.734 70.705C125.734 70.705 123.934 70.105 122.734 69.005C121.134 67.705 120.234 65.605 120.234 63.105C120.234 60.705 121.134 58.705 122.634 57.405C123.934 56.205 125.734 55.605 127.834 55.605C130.034 55.605 131.834 56.305 133.134 57.605C134.534 58.905 135.334 60.905 135.334 63.205C135.334 65.605 134.434 67.605 132.934 68.905Z" fill="#313235"/>
<path d="M154.036 58.6048H148.836V61.9048H153.936V64.6048H148.836V70.5048H145.336V55.9048H154.936L154.036 58.6048Z" fill="#313235"/>
<path d="M157.234 55.8047H160.834V70.4047H157.234V55.8047Z" fill="#313235"/>
<path d="M175.136 70.4047L169.836 63.4047C168.936 62.3047 168.236 61.4047 167.836 60.8047C167.936 61.5047 167.936 62.4047 167.936 63.3047V70.5047H164.336V55.9047H167.836L172.736 62.3047C173.836 63.7047 174.536 64.6047 174.836 65.2047C174.836 64.5047 174.736 63.6047 174.736 62.5047V55.8047H178.336V70.4047H175.136Z" fill="#313235"/>
<path d="M188.436 62.2046C188.236 61.5046 187.936 60.9046 187.836 60.3046C187.636 60.9046 187.436 61.5046 187.236 62.2046L186.336 64.7046H189.436L188.436 62.2046ZM191.536 70.4046L190.236 67.3046H185.236L184.036 70.4046H180.336L186.536 55.7046H189.136L195.336 70.4046H191.536Z" fill="#313235"/>
<path d="M208.136 70.4047L202.836 63.4047C201.936 62.3047 201.236 61.4047 200.836 60.8047C200.936 61.5047 200.936 62.4047 200.936 63.3047V70.5047H197.336V55.9047H200.836L205.736 62.3047C206.836 63.7047 207.536 64.6047 207.836 65.2047C207.836 64.5047 207.736 63.6047 207.736 62.5047V55.8047H211.336V70.4047H208.136Z" fill="#313235"/>
<path d="M221.635 70.7049C217.135 70.7049 214.135 67.8049 214.135 63.3049C214.135 58.5049 217.635 55.5049 222.035 55.5049C223.635 55.5049 225.135 55.8049 226.135 56.4049V59.4049C225.035 58.6049 223.735 58.2049 222.435 58.2049C219.535 58.2049 217.835 60.4049 217.835 63.0049C217.835 65.7049 219.535 67.7049 222.235 67.7049C223.735 67.7049 224.935 67.2049 225.835 66.6049L226.835 69.0049C225.335 70.2049 223.435 70.7049 221.635 70.7049Z" fill="#313235"/>
<path d="M229.234 55.8047H232.834V70.4047H229.234V55.8047Z" fill="#313235"/>
<path d="M242.834 62.2046C242.634 61.5046 242.334 60.9046 242.234 60.3046C242.034 60.9046 241.834 61.5046 241.634 62.2046L240.734 64.7046H243.834L242.834 62.2046ZM245.934 70.4046L244.634 67.3046H239.634L238.434 70.4046H234.734L240.934 55.7046H243.534L249.734 70.4046H245.934Z" fill="#313235"/>
<path d="M251.635 70.4047V55.8047H255.235V67.6047H260.735V70.4047H251.635Z" fill="#313235"/>
<path d="M276.535 70.7049C272.035 70.7049 269.035 67.9049 269.035 63.3049C269.035 58.6049 272.535 55.5049 277.235 55.5049C279.135 55.5049 280.435 55.8049 281.735 56.3049L281.635 59.4049C280.335 58.6049 278.835 58.3049 277.535 58.3049C274.035 58.3049 272.535 60.7049 272.535 63.1049C272.535 65.9049 274.335 67.9049 277.035 67.9049C277.635 67.9049 278.235 67.8049 278.735 67.7049V62.9049H282.235V69.3049C280.835 70.2049 278.635 70.7049 276.535 70.7049Z" fill="#313235"/>
<path d="M289.235 58.6047V62.5047H290.835C292.035 62.5047 292.835 61.7047 292.835 60.5047C292.835 59.5047 292.235 58.5047 290.735 58.5047H289.235V58.6047ZM294.135 70.4047C292.235 67.2047 291.035 65.3047 290.535 65.1047H289.235V70.4047H285.635V55.8047H290.935C295.035 55.8047 296.335 57.9047 296.335 60.0047C296.335 61.7047 295.335 63.2047 293.535 63.8047C294.035 64.1047 296.035 67.2047 298.035 70.4047H294.135Z" fill="#313235"/>
<path d="M306.434 58.405C304.034 58.405 302.634 60.205 302.634 63.205C302.634 66.105 304.134 68.005 306.434 68.005C308.834 68.005 310.234 66.205 310.234 63.205C310.234 60.205 308.734 58.405 306.434 58.405ZM311.534 68.905C310.234 70.005 308.434 70.705 306.334 70.705C304.334 70.705 302.534 70.105 301.234 69.005C299.634 67.705 298.734 65.605 298.734 63.105C298.734 60.705 299.634 58.705 301.134 57.405C302.434 56.205 304.234 55.605 306.334 55.605C308.534 55.605 310.334 56.305 311.634 57.605C313.034 58.905 313.834 60.905 313.834 63.205C313.934 65.605 313.134 67.605 311.534 68.905Z" fill="#313235"/>
<path d="M328.136 69.1048C326.936 70.2048 325.236 70.8048 322.936 70.8048C320.936 70.8048 319.136 70.4048 318.036 69.4048C317.036 68.5048 316.436 67.1048 316.436 65.3048V55.9048H320.036V65.2048C320.036 66.1048 320.336 66.8048 320.736 67.2048C321.236 67.7048 322.036 67.9048 322.936 67.9048C324.036 67.9048 324.836 67.7048 325.436 67.1048C325.936 66.7048 326.036 66.0048 326.036 65.2048V55.9048H329.636V64.9048C329.636 66.8048 329.136 68.1048 328.136 69.1048Z" fill="#313235"/>
<path d="M337.735 58.6047H336.635V63.0047H337.735C339.235 63.0047 339.935 62.0047 339.935 60.8047C339.935 59.6047 339.335 58.6047 337.735 58.6047ZM337.635 65.6047H336.635V70.4047H333.035V55.8047H337.935C341.435 55.8047 343.435 57.6047 343.435 60.8047C343.435 62.6047 342.135 65.6047 337.635 65.6047Z" fill="#313235"/>
</g>
<defs>
<clipPath id="clip0_2_1487">
<rect width="343.9" height="71.2" fill="white"/>
</clipPath>
</defs>
</svg>
