<?xml version="1.0" encoding="UTF-8"?><svg id="Layer_1" xmlns="http://www.w3.org/2000/svg" viewBox="0 0 108.24 88.22"><defs><style>.cls-1{fill:#655aff;}</style></defs><path class="cls-1" d="M83.02,78.41c-.86-5.66-1.64-11.33-2.47-17-1.3-8.82-5.95-15.22-14.04-18.98-6.45-3-13.3-2.66-20.01-1.54-9.35,1.56-17.07,9.75-18.58,19.13-.93,5.81-1.66,11.65-2.61,17.45-.39,2.39,.06,4.23,2.21,5.56,1.82,1.12,3.74,1.96,5.77,2.59,6.79,2.1,13.8,2.46,20.88,2.6,6.44-.12,12.9-.43,19.21-2.13,2.92-.79,5.77-1.76,8.17-3.7,1.27-1.02,1.71-2.34,1.46-3.98Zm-17.72-13.9c-2.1,1.16-4.21,2.32-6.32,3.45-.45,.24-.77,.55-1.02,1.01-1.11,2.07-2.25,4.14-3.38,6.2-.13,.24-.28,.48-.46,.8-1.33-2.44-2.61-4.77-3.87-7.1-.2-.37-.45-.62-.82-.82-2.34-1.26-4.67-2.54-7.01-3.83,.1-.26,.34-.3,.53-.4,2.1-1.16,4.2-2.33,6.32-3.45,.5-.27,.84-.62,1.1-1.11,1.23-2.28,2.47-4.55,3.76-6.9,.37,.67,.71,1.28,1.04,1.89,.94,1.72,1.88,3.43,2.81,5.16,.22,.41,.52,.7,.92,.91,2.32,1.25,4.62,2.52,6.95,3.79-.13,.26-.37,.31-.56,.41Z"/><path class="cls-1" d="M54.11,37.83c-10.47,0-18.88-8.46-18.88-18.97C35.24,8.47,43.72,0,54.12,0c10.44,0,18.88,8.49,18.87,18.99,0,10.41-8.47,18.85-18.89,18.84Z"/><path class="cls-1" d="M108.14,62.98c-.41-2.11-.76-4.24-1.17-6.35-2.65-13.5-18.58-20.62-30.42-13.56,.06,.13,.07,.18,.09,.2,.19,.2,.38,.4,.58,.59,3.27,3.25,5.67,7.01,7.03,11.29,.22-.12,.44-.23,.66-.34,.64-.33,1.1-.76,1.43-1.42,.57-1.14,1.22-2.25,1.91-3.5,.45,.82,.94,1.53,1.25,2.31,.64,1.55,1.71,2.61,3.26,3.25,.77,.32,1.48,.8,2.3,1.26-1.35,.74-2.59,1.43-3.85,2.1-.38,.2-.65,.47-.85,.84-.67,1.26-1.37,2.51-2.11,3.86-.74-1.36-1.43-2.58-2.09-3.83-.21-.4-.5-.69-.9-.9-.05-.03-.1-.05-.14-.08,.85,4.45,1.4,8.96,2.01,13.45,.12,.88,.45,.98,1.18,.95,3.18-.16,6.35-.39,9.44-1.19,3.29-.85,6.41-2.05,8.94-4.46,1.31-1.24,1.81-2.69,1.46-4.47Z"/><path class="cls-1" d="M21.4,37.83c-6.95,0-13.08-5.43-13.79-12.05-.9-8.37,5-14.42,11.33-15.46,3.56-.58,6.84,.07,9.91,1.94,.61,.37,.86,.75,.7,1.5-1.31,6.2-.37,12.07,2.73,17.58,.31,.55,.26,.87-.12,1.32-2.8,3.38-6.39,5.08-10.76,5.16Z"/><path class="cls-1" d="M100.71,23.49c-.13,6.55-3.74,11.61-9.29,13.54-5.52,1.93-11.47,.27-15.22-4.19-.51-.61-.53-1.03-.15-1.72,2.99-5.42,3.89-11.18,2.64-17.25-.14-.67-.11-1.16,.57-1.56,4.65-2.77,9.42-3.09,14.19-.5,4.78,2.6,7.07,6.81,7.25,11.67Z"/><path class="cls-1" d="M31.05,42.67c-3.02-1.54-6.2-2.37-11.24-2.34-6.75,0-14.18,4.97-17.43,12.74-1.21,2.89-1.34,6.03-2.13,9-.81,3.05,.42,4.99,2.77,6.59,5.27,3.58,11.29,4.18,17.4,4.44,.47,.02,.59-.21,.65-.63,.46-3.3,1.03-6.59,1.39-9.9,.18-1.66,.46-3.26,.84-4.82-.67,.37-1.33,.73-1.99,1.08-.38,.2-.66,.47-.86,.85-.68,1.27-1.38,2.54-2.13,3.9-.75-1.37-1.44-2.61-2.11-3.86-.22-.41-.5-.69-.91-.91-1.26-.67-2.5-1.36-3.84-2.1,1.2-.66,2.33-1.32,3.49-1.91,.65-.33,1.11-.77,1.44-1.43,.58-1.15,1.23-2.27,1.93-3.54,.46,.83,.94,1.55,1.27,2.33,.65,1.57,1.72,2.63,3.29,3.28,.32,.13,.62,.29,.93,.46,1.39-4.58,3.77-8.69,7.42-12.22,.55-.53,.45-.71-.17-1.02Z"/></svg>
