<svg width="216" height="25" viewBox="0 0 216 25" fill="none" xmlns="http://www.w3.org/2000/svg">
<g clip-path="url(#clip0_2_1882)">
<path d="M16.3 7.39961C19.3 7.39961 20.6 7.59961 21 7.79961C21.1 7.69961 21.4 7.39961 21.4 6.79961C21.4 5.39961 19.8 4.09961 16.2 4.09961C11 4.09961 5.7 5.79961 1.6 5.89961C1.3 6.99961 1.7 8.29961 3.9 8.29961C4.7 8.29961 5.7 8.19961 6.7 8.09961C1.5 15.8996 0 19.1996 0 21.6996C0 23.1996 1.9 23.0996 2.3 22.0996C3.2 19.7996 4.6 17.4996 6 15.3996C9 15.3996 12.8 15.0996 14.8 14.7996C16.8 14.5996 17.3 13.8996 17.5 13.2996C17.7 12.0996 16.9 11.7996 15.6 11.7996C14 11.7996 10.7 12.0996 8.2 12.3996C9.6 10.4996 10.8 8.79961 11.3 7.59961C12.9 7.59961 14.6 7.39961 16.3 7.39961Z" fill="#313235"/>
<path d="M30 1.3996C29.2 0.899597 28.3 1.0996 27.8 1.6996C20.7 10.7996 18 16.5996 18 19.6996C18 21.5996 19 22.3996 20.4 22.3996C22.2 22.3996 24.1 21.1996 28.2 17.1996C27.4 19.5996 27.9 22.4996 31.1 22.4996C33.9 22.4996 37.9 18.1996 39 14.8996C40.6 14.3996 42.6 13.4996 44.9 12.3996C43.6 14.8996 41.8 18.4996 40.8 20.0996C40.2 21.0996 40.9 22.4996 42.1 22.4996C42.8 22.4996 43.1 22.1996 43.5 21.6996C46 18.0996 48 15.9996 51.7 13.4996C51.3 14.3996 51.4 15.6996 52.3 15.9996C53.1 16.2996 54 15.8996 54.3 15.1996L56 10.6996C56.3 9.9996 55.9 9.2996 55.5 8.9996C55 8.5996 54.3 8.4996 53.7 8.8996C52.1 9.7996 48.7 13.1996 46.4 15.3996L49.1 10.8996C49.4 10.2996 49.3 9.3996 48.8 8.9996C48.2 8.4996 47.5 8.4996 46.9 8.7996C44.2 10.5996 41.8 11.8996 39.1 12.7996C38.9 12.1996 38.4 11.6996 37.5 11.6996C35.9 11.6996 34.5 12.8996 34.5 13.9996C34.5 14.9996 35.5 15.2996 36.5 15.1996C35.3 17.5996 33 19.7996 31.7 19.7996C31.2 19.7996 31 19.4996 31 18.7996C31 14.2996 34.9 10.3996 37.8 11.0996C38.8 11.1996 38.8 10.6996 38.8 10.3996C38.8 9.7996 37.9 8.5996 36.2 8.5996C34.3 8.5996 32.5 9.4996 30.2 12.2996C24.3 18.4996 21.7 19.5996 21.3 19.5996C21.1 19.5996 21 19.4996 21 19.2996C21 17.2996 23.6 12.4996 30.2 3.4996C30.9 2.8996 30.7 1.8996 30 1.3996Z" fill="#313235"/>
<path d="M65.5008 3.89941C64.2008 3.89941 62.8008 5.39941 62.8008 6.99941C62.8008 7.59941 63.1008 7.89941 64.0008 7.89941C65.3008 7.89941 67.0008 6.59941 67.0008 5.09941C66.9008 4.29941 66.4008 3.89941 65.5008 3.89941Z" fill="#313235"/>
<path d="M99.1008 16.0995C95.6008 19.2995 93.9008 19.7995 92.8008 19.7995C92.5008 19.7995 92.4008 19.6995 92.4008 19.3995C92.4008 18.3995 93.0008 16.9995 94.3008 15.0995C94.8008 14.2995 94.8008 13.2995 94.0008 12.7995C93.1008 12.1995 92.1008 12.5995 91.5008 13.3995C88.0008 18.0995 85.5008 19.7995 84.4008 19.7995C84.2008 19.7995 84.0008 19.5995 84.0008 19.2995C84.0008 16.3995 90.1008 10.9995 94.3008 11.6995C94.9008 11.7995 95.2008 11.4995 95.2008 11.0995C95.2008 10.4995 94.0008 9.09952 91.8008 9.09952C89.3008 9.09952 86.4008 10.6995 84.2008 12.8995C78.5008 18.8995 76.1008 19.6995 75.7008 19.6995C75.5008 19.6995 75.4008 19.5995 75.4008 19.3995C75.4008 17.3995 77.8008 13.6995 85.2008 3.79952C85.8008 3.09952 85.5008 2.09952 84.7008 1.59952C84.0008 1.09952 83.1008 1.29952 82.6008 1.99952L76.6008 9.99952C76.0008 9.69952 75.3008 9.39952 74.0008 9.39952C71.6008 9.39952 69.1008 10.8995 67.1008 12.8995C61.0008 18.8995 58.3008 19.6995 57.9008 19.6995C57.7008 19.6995 57.6008 19.5995 57.6008 19.3995C57.6008 18.1995 59.2008 15.5995 62.6008 11.0995C63.1008 10.3995 62.9008 9.29952 62.2008 8.89952C61.3008 8.29952 60.4008 8.59952 59.9008 9.19952C55.8008 14.2995 54.3008 17.7995 54.3008 19.6995C54.3008 21.5995 55.2008 22.3995 56.7008 22.3995C58.2008 22.3995 60.2008 21.2995 63.6008 18.3995C63.1008 20.3995 63.5008 22.6995 65.9008 22.6995C67.6008 22.6995 69.6008 21.4995 72.2008 19.1995C71.9008 21.1995 72.7008 22.3995 74.5008 22.3995C75.8008 22.3995 77.5008 21.5995 80.6008 18.6995C80.3008 20.5995 80.6008 22.6995 83.0008 22.6995C84.6008 22.6995 86.6008 21.5995 89.1008 19.1995C88.9008 21.0995 89.8008 22.3995 91.7008 22.3995C94.1008 22.3995 96.2008 20.9995 97.8008 19.4995C99.4008 18.1995 100.201 16.4995 99.1008 16.0995ZM67.2008 19.7995C67.0008 19.7995 66.9008 19.5995 66.9008 19.2995C66.9008 16.8995 71.9008 11.5995 75.5008 11.7995C71.7008 17.6995 68.5008 19.7995 67.2008 19.7995Z" fill="#313235"/>
<path d="M126.399 7.39973C126.399 5.39973 123.599 4.09973 120.199 4.19973C115.599 4.29973 110.899 5.49973 109.499 5.89973C108.899 6.09973 108.599 6.49973 108.699 6.99973C108.799 7.59973 109.299 7.79973 109.699 7.79973C110.299 7.79973 111.599 7.19973 114.299 6.79973C112.799 9.29973 108.399 16.1997 106.199 19.5997H105.599C104.799 19.5997 104.199 20.1997 104.199 21.0997C104.199 22.1997 105.299 22.4997 107.199 22.4997C117.999 22.4997 122.399 20.1997 122.399 16.6997C122.399 14.0997 118.899 12.6997 118.899 12.1997C118.999 11.4997 126.399 10.4997 126.399 7.39973ZM119.299 17.5997C119.299 20.1997 112.799 20.1997 109.799 19.8997C112.199 16.0997 116.999 8.59973 118.299 6.49973H119.599C120.999 6.49973 122.799 6.89973 122.799 7.79973C122.799 10.0997 115.399 10.4997 115.399 12.8997C115.599 14.7997 119.299 16.2997 119.299 17.5997Z" fill="#313235"/>
<path d="M135.899 1.39983C135.099 0.799828 134.199 1.09983 133.599 1.79983C126.399 10.9998 123.699 16.7998 123.699 19.9998C123.699 21.7998 124.599 22.6998 126.099 22.6998C128.099 22.6998 129.099 21.2998 133.399 17.1998C132.399 19.7998 132.399 22.6998 135.399 22.6998C137.199 22.6998 139.499 21.1998 142.399 18.1998C141.799 20.4998 142.699 22.9998 145.099 22.9998C145.899 22.9998 146.299 22.6998 146.299 22.3998C146.299 22.1998 145.499 21.3998 145.499 19.3998C145.499 16.7998 147.099 14.3998 149.399 11.4998C149.899 10.7998 149.799 9.89983 149.199 9.29983C148.599 8.79983 147.499 8.79983 146.899 9.49983C141.199 16.3998 138.299 19.7998 136.699 19.7998C136.399 19.7998 136.399 19.5998 136.399 19.2998C136.399 18.1998 137.899 14.9998 140.699 11.3998C141.199 10.6998 141.099 9.79983 140.499 9.29983C139.799 8.69983 138.799 8.69983 138.199 9.29983C135.699 12.0998 134.299 13.6998 133.199 14.7998C128.199 19.6998 127.699 19.9998 127.299 19.9998C127.099 19.9998 126.999 19.8998 126.999 19.6998C126.999 17.6998 129.399 12.8998 136.299 3.59983C136.799 2.89983 136.599 1.89983 135.899 1.39983Z" fill="#313235"/>
<path d="M152.6 20.0997C151.3 20.0997 151.2 18.8997 151.5 17.8997C156.7 16.1997 160.1 13.5997 160.1 11.3997C160.1 9.79971 159 8.69971 156.7 8.69971C151.8 8.69971 148 15.0997 148 19.0997C148 21.1997 149 22.7997 151.3 22.7997C153.2 22.7997 155.6 21.9997 158.1 20.0997C159.9 18.6997 160.4 17.1997 159.7 16.5997C156.5 19.5997 153.7 20.0997 152.6 20.0997ZM156.6 11.6997C157 11.6997 157.3 11.8997 157.3 12.1997C157.3 13.1997 154.9 14.5997 152.2 15.7997C153 13.8997 154.7 11.6997 156.6 11.6997Z" fill="#313235"/>
<path d="M187.1 23.8998V17.2998H193.7V6.7998H187.1V0.299805H176.7V6.7998H170.1V17.2998H176.7V23.8998H187.1Z" fill="#313235"/>
<path d="M190 22.6999C190 21.9999 190.6 21.3999 191.3 21.3999C192 21.3999 192.6 21.9999 192.6 22.6999C192.6 23.3999 192 23.9999 191.3 23.9999C190.6 23.9999 190 23.3999 190 22.6999ZM192.4 22.6999C192.4 22.0999 191.9 21.5999 191.3 21.5999C190.7 21.5999 190.2 22.0999 190.2 22.6999C190.2 23.2999 190.7 23.7999 191.3 23.7999C191.9 23.7999 192.4 23.2999 192.4 22.6999ZM191 23.3999H190.8V21.8999H191.4C191.8 21.8999 191.9 22.0999 191.9 22.2999C191.9 22.5999 191.7 22.6999 191.4 22.6999L191.8 23.3999H191.6L191.2 22.6999H190.9V23.3999H191ZM191.3 22.5999C191.5 22.5999 191.8 22.5999 191.8 22.2999C191.8 22.0999 191.6 22.0999 191.4 22.0999H191V22.5999H191.3Z" fill="#313235"/>
<path d="M212.5 22.6999C212.5 21.9999 213.1 21.3999 213.8 21.3999C214.5 21.3999 215.1 21.9999 215.1 22.6999C215.1 23.3999 214.5 23.9999 213.8 23.9999C213.1 23.9999 212.5 23.3999 212.5 22.6999ZM214.9 22.6999C214.9 22.0999 214.4 21.5999 213.8 21.5999C213.2 21.5999 212.7 22.0999 212.7 22.6999C212.7 23.2999 213.2 23.7999 213.8 23.7999C214.5 23.7999 214.9 23.2999 214.9 22.6999ZM213.5 23.3999H213.3V21.8999H213.9C214.3 21.8999 214.4 22.0999 214.4 22.2999C214.4 22.5999 214.2 22.6999 213.9 22.6999L214.3 23.3999H214.1L213.7 22.6999H213.4V23.3999H213.5ZM213.8 22.5999C214 22.5999 214.3 22.5999 214.3 22.2999C214.3 22.0999 214.1 22.0999 213.9 22.0999H213.5V22.5999H213.8Z" fill="#313235"/>
<path d="M206.3 24.2C210.8 21.7 213.6 17.7 215 13.3C216.5 8.8 216.2 3.3 214.5 0C211.9 1.3 209.3 2 206.3 2C203.3 2 200.7 1.3 198.1 0C196.4 3.3 196.1 8.8 197.6 13.3C199 17.7 201.8 21.7 206.3 24.2Z" fill="#313235"/>
<path d="M181.9 5.6001C179.3 5.6001 177 7.1001 176 9.3001H180.6C181.3 9.3001 181.5 8.9001 181.6 8.6001C181.6 8.2001 181.6 8.1001 181.2 7.7001C180.9 7.3001 181.1 6.4001 181.9 6.4001C182.7 6.4001 182.9 7.3001 182.6 7.7001C182.3 8.1001 182.2 8.2001 182.3 8.6001C182.3 8.9001 182.6 9.3001 183.3 9.3001H187.9C186.8 7.2001 184.5 5.6001 181.9 5.6001ZM180.6 8.5001H177.7C178.4 7.7001 179.3 7.1001 180.4 6.8001C180.1 7.3001 180.3 8.1001 180.6 8.5001ZM183.2 8.5001C183.5 8.1001 183.8 7.3001 183.4 6.8001C184.5 7.1001 185.4 7.7001 186.1 8.5001H183.2Z" fill="white"/>
<path d="M180.2 10.2003L175.9 9.80029C175.6 10.5003 175.5 11.3003 175.5 12.1003C175.5 14.2003 176.5 16.0003 178 17.2003L181 11.6003C181.1 11.2003 181 10.4003 180.2 10.2003ZM180 11.3003L177.7 15.7003C176.9 14.7003 176.4 13.5003 176.4 12.1003C176.4 11.6003 176.5 11.2003 176.6 10.8003L179.9 11.1003C180 11.1003 180 11.2003 180 11.3003Z" fill="white"/>
<path d="M188.399 12.1003C188.399 11.3003 188.299 10.5003 187.999 9.80029L183.599 10.2003C182.799 10.3003 182.699 11.1003 182.899 11.6003L185.899 17.2003C187.399 16.0003 188.399 14.2003 188.399 12.1003ZM183.799 11.3003C183.699 11.2003 183.799 11.1003 183.999 11.0003L187.299 10.7003C187.399 11.1003 187.499 11.6003 187.499 12.0003C187.499 13.4003 186.999 14.7003 186.199 15.6003L183.799 11.3003Z" fill="white"/>
<path d="M181.501 12.8002L178.301 17.5002C179.301 18.2002 180.501 18.6002 181.901 18.6002C183.201 18.6002 184.401 18.2002 185.501 17.5002L182.301 12.8002C182.101 12.5002 181.701 12.5002 181.501 12.8002ZM181.901 17.7002C181.101 17.7002 180.301 17.5002 179.601 17.2002L181.801 13.9002L181.901 13.8002C181.901 13.8002 182.001 13.8002 182.001 13.9002L184.201 17.2002C183.501 17.5002 182.701 17.7002 181.901 17.7002Z" fill="white"/>
<path d="M213.499 2.5C211.599 3.1 210.499 3.3 209.499 3.5C208.599 3.6 207.699 3.7 206.299 3.8C204.899 3.8 204.099 3.7 203.099 3.5C202.099 3.3 200.999 3.1 199.099 2.5C197.899 5.5 198.099 9.4 199.299 12.7C200.599 16.4 202.599 19.7 206.299 22.1C209.999 19.8 211.999 16.5 213.299 12.7C214.399 9.4 214.699 5.6 213.499 2.5ZM212.799 11.3C211.699 16 208.799 19.6 206.299 21.2C203.799 19.6 200.899 16 199.799 11.3C199.199 8.8 198.999 6 199.799 3.7C200.899 4 201.999 4.2 203.099 4.4C204.199 4.5 205.299 4.6 206.299 4.7C207.399 4.7 208.399 4.6 209.499 4.4C210.599 4.2 211.599 4 212.799 3.7C213.599 5.9 213.399 8.8 212.799 11.3Z" fill="white"/>
<path d="M205.599 18.0999C205.499 18.1999 205.299 18.3999 205.299 18.8999C205.299 19.1999 205.399 19.2999 205.499 19.4999C205.599 19.5999 205.699 19.6999 205.699 19.4999C205.699 19.3999 205.599 19.2999 205.699 18.9999C205.699 18.7999 205.899 18.6999 205.899 18.6999V17.8999C205.799 17.8999 205.699 17.9999 205.599 18.0999Z" fill="white"/>
<path d="M205.299 11.1002C205.599 11.6002 205.699 11.8002 205.799 12.5002C206.199 12.5002 206.399 12.6002 206.799 12.7002L206.899 10.9002C206.899 10.9002 206.599 10.8002 206.299 10.8002C205.799 10.8002 205.599 10.7002 205.599 10.7002V10.8002L205.299 10.9002C205.299 10.9002 205.299 11.0002 205.299 11.1002Z" fill="white"/>
<path d="M207.399 13.0999C206.999 12.9999 206.199 12.8999 205.599 12.7999C205.499 12.7999 205.399 12.6999 205.399 12.5999C205.399 12.3999 205.599 12.3999 205.599 12.3999C205.599 12.3999 205.599 12.2999 205.499 11.9999C205.499 11.8999 205.299 11.5999 205.199 11.3999C204.799 11.5999 204.199 11.6999 204.199 12.2999C204.199 13.0999 204.799 13.5999 205.599 13.7999C206.099 13.8999 206.499 13.8999 206.999 13.9999C207.099 13.9999 207.199 13.9999 207.299 14.0999C207.399 14.0999 207.399 14.1999 207.399 14.2999C207.399 14.3999 207.399 14.3999 207.299 14.4999C207.299 14.5999 207.199 14.5999 207.199 14.5999V15.5999C207.199 15.5999 207.499 15.5999 207.899 15.3999C208.199 15.1999 208.399 14.9999 208.499 14.6999C208.599 14.3999 208.499 14.0999 208.299 13.7999C207.999 13.3999 207.699 13.1999 207.399 13.0999Z" fill="white"/>
<path d="M206.798 15.9002V14.3002C206.498 14.3002 206.298 14.3002 205.898 14.2002L205.998 15.5002L206.398 15.7002L206.798 15.9002Z" fill="white"/>
<path d="M207.1 16.4002C206.7 16.2002 206.1 15.9002 205.7 15.8002C205.7 15.8002 205.5 15.7002 205.6 15.6002C205.6 15.5002 205.7 15.5002 205.7 15.5002L205.6 14.7002C205.6 14.7002 205.4 14.8002 205.2 14.9002C205.1 15.0002 204.8 15.1002 204.7 15.3002C204.5 15.9002 204.7 16.4002 205.3 16.7002C205.6 16.8002 205.9 16.9002 206.2 17.0002C206.5 17.1002 207 17.4002 207 17.6002C207 17.7002 206.9 17.8002 206.9 17.8002V18.5002C206.9 18.5002 207.2 18.4002 207.4 18.3002C207.6 18.1002 207.7 17.9002 207.7 17.6002C207.8 16.9002 207.6 16.7002 207.1 16.4002Z" fill="white"/>
<path d="M206.4 17.2C206.3 17.1 206 17 206 17C206 17 206 18.8 206.1 19.7C206.1 19.9 206.2 20 206.4 20C206.6 20 206.7 19.9 206.7 19.8C206.7 19.5 206.7 18.2 206.8 17.6C206.8 17.5 206.8 17.5 206.8 17.5C206.6 17.3 206.5 17.2 206.4 17.2Z" fill="white"/>
<path d="M208.399 6.3001C207.999 6.5001 207.699 6.8001 207.299 7.1001C207.199 7.1001 207.199 7.1001 207.199 7.1001C207.099 6.9001 207.199 6.5001 207.199 6.2001C207.199 6.1001 207.199 6.1001 207.099 6.0001C206.699 5.9001 206.299 5.7001 205.999 5.6001C205.899 5.6001 205.699 5.6001 205.599 5.7001C205.499 5.8001 205.599 6.1001 205.599 6.1001C205.599 6.1001 205.999 6.3001 206.199 6.4001C206.299 6.5001 206.399 6.7001 206.499 6.8001C206.499 6.9001 206.599 6.9001 206.699 7.0001C206.799 7.1001 206.799 7.2001 206.799 7.3001C206.799 7.3001 206.599 7.4001 206.499 7.4001C206.199 7.4001 205.999 7.4001 205.999 7.4001C205.999 7.4001 206.599 7.5001 206.899 7.5001C206.999 7.5001 207.099 7.6001 207.199 7.7001L207.299 7.9001C206.899 7.7001 206.499 7.5001 206.099 7.5001C206.099 7.5001 206.299 7.6001 206.399 7.6001C206.499 7.6001 206.499 7.7001 206.499 7.8001C206.399 8.1001 205.899 8.1001 205.899 8.1001V8.6001C206.299 8.7001 206.899 8.7001 207.499 8.8001L207.599 8.6001C207.699 8.4001 207.999 8.2001 208.199 8.0001C208.499 7.7001 208.899 7.4001 209.099 7.2001C209.199 7.1001 209.299 7.1001 209.299 6.9001C209.099 6.5001 208.599 6.3001 208.399 6.3001Z" fill="white"/>
<path d="M207.999 9.3999C206.999 8.8999 205.899 9.0999 204.899 8.7999C204.599 8.6999 204.299 8.5999 204.199 8.1999C204.099 7.9999 204.099 7.7999 204.299 7.6999C204.499 7.5999 204.699 7.7999 205.099 7.8999C205.299 7.8999 205.599 7.8999 205.799 7.8999C205.899 7.8999 205.999 7.8999 205.999 7.7999C205.999 7.6999 205.899 7.6999 205.799 7.6999C205.699 7.5999 205.599 7.5999 205.499 7.5999C205.299 7.4999 205.099 7.3999 204.899 7.2999C205.099 7.2999 205.399 7.2999 205.599 7.2999C205.799 7.2999 206.199 7.2999 206.399 7.2999C206.399 7.2999 206.499 7.2999 206.499 7.1999C206.499 7.0999 206.399 7.0999 206.299 6.9999C206.199 6.7999 205.999 6.5999 205.799 6.4999C205.099 6.1999 204.399 6.1999 203.799 6.4999C202.899 6.8999 202.499 8.0999 202.999 8.8999C203.399 9.5999 203.999 9.9999 204.799 10.1999C205.199 10.2999 205.499 10.3999 205.899 10.3999C206.399 10.3999 206.799 10.4999 207.299 10.5999C207.399 10.5999 207.599 10.6999 207.599 10.7999C207.699 10.9999 207.599 11.1999 207.399 11.2999C207.399 11.6999 207.299 12.5999 207.299 12.5999C207.299 12.5999 209.299 12.3999 208.999 10.5999C208.799 9.9999 208.399 9.5999 207.999 9.3999ZM205.699 6.5999H205.599C205.499 6.6999 205.499 6.6999 205.399 6.6999C205.199 6.6999 205.199 6.5999 205.099 6.4999C204.999 6.4999 204.899 6.4999 204.899 6.3999C205.099 6.3999 205.499 6.3999 205.699 6.5999Z" fill="white"/>
</g>
<defs>
<clipPath id="clip0_2_1882">
<rect width="216" height="24.2" fill="white"/>
</clipPath>
</defs>
</svg>
