<svg width="490" height="491" viewBox="0 0 490 491" fill="none" xmlns="http://www.w3.org/2000/svg">
<path d="M244.98 490.5C380.32 490.5 490 380.82 490 245.52C490 110.22 380.32 0.5 244.98 0.5C109.68 0.5 0 110.22 0 245.52C0 380.82 109.68 490.5 244.98 490.5Z" fill="white"/>
<path d="M299.96 181.71C299.96 153.85 318.82 126.83 329.11 131.92C340.84 137.8 320.32 164.04 299.96 181.71ZM171.71 191.86C171.71 169.46 193.81 126.9 207.31 131.4C223.27 136.72 194.09 179.65 171.71 191.86ZM149.3 352.06C139.14 352.52 132.34 346.02 132.34 335.17C132.34 306.02 172.79 278.17 203.34 263.22C197.92 303.92 184.17 350.49 149.3 352.06ZM335.92 257.07C312.85 257.07 295.22 274.04 295.22 294.39C295.22 311.36 305.42 324.93 318.95 324.93C323.74 324.93 328.48 322.2 328.48 316.14C328.48 307.27 316.78 305.14 317.66 291.95C318.25 283.25 326.45 277.43 334.59 277.43C350.86 277.43 358.47 293.2 358.47 309.47C357.81 334.6 339.31 352.05 317.63 352.05C289.11 352.05 270.79 324.93 270.79 295.74C270.79 252.28 299.31 235.32 314.25 231.27C314.39 231.27 353.27 238.18 352.06 221.04C351.5 213.5 340.29 210.6 332.19 210.29C323.18 209.94 314.08 213.18 314.08 213.18C309.36 210.78 306.08 206.09 304.05 200.69C331.88 179.63 351.56 159.29 351.56 136.21C351.56 124 343.4 113.14 327.79 113.14C299.96 113.14 278.92 148.43 278.92 180.33C278.92 185.74 278.92 191.19 280.32 195.93C262.66 208.81 249.53 216.84 225.8 231.09C225.8 228.12 226.42 220.45 228.42 210.53C236.55 201.7 247.72 188.47 247.72 178.28C247.72 173.54 245.03 169.45 239.55 169.45C226 169.45 215.84 189.83 213.12 204.08C207.01 211.58 194.79 221.08 184.59 221.08C176.46 221.08 173.73 213.61 173.04 210.88C198.84 202.05 230.74 166.76 230.74 134.86C230.74 128.09 228.02 113.14 207.67 113.14C177.13 113.14 151.37 158.63 151.37 193.88C140.48 193.88 136.43 182.36 136.43 173.53C136.43 164.69 139.82 155.9 139.82 153.17C139.82 150.45 138.46 147.07 134.37 147.07C124.21 147.07 118.1 160.64 118.1 176.25C118.8 197.97 133.04 211.58 152.03 212.91C154.75 225.82 166.27 238.04 180.51 238.04C189.35 238.04 200.2 235.32 207.67 228.55C207.01 233.29 206.35 237.38 205.65 241.43C175.77 257.07 154.05 267.92 134.37 285.56C118.8 299.83 109.97 318.82 109.97 333.73C109.97 354.12 122.85 373.11 149.31 373.11C180.51 373.11 204.29 348.01 215.84 313.38C221.25 297.11 223.42 273.41 224.81 251.66C255.99 233.99 270.79 223.81 287.09 212.25C289.12 215.64 291.17 218.35 293.86 220.38C279.62 227.85 245.69 248.9 245.69 298.43C245.69 333.72 269.42 373.1 316.28 373.1C354.96 373.1 381.42 341.19 381.42 310.64C381.41 282.84 365.8 257.07 335.92 257.07ZM452.61 315.37C452.51 315.58 452.13 315.86 451.36 315.61C450.76 315.4 450.63 315.12 450.63 314.73C450.66 314.35 458.83 290.19 458.76 262.51C458.69 232.59 446.55 214.26 430.98 214.26C421.45 214.26 414.67 221.07 414.67 231.27C414.67 249.59 437.05 250.96 437.05 290.99C437.05 307.26 433.66 322.87 428.26 339.83C403.12 424.65 323.04 464.03 245.03 464.03C209.04 464.03 183.48 456.63 175.88 453.22C175.57 453.04 175.28 452.45 175.53 451.85C175.7 451.4 176.23 451.05 176.54 451.19C179.62 452.38 201.57 459.29 228.73 459.29C258.58 459.29 276.24 447.08 276.24 432.13C276.24 422.64 268.77 415.17 259.28 415.17C240.95 415.17 239.56 438.24 200.21 438.24C183.25 438.24 168.31 434.85 150.68 429.4C66.5 403.62 26.43 324.24 26.46 245.52C26.49 207.16 37.25 176.61 37.42 176.33C37.56 176.13 38.04 175.91 38.63 176.13C39.23 176.33 39.36 176.82 39.33 177C38.36 180.18 31.23 202.07 31.23 229.23C31.23 259.11 43.44 276.74 59.05 276.74C67.85 276.74 75.32 269.97 75.32 260.47C75.32 242.12 52.91 240.09 52.91 200.72C52.91 183.75 56.33 168.81 61.74 151.18C87.54 67.02 166.96 27.58 245.01 26.97C281.28 26.69 313.01 37.55 314.23 38.52C314.44 38.7 314.65 39.16 314.44 39.71C314.15 40.37 313.73 40.44 313.53 40.4C313.15 40.37 292.51 31.74 261.27 31.74C232.09 31.71 213.76 43.93 213.76 59.56C213.76 68.36 220.57 75.83 230.72 75.83C249.05 75.83 250.41 53.45 289.79 53.45C306.71 53.45 321.66 56.8 339.29 62.25C424.15 88.04 462.76 168.12 463.49 245.51C463.89 285.14 452.72 315.12 452.61 315.37ZM245.02 12.05C116.07 12.05 11.56 116.53 11.56 245.51C11.56 374.46 116.07 478.94 245.02 478.94C373.94 478.94 478.45 374.46 478.45 245.51C478.45 117.23 373.94 12.05 245.02 12.05ZM245.02 490.5C109.96 490.5 0 381.24 0 245.52C0 110.42 109.96 0.5 245.02 0.5C380.04 0.5 490 110.42 490 245.52C490 381.24 380.04 490.5 245.02 490.5Z" fill="#313235"/>
</svg>
