<svg width="496" height="84" viewBox="0 0 496 84" fill="none" xmlns="http://www.w3.org/2000/svg">
<g clip-path="url(#clip0_2_1605)">
<path d="M124.3 18.5H132.1V37.5H149.5V18.5H157.3V64.7H149.5V44.2H132.1V64.7H124.3V18.5Z" fill="#313235"/>
<path d="M175.5 18.5H183.3V64.7H175.5V18.5Z" fill="#313235"/>
<path d="M198.8 40.9C198.8 25.4 208.5 17.5 218.7 17.5C227.9 17.5 234.9 23.5 236.3 33.1L228.4 34.4C227.4 29.3 224.7 24.8 218.6 24.8C212.3 24.8 206.8 30.1 206.8 41C206.8 53.4 212.2 58.6 218.6 58.6C224.9 58.6 228.9 54.7 228.8 47.9H219.2V41.2H236.3V46.7C236.3 58.8 228.8 65.8 218.5 65.8C207.9 65.6 198.8 58.5 198.8 40.9Z" fill="#313235"/>
<path d="M251.6 18.5H259.4V37.5H276.8V18.5H284.6V64.7H276.8V44.2H259.4V64.7H251.6V18.5Z" fill="#313235"/>
<path d="M302.399 18.5H311.399L325.299 50.7H325.399L339.099 18.5H348.099V64.7H340.299V32.9H340.199L326.299 64.6H324.299L310.399 32.9H310.199V64.6H302.399V18.5Z" fill="#313235"/>
<path d="M363.3 41.2C363.3 25.3 373.1 17.5 383.2 17.5C393.2 17.5 403 25.4 403 41.3C403 59 393.3 65.7 383.2 65.7C373 65.6 363.3 58.8 363.3 41.2ZM395 41.2C395 29.9 389.5 24.7 383.3 24.7C377 24.7 371.5 29.8 371.5 41.1C371.5 53.6 376.9 58.4 383.3 58.4C389.5 58.4 395 53.8 395 41.2Z" fill="#313235"/>
<path d="M418.2 18.5H436.6C446 18.5 452.4 23.7 452.4 32.9C452.4 40.1 448.2 44.7 442.1 46.3L452.1 64.7H443.5L434.1 46.9H426V64.7H418.2V18.5ZM436 40.2C441 40.2 444.5 38.1 444.5 32.9C444.5 27.7 441.1 25.6 436 25.6H426V40.2H436Z" fill="#313235"/>
<path d="M466.899 18.5H495.699V25.7H474.699V37.6H493.799V44.5H474.699V57.5H495.699V64.7H466.899V18.5Z" fill="#313235"/>
<path d="M56.5004 18.8999V31.9999H26.5004V18.8999H18.9004V64.0999H26.5004V51.0999H56.5004V64.1999H64.1004V18.8999H56.5004ZM26.6004 43.4999V39.6999H56.6004V43.4999H26.6004Z" fill="#313235"/>
<path d="M0 0V83.1H83.1V0H0ZM7.6 75.5V7.6H75.5V75.5H7.6Z" fill="#74777B"/>
</g>
<defs>
<clipPath id="clip0_2_1605">
<rect width="495.7" height="83.1" fill="white"/>
</clipPath>
</defs>
</svg>
