<svg width="275" height="52" viewBox="0 0 275 52" fill="none" xmlns="http://www.w3.org/2000/svg">
<g clip-path="url(#clip0_2_1983)">
<path d="M120.201 48.7001V39.1001H116.801V51.9001H153.001V48.7001H120.201Z" fill="#313235"/>
<path d="M16.7 22.7998H6.4V12.2998H0V39.4998H6.4V28.7998H16.7V39.4998H23.1V12.2998H16.7V22.7998Z" fill="#313235"/>
<path d="M41.4004 12.2998H34.9004V39.5998H41.4004V12.2998Z" fill="#313235"/>
<path d="M75.9996 21.4002C75.9996 18.8002 75.1996 16.6002 73.5996 15.0002C71.7996 13.2002 68.9996 12.2002 65.5996 12.2002H53.0996V39.5002H59.5996V31.0002H63.7996L69.4996 39.5002H77.0996L70.4996 29.8002C74.0996 28.4002 75.9996 25.4002 75.9996 21.4002ZM69.4996 21.7002C69.4996 23.9002 67.8996 25.3002 65.2996 25.3002H59.6996V18.2002H65.1996C67.9996 18.1002 69.4996 19.4002 69.4996 21.7002Z" fill="#313235"/>
<path d="M90.9996 33.6998V28.6998H103.6V22.8998H90.9996V18.0998H105.3V12.2998H84.5996V39.4998H105.5V33.6998H90.9996Z" fill="#313235"/>
<path d="M145.9 29.8002C149.5 28.3002 151.5 25.4002 151.5 21.4002V21.3002C151.5 18.7002 150.7 16.5002 149.1 15.0002C147.3 13.2002 144.5 12.2002 141.1 12.2002H128.6V39.5002H135.1V31.0002H139.3L145 39.5002H152.6L145.9 29.8002ZM144.9 21.7002C144.9 23.8002 143.3 25.2002 140.7 25.2002H135V18.1002H140.5C143.3 18.1002 144.9 19.4002 144.9 21.7002Z" fill="#7B7D85"/>
<path d="M166.699 12.2998H160.199V39.5998H166.699V12.2998Z" fill="#7B7D85"/>
<path d="M189.2 29.1998H195.1V32.5998C193.7 33.5998 191.9 34.0998 189.9 34.0998C185.4 34.0998 182.1 30.6998 182.1 25.8998V25.7998C182.1 21.3998 185.4 17.7998 189.5 17.7998C192.5 17.7998 194.3 18.7998 196.3 20.3998L196.5 20.5998L200.6 15.6998L200.4 15.4998C197.3 12.8998 194.2 11.7998 189.7 11.7998C181.7 11.7998 175.4 17.9998 175.4 25.8998V25.9998C175.4 34.0998 181.4 39.9998 189.7 39.9998C194 39.9998 197.9 38.5998 201.3 35.6998L201.4 35.5998V23.5998H189.2V29.1998Z" fill="#7B7D85"/>
<path d="M226.901 22.7998H216.701V12.2998H210.301V39.4998H216.701V28.7998H226.901V39.4998H233.401V12.2998H226.901V22.7998Z" fill="#7B7D85"/>
<path d="M239.199 12.2998V18.2998H247.299V39.4998H253.799V18.2998H261.899V12.2998H239.199Z" fill="#7B7D85"/>
<path d="M271.3 3.3V12.8H274.8V0H238.6V3.3H271.3Z" fill="#313235"/>
</g>
<defs>
<clipPath id="clip0_2_1983">
<rect width="274.8" height="51.9" fill="white"/>
</clipPath>
</defs>
</svg>
