<svg width="360" height="127" viewBox="0 0 360 127" fill="none" xmlns="http://www.w3.org/2000/svg">
<g clip-path="url(#clip0_2_1756)">
<path d="M7.8 91.7001C12.1078 91.7001 15.6 88.2079 15.6 83.9001C15.6 79.5923 12.1078 76.1001 7.8 76.1001C3.49218 76.1001 0 79.5923 0 83.9001C0 88.2079 3.49218 91.7001 7.8 91.7001Z" fill="#313235"/>
<path d="M15.6 7.8C15.6 3.5 12.1 0 7.8 0C3.5 0 0 3.5 0 7.8C0 11.2 0 60.3 0 63.6C0 67.9 3.5 71.4 7.8 71.4C12.1 71.4 15.6 67.9 15.6 63.6C15.6 60.2 15.6 11.1 15.6 7.8Z" fill="#7B7C7F"/>
<path d="M15.6 104.3C15.6 100 12.1 96.5 7.8 96.5C3.5 96.5 0 100 0 104.3C0 107.7 0 115.5 0 118.9C0 123.2 3.5 126.7 7.8 126.7C12.1 126.7 15.6 123.2 15.6 118.9C15.6 115.5 15.6 107.6 15.6 104.3Z" fill="#7B7C7F"/>
<path d="M49.3996 126.6C53.7074 126.6 57.1996 123.108 57.1996 118.8C57.1996 114.492 53.7074 111 49.3996 111C45.0918 111 41.5996 114.492 41.5996 118.8C41.5996 123.108 45.0918 126.6 49.3996 126.6Z" fill="#7B7C7F"/>
<path d="M57.1996 7.8C57.1996 3.5 53.6996 0 49.3996 0C45.0996 0 41.5996 3.5 41.5996 7.8C41.5996 11.2 41.5996 60.3 41.5996 63.6C41.5996 67.9 45.0996 71.4 49.3996 71.4C53.6996 71.4 57.1996 67.9 57.1996 63.6C57.1996 60.2 57.1996 11.1 57.1996 7.8Z" fill="#313235"/>
<path d="M57.1996 83.9001C57.1996 79.6001 53.6996 76.1001 49.3996 76.1001C45.0996 76.1001 41.5996 79.6001 41.5996 83.9001C41.5996 87.3001 41.5996 95.1001 41.5996 98.5001C41.5996 102.8 45.0996 106.3 49.3996 106.3C53.6996 106.3 57.1996 102.8 57.1996 98.5001C57.1996 95.1001 57.1996 87.3001 57.1996 83.9001Z" fill="#313235"/>
<path d="M90.9992 126.6C95.307 126.6 98.7992 123.108 98.7992 118.8C98.7992 114.492 95.307 111 90.9992 111C86.6914 111 83.1992 114.492 83.1992 118.8C83.1992 123.108 86.6914 126.6 90.9992 126.6Z" fill="#7B7C7F"/>
<path d="M98.7992 83.9001C98.7992 79.6001 95.2992 76.1001 90.9992 76.1001C86.6992 76.1001 83.1992 79.6001 83.1992 83.9001C83.1992 87.3001 83.1992 95.1001 83.1992 98.5001C83.1992 102.8 86.6992 106.3 90.9992 106.3C95.2992 106.3 98.7992 102.8 98.7992 98.5001C98.7992 95.1001 98.7992 87.3001 98.7992 83.9001Z" fill="#313235"/>
<path d="M90.9992 35.8998C95.307 35.8998 98.7992 32.4076 98.7992 28.0998C98.7992 23.792 95.307 20.2998 90.9992 20.2998C86.6914 20.2998 83.1992 23.792 83.1992 28.0998C83.1992 32.4076 86.6914 35.8998 90.9992 35.8998Z" fill="#7B7C7F"/>
<path d="M98.7992 63.6002C98.7992 67.9002 95.2992 71.4002 90.9992 71.4002C86.6992 71.4002 83.1992 67.9002 83.1992 63.6002C83.1992 60.2002 83.1992 51.8002 83.1992 48.5002C83.1992 44.2002 86.6992 40.7002 90.9992 40.7002C95.2992 40.7002 98.7992 44.2002 98.7992 48.5002C98.7992 51.8002 98.7992 60.2002 98.7992 63.6002Z" fill="#7B7C7F"/>
<path d="M90.9992 15.6C95.307 15.6 98.7992 12.1078 98.7992 7.8C98.7992 3.49218 95.307 0 90.9992 0C86.6914 0 83.1992 3.49218 83.1992 7.8C83.1992 12.1078 86.6914 15.6 90.9992 15.6Z" fill="#313235"/>
<path d="M137.801 1H144.401V11.8H154.301V1H160.901V28.1H154.301V17.5H144.401V28.1H137.801V1Z" fill="#313235"/>
<path d="M174.1 1H180.7V18.1C180.7 20.9 182.6 22.5 185.4 22.5C188.2 22.5 190.1 21 190.1 18.1V1H196.7V18.1C196.7 24.2 192.2 28.5 185.4 28.5C178.5 28.5 174 24.2 174 18.1L174.1 1Z" fill="#313235"/>
<path d="M210.5 1H217.7L221.6 12.5C222.2 14.2 223 17 223 17H223.1C223.1 17 223.9 14.3 224.5 12.5L228.4 1H235.6L237.8 28.1H231.2L230.4 15.9C230.2 13.9 230.4 11.3 230.4 11.3H230.3C230.3 11.3 229.4 14.1 228.8 15.9L226 23.8H220.3L217.5 15.9C216.9 14.2 216 11.3 216 11.3H215.9C215.9 11.3 216.1 13.8 215.9 15.9L215.1 28.1H208.4L210.5 1Z" fill="#313235"/>
<path d="M264.8 22.4H256.3L254.7 28.1H247.9L257.1 1H264.1L273.3 28.1H266.5L264.8 22.4ZM260.5 7.2C260.5 7.2 259.9 10.2 259.4 11.9L257.8 17.2H263.1L261.6 11.9C261.2 10.1 260.6 7.2 260.5 7.2Z" fill="#313235"/>
<path d="M283.1 1H289.8L297.3 13.7C298.4 15.5 299.6 18.3 299.6 18.3H299.7C299.7 18.3 299.4 15.4 299.4 13.7V1H306V28.1H299.3L291.8 15.5C290.7 13.7 289.5 10.9 289.5 10.9H289.4C289.4 10.9 289.7 13.8 289.7 15.5V28.1H283.1V1Z" fill="#313235"/>
<path d="M134.4 49.8999H141.6L146.4 65.2999C146.9 66.9999 147.4 69.6999 147.4 69.6999H147.5C147.5 69.6999 148 66.9999 148.5 65.2999L153.4 49.8999H160.5L150.9 76.9999H144L134.4 49.8999Z" fill="#313235"/>
<path d="M181.9 71.2999H173.4L171.8 76.9999H165L174.2 49.8999H181.2L190.4 76.9999H183.6L181.9 71.2999ZM177.7 56.0999C177.7 56.0999 177.1 59.0999 176.6 60.7999L175 66.0999H180.3L178.8 60.7999C178.4 58.9999 177.7 56.0999 177.7 56.0999Z" fill="#313235"/>
<path d="M211.7 49.3999C218.4 49.3999 221.9 53.1999 221.9 53.1999L218.8 58.1999C218.8 58.1999 215.8 55.3999 212 55.3999C206.8 55.3999 204.3 59.1999 204.3 63.0999C204.3 67.0999 207 71.2999 212 71.2999C216.1 71.2999 219.2 67.9999 219.2 67.9999L222.6 72.8999C222.6 72.8999 218.8 77.4999 211.7 77.4999C203.2 77.4999 197.5 71.4999 197.5 63.3999C197.5 55.4999 203.6 49.3999 211.7 49.3999Z" fill="#313235"/>
<path d="M243.2 49.3999C249.9 49.3999 253.4 53.1999 253.4 53.1999L250.3 58.1999C250.3 58.1999 247.3 55.3999 243.5 55.3999C238.3 55.3999 235.8 59.1999 235.8 63.0999C235.8 67.0999 238.5 71.2999 243.5 71.2999C247.6 71.2999 250.7 67.9999 250.7 67.9999L254.1 72.8999C254.1 72.8999 250.3 77.4999 243.2 77.4999C234.7 77.4999 229 71.4999 229 63.3999C229 55.4999 235.1 49.3999 243.2 49.3999Z" fill="#313235"/>
<path d="M263.5 49.8999H270.1V76.9999H263.5V49.8999Z" fill="#313235"/>
<path d="M281.1 49.8999H287.8L295.3 62.5999C296.4 64.3999 297.6 67.1999 297.6 67.1999H297.7C297.7 67.1999 297.4 64.2999 297.4 62.5999V49.8999H304V76.9999H297.3L289.8 64.3999C288.7 62.5999 287.5 59.7999 287.5 59.7999H287.4C287.4 59.7999 287.7 62.6999 287.7 64.3999V76.9999H281.1V49.8999Z" fill="#313235"/>
<path d="M314.9 49.8999H331.9V55.5999H321.5V60.4999H329.8V66.1999H321.5V71.2999H332.4V76.9999H314.9V49.8999Z" fill="#313235"/>
<path d="M344 68.4998C344 68.4998 347.1 71.2998 350.5 71.2998C351.9 71.2998 353.3 70.7998 353.3 69.0998C353.3 65.8998 341.1 65.9998 341.1 57.5998C341.1 52.5998 345.3 49.2998 350.7 49.2998C356.5 49.2998 359.4 52.3998 359.4 52.3998L356.6 57.7998C356.6 57.7998 353.9 55.3998 350.6 55.3998C349.2 55.3998 347.7 55.9998 347.7 57.4998C347.7 60.8998 359.9 60.2998 359.9 68.8998C359.9 73.3998 356.4 77.2998 350.3 77.2998C343.9 77.2998 340.4 73.3998 340.4 73.3998L344 68.4998Z" fill="#313235"/>
<path d="M137.801 99.2998H147.001C151.801 99.2998 155.201 102.4 155.201 107.3C155.201 112.3 151.701 115.5 147.001 115.5H140.401V126H137.801V99.2998ZM146.701 113.1C150.301 113.1 152.601 110.9 152.601 107.3C152.601 103.7 150.301 101.6 146.801 101.6H140.501V113.1H146.701Z" fill="#313235"/>
<path d="M169.1 99.2998H177C179.7 99.2998 180.9 99.5998 182 99.9998C184.5 101.1 186 103.6 186 106.9C186 110.5 184 113.3 181 114.1V114.2C181 114.2 181.3 114.5 181.7 115.3L187.5 126H184.5L178.5 114.8H171.8V126H169.2L169.1 99.2998ZM178.1 112.3C181.3 112.3 183.4 110.2 183.4 106.9C183.4 104.7 182.5 103.1 181 102.2C180.2 101.8 179.3 101.6 177.2 101.6H171.8V112.3H178.1Z" fill="#313235"/>
<path d="M210.801 98.7998C218.301 98.7998 224.401 104.8 224.401 112.4C224.401 120.2 218.401 126.4 210.801 126.4C203.301 126.4 197.201 120.3 197.201 112.4C197.201 104.8 203.201 98.7998 210.801 98.7998ZM210.801 123.9C216.801 123.9 221.601 118.9 221.601 112.4C221.601 106 216.701 101.2 210.801 101.2C204.801 101.2 200.001 106 200.001 112.4C199.901 118.9 204.801 123.9 210.801 123.9Z" fill="#313235"/>
<path d="M234.801 117.4H237.401V118.4C237.401 122.5 239.901 124 242.301 124C244.701 124 247.201 122.6 247.201 118.5V101.7H240.701V99.2998H249.801V118.5C249.801 124.3 246.001 126.4 242.301 126.4C238.701 126.4 234.801 124.2 234.801 118.5V117.4Z" fill="#313235"/>
<path d="M267.6 99.2998H282.6V101.7H270.2V111.4H280.3V113.8H270.2V123.7H283.3V126.1H267.6V99.2998Z" fill="#313235"/>
<path d="M308 98.7998C314.4 98.7998 317.6 102.3 317.6 102.3L316.2 104.2C316.2 104.2 313.1 101.2 308.1 101.2C301.8 101.2 297.4 106.1 297.4 112.3C297.4 118.7 301.9 123.9 308.2 123.9C313.6 123.9 316.8 120.3 316.8 120.3L318.3 122.2C318.3 122.2 314.7 126.3 308.1 126.3C300.2 126.3 294.6 120.1 294.6 112.3C294.6 104.7 300.4 98.7998 308 98.7998Z" fill="#313235"/>
<path d="M336.301 101.6H326.701V99.2998H348.501V101.7H338.901V126H336.301V101.6Z" fill="#313235"/>
</g>
<defs>
<clipPath id="clip0_2_1756">
<rect width="359.9" height="126.7" fill="white"/>
</clipPath>
</defs>
</svg>
