<svg width="444" height="179" viewBox="0 0 444 179" fill="none" xmlns="http://www.w3.org/2000/svg">
<g clip-path="url(#clip0_2_1584)">
<path d="M48.4 114.6C48.4 130.9 32.8 161.2 11.6 161.2C3.4 161.2 0 157.1 0 150.9C0 146.1 3.4 142 8 142C17.8 142 16 154.1 19.9 154.1C24.5 154.1 30.9 144.3 30.9 127.4V30.2C30.9 22.2 29.1 19.5 22.7 19C16.8 18.5 15.8 18.6 15.8 16.3C15.8 14.9 16.3 14 20.1 14C25.6 14 32.4 14.7 39.3 14.7C52.5 14.7 55.3 14 58.1 14C59.7 14 61.5 14.5 61.5 16.3C61.5 18.4 60.1 18.4 54.9 19C51 19.4 48.3 21.3 48.3 26.8V114.6H48.4Z" fill="#313235"/>
<path d="M93.0996 83.6002C93.0996 81.5002 92.5996 81.1002 91.2996 81.1002C88.9996 81.1002 72.5996 95.1002 72.0996 107.6C72.0996 113.1 75.0996 117.4 80.0996 117.4C88.4996 117.4 93.0996 111 93.0996 95.0002V83.6002ZM107.7 108.2C107.7 115.3 110.9 117.4 113.6 117.4C117.3 117.4 117.9 111.7 120.7 111.7C121.8 111.7 122.3 112.4 122.3 113.8C122.3 119.7 114.5 128 106.8 128C95.3996 128 94.1996 114.9 92.0996 114.9C89.9996 114.9 84.5996 128.8 70.7996 128.8C61.5996 128.8 55.8996 123.8 55.8996 113.3C55.8996 93.8002 93.1996 81.3002 93.1996 70.1002V54.8002C93.1996 50.2002 90.4996 47.0002 85.6996 47.0002C78.9996 47.0002 73.0996 52.7002 71.9996 62.1002C71.0996 69.9002 67.5996 74.7002 60.9996 74.7002C56.6996 74.7002 54.5996 72.4002 54.5996 68.8002C54.5996 61.9002 68.7996 42.7002 90.0996 42.7002C104 42.7002 107.7 45.2002 107.7 54.8002V108.2Z" fill="#313235"/>
<path d="M157.3 119.9C172.6 119.9 173.6 105.3 177.2 105.3C178.3 105.3 179.2 106 179.2 108.5C179.2 113.8 170.5 128.8 151.3 128.8C131.4 128.8 117.9 111 117.9 84.3998C117.9 60.8998 132.8 42.7998 154.9 42.7998C161.1 42.7998 169.8 44.1998 173 46.1998C175.5 47.5998 175.8 48.1998 175.8 55.7998C175.8 68.0998 175.4 68.7998 171.9 68.7998C168.7 68.7998 167.6 67.5998 165 62.5998C158.6 50.8998 157.7 47.0998 152.9 47.0998C144.5 47.0998 134.2 59.1998 134.2 80.0998C134.2 102.5 144.1 119.9 157.3 119.9Z" fill="#313235"/>
<path d="M202.2 90.9V114.4C202.2 119.2 203.8 120.4 209.5 122.4C211.5 123.1 212.9 123.1 212.9 124.5C212.9 125.6 212 126.6 211.1 126.6C205.8 126.6 200.4 125.9 195.1 125.9C190.1 125.9 185.1 126.6 180.2 126.6C178.6 126.6 178.1 126.1 178.1 124.6C178.1 123.2 178.8 122.6 180.6 122.3C186.6 121.2 187.7 119.6 187.7 115.2V21.7C187.7 12.3 184.7 12.5 182.5 12.1C180.5 11.9 178.6 11.4 178.6 9.6C178.6 8.2 180.9 7.8 182.5 7.5C188.9 6.1 193.2 4.1 196 2.7C198.3 1.5 200.1 0 200.8 0C201.9 0 202.2 0.5 202.2 2.5V81C202.2 82.6 202.6 82.8 202.9 82.8C203.3 82.8 204.7 81.4 209.7 76.4C229.4 56.7 231.4 55.8 231.4 52.4C231.4 50.3 229.4 49.4 224.6 49C222.3 48.8 220.3 48.3 220.3 46.7C220.3 45.8 221.4 44.7 223.3 44.7C228.8 44.7 233.6 45.4 238.4 45.4C243.7 45.4 251.7 44.7 253.2 44.7C255.2 44.7 255.3 45.2 255.3 46.1C255.3 48.1 254.6 47.5 249.6 48.9C241.4 51.2 240.7 53.5 221.9 72.4C249.4 117.2 248.4 120.7 255 122.2C257.3 122.7 258.2 123.3 258.2 124.3C258.2 125.7 257.1 126.4 255 126.4C250 126.4 245 125.7 240.1 125.7C236.4 125.7 232.6 126.4 228.2 126.4C226.2 126.4 225.5 125.5 225.5 124.3C225.5 123.2 226.2 122.7 228.3 122.2C231.7 121.3 232 120.8 232 118.5C232 116.9 228.8 112.3 211.6 82.2L202.2 90.9Z" fill="#313235"/>
<path d="M252.3 104.4C252.3 102.1 253.2 101 255 101C256.6 101 257.7 102.6 260 109.2C263.2 118.6 268 124.5 276.5 124.5C284.7 124.5 289.6 117.7 289.6 109C289.6 88.2002 251.9 89.1002 251.9 66.5002C251.9 50.9002 267 42.7002 279.3 42.7002C285.5 42.7002 292.8 43.9002 295.6 45.2002C297.7 46.1002 297.9 47.2002 297.9 57.8002C297.9 63.5002 297.4 64.6002 294.7 64.6002C289.7 64.6002 292.4 47.0002 276.4 47.0002C268.9 47.0002 264.3 52.0002 264.3 58.9002C264.3 77.6002 302 75.4002 302 102.3C302 117.2 289.2 128.8 270.7 128.8C263.2 128.8 252.2 125.9 252.2 122.8V104.4H252.3Z" fill="#313235"/>
<path d="M355.5 85.7998C355.5 69.2998 349.3 47.0998 337.7 47.0998C326.2 47.0998 319.9 69.2998 319.9 85.7998C319.9 102.3 326.1 124.5 337.7 124.5C349.3 124.5 355.5 102.3 355.5 85.7998ZM337.7 128.8C318 128.8 303.6 108.7 303.6 85.7998C303.6 62.8998 318 42.7998 337.7 42.7998C357.4 42.7998 371.8 62.8998 371.8 85.7998C371.8 108.7 357.5 128.8 337.7 128.8Z" fill="#313235"/>
<path d="M419.1 66.1001C419.1 55.8001 414.5 51.7001 408.1 51.7001C401.3 51.7001 395.8 56.3001 392.8 65.0001V114.4C392.8 119.9 394.9 121.3 398.7 122.4C402.3 123.5 402.8 124 402.8 124.9C402.8 126 402.3 126.7 400.7 126.7C397.3 126.7 392.5 126 385.2 126C379.5 126 374 126.7 371.2 126.7C369.2 126.7 368.4 126.4 368.4 124.7C368.4 123.3 369.8 122.6 372.1 122C376.9 120.9 378.3 119.7 378.3 113.6V63.8001C378.3 58.5001 377.4 57.9001 374.6 57.1001C372.1 56.4001 369.3 57.1001 369.3 55.1001C369.3 52.6001 372.8 53.0001 380.1 49.1001C390.2 43.6001 389.2 41.6001 391.5 41.6001C392.6 41.6001 392.9 42.3001 392.9 44.4001V56.7001H393.3C399.2 49.6001 404 42.7001 414.3 42.7001C425.3 42.7001 433.8 48.7001 433.8 65.1001V115.9C433.8 119.5 435.4 121.6 439.7 122.3C443.3 123 443.8 123.7 443.8 125.1C443.8 125.8 442.9 126.5 441.5 126.5C439.4 126.5 435.3 125.8 426.2 125.8C421.9 125.8 417.5 126.5 413.2 126.5C411.1 126.5 410 126 410 124.7C410 123.3 410.5 122.9 413 122.2C418.3 120.6 419.2 119.7 419.2 115.8V66.1001H419.1Z" fill="#313235"/>
<path d="M74.5008 160.1C74.5008 161.6 74.5008 161.6 76.1008 161.6H86.6008C88.2008 161.6 88.3008 161.6 88.3008 160.1V153.3C88.3008 151.3 88.3008 150 85.9008 149.9C84.8008 149.8 84.2008 149.8 84.2008 149.1C84.2008 148.4 84.9008 148.4 85.3008 148.4C86.9008 148.4 88.4008 148.6 90.9008 148.6C93.2008 148.6 94.9008 148.4 96.6008 148.4C97.0008 148.4 97.6008 148.4 97.6008 149.1C97.6008 149.8 96.9008 149.8 95.9008 149.9C93.5008 150 93.5008 151.3 93.5008 153.3V173.8C93.5008 175.8 93.5008 177.1 95.9008 177.3C96.9008 177.3 97.6008 177.4 97.6008 178.1C97.6008 178.8 97.0008 178.8 96.6008 178.8C95.8008 178.8 94.3008 178.6 90.9008 178.6C88.0008 178.6 85.8008 178.8 85.2008 178.8C84.8008 178.8 84.2008 178.8 84.2008 178.1C84.2008 177.4 84.9008 177.4 85.9008 177.3C88.3008 177.1 88.3008 175.8 88.3008 173.9V164.5C88.3008 163.3 88.1008 163.3 86.7008 163.3H76.4008C74.7008 163.3 74.6008 163.3 74.6008 164.4V173.8C74.6008 175.8 74.6008 177.1 77.0008 177.3C78.1008 177.3 78.7008 177.4 78.7008 178.1C78.7008 178.8 78.1008 178.8 77.7008 178.8C77.0008 178.8 75.7008 178.6 72.0008 178.6C69.0008 178.6 67.2008 178.8 66.3008 178.8C65.9008 178.8 65.3008 178.8 65.3008 178.1C65.3008 177.4 66.0008 177.4 67.0008 177.3C69.4008 177.1 69.4008 175.8 69.4008 173.9V153.3C69.4008 151.3 69.4008 150 67.0008 149.9C66.0008 149.8 65.3008 149.8 65.3008 149.1C65.3008 148.4 65.8008 148.4 66.4008 148.4C67.9008 148.4 69.6008 148.6 72.0008 148.6C74.4008 148.6 76.3008 148.4 77.7008 148.4C78.1008 148.4 78.7008 148.4 78.7008 149.1C78.7008 149.8 78.0008 149.8 77.0008 149.9C74.6008 150 74.6008 151.3 74.6008 153.3V160.1H74.5008Z" fill="#313235"/>
<path d="M103.799 153.2C103.799 151.2 103.799 149.9 101.399 149.8C100.299 149.8 99.6992 149.7 99.6992 149C99.6992 148.3 100.299 148.3 100.699 148.3C100.799 148.3 100.799 148.3 101.899 148.4C102.999 148.4 105.099 148.5 109.199 148.5H111.499C116.499 148.5 118.999 148.5 120.299 148.4C121.599 148.4 121.599 148.3 121.799 148.3C122.399 148.3 122.399 148.7 122.399 149.8V154.3C122.399 154.5 122.399 155.1 121.899 155.1C121.399 155.1 121.299 154.9 120.399 153.1C119.799 151.8 118.699 150 111.799 150C109.399 150 109.199 150.3 109.199 152.8V159.8C109.199 161.4 109.199 161.7 111.999 161.7C117.399 161.7 117.799 160.6 118.699 158.1C118.899 157.5 119.199 157.4 119.399 157.4C119.699 157.4 119.899 157.5 119.899 158.1C119.899 158.8 119.599 163.8 119.599 164.8C119.599 165.1 119.699 166.8 119.699 167.2C119.699 167.5 119.699 168.2 119.099 168.2C118.699 168.2 118.399 168 118.199 167C117.199 163.3 115.799 163.2 111.899 163.2C109.599 163.2 109.199 163.2 109.199 164.7V173C109.199 176.4 110.199 177 114.299 177C116.399 177 119.399 177 121.599 172.9C122.499 171.2 122.599 171 122.999 171C123.399 171 123.599 171.4 123.599 171.7C123.599 172.3 123.099 175.4 122.899 177.2C122.899 178.1 122.399 178.7 120.999 178.7C118.499 178.7 115.099 178.7 112.299 178.6C109.499 178.6 107.299 178.5 106.999 178.5H106.399C104.399 178.5 103.199 178.5 102.399 178.6C101.599 178.6 101.199 178.7 100.899 178.7C100.499 178.7 99.8992 178.7 99.8992 178C99.8992 177.3 100.599 177.3 101.599 177.2C103.999 177.1 103.999 175.7 103.999 173.8V153.2H103.799Z" fill="#313235"/>
<path d="M138.799 165.6C139.899 165.6 139.899 165.4 139.899 165.3C139.899 165.1 139.799 164.7 139.599 164.4L136.199 156.1L133.199 164.3C133.199 164.4 132.999 164.9 132.999 165.2C132.999 165.7 133.299 165.7 134.199 165.7H138.799V165.6ZM133.699 167.4C132.199 167.4 132.199 167.4 131.899 168.7L130.299 173.9C130.299 174 129.899 175.4 129.899 175.9C129.899 177.1 131.099 177.2 132.199 177.3C133.499 177.3 133.999 177.5 133.999 178.1C133.999 178.8 133.399 178.8 132.299 178.8C131.799 178.8 128.999 178.6 127.599 178.6C127.099 178.6 124.199 178.8 123.599 178.8C123.299 178.8 122.699 178.8 122.699 178.1C122.699 177.5 123.399 177.4 124.199 177.3C125.799 177.2 126.199 177.1 127.199 175.4C128.799 172.4 132.999 161.1 136.199 152.7C137.999 148 137.999 147.9 138.499 147.9C138.999 147.9 139.199 148.2 139.899 150.2C140.399 151.6 140.899 152.9 141.299 153.8L148.899 172.2C150.499 175.9 150.899 177 152.899 177.3C153.699 177.4 154.299 177.5 154.299 178.1C154.299 178.7 153.499 178.7 153.199 178.7C152.399 178.7 148.399 178.5 147.499 178.5C144.499 178.5 141.999 178.7 141.899 178.7C141.399 178.7 140.799 178.7 140.799 178C140.799 177.4 141.599 177.2 142.499 177.1C143.799 177 144.199 176.8 144.199 176C144.199 175.5 143.999 174.8 143.899 174.6L141.799 168.8C141.299 167.3 141.099 167.3 139.799 167.3H133.699V167.4Z" fill="#313235"/>
<path d="M158.601 153.2C158.601 151.2 158.601 149.9 156.101 149.8C155.101 149.8 154.401 149.7 154.401 149C154.401 148.3 155.001 148.3 155.401 148.3C156.201 148.3 158.801 148.5 161.301 148.5C164.401 148.5 166.101 148.3 167.001 148.3C167.401 148.3 168.001 148.3 168.001 149C168.001 149.7 167.301 149.8 166.301 149.8C163.801 149.9 163.701 151.3 163.701 153.1V172.4C163.701 175.5 164.601 177.1 167.601 177.1C169.901 177.1 173.401 176.6 176.001 171.8C176.201 171.4 176.401 171.2 176.701 171.2C177.201 171.2 177.301 171.6 177.301 172C177.301 172.4 176.701 176.7 176.601 177.5C176.501 178.4 176.301 178.7 175.401 178.7C175.001 178.7 175.001 178.5 164.001 178.5C155.801 178.5 155.801 178.7 155.301 178.7C155.001 178.7 154.301 178.7 154.301 178C154.301 177.3 155.001 177.3 156.001 177.2C158.501 177.1 158.501 175.7 158.501 173.7V153.2H158.601Z" fill="#313235"/>
<path d="M190.5 173.7C190.5 175.7 190.5 177 192.9 177.1C193.9 177.1 194.6 177.2 194.6 177.9C194.6 178.6 194 178.6 193.6 178.6C192 178.6 189.5 178.4 187.9 178.4C187.1 178.4 183.1 178.6 182.2 178.6C181.8 178.6 181.2 178.6 181.2 177.9C181.2 177.2 181.9 177.2 182.9 177.1C185.3 177 185.3 175.6 185.3 173.8V151.3C185.3 150 184.9 150 183.9 150C181 150 177.8 150 175.3 154.6C174.9 155.4 174.6 155.6 174.2 155.6C173.8 155.6 173.6 155.3 173.6 155C173.6 154.8 173.7 154.5 173.7 154.2L175.7 147.4C175.8 146.8 176 146.5 176.4 146.5C176.8 146.5 176.9 146.7 177 147.2C177.2 148.5 178.1 148.6 179.2 148.6H194.8C199.8 148.6 200 148 200.4 147.1C200.5 146.7 200.7 146.4 201.1 146.4C201.8 146.4 201.8 147.2 201.8 148.3L201.5 154.2C201.5 155.2 201.4 155.8 200.7 155.8C200.5 155.8 200.1 155.8 199.9 154.7C199.1 150 196.7 150 193.6 150C190.8 150 190.6 150 190.6 151.6V173.7H190.5Z" fill="#313235"/>
<path d="M212.1 160.1C212.1 161.6 212.1 161.6 213.7 161.6H224.2C225.8 161.6 225.9 161.6 225.9 160.1V153.3C225.9 151.3 225.9 150 223.5 149.9C222.4 149.8 221.8 149.8 221.8 149.1C221.8 148.4 222.5 148.4 222.9 148.4C224.4 148.4 226 148.6 228.5 148.6C230.8 148.6 232.5 148.4 234.2 148.4C234.6 148.4 235.2 148.4 235.2 149.1C235.2 149.8 234.5 149.8 233.5 149.9C231.1 150 231.1 151.3 231.1 153.3V173.8C231.1 175.8 231.1 177.1 233.5 177.3C234.5 177.3 235.2 177.4 235.2 178.1C235.2 178.8 234.6 178.8 234.2 178.8C233.4 178.8 231.9 178.6 228.5 178.6C225.6 178.6 223.4 178.8 222.8 178.8C222.4 178.8 221.8 178.8 221.8 178.1C221.8 177.4 222.5 177.4 223.5 177.3C225.9 177.1 225.9 175.8 225.9 173.9V164.5C225.9 163.3 225.7 163.3 224.3 163.3H214C212.3 163.3 212.2 163.3 212.2 164.4V173.8C212.2 175.8 212.2 177.1 214.6 177.3C215.7 177.3 216.3 177.4 216.3 178.1C216.3 178.8 215.7 178.8 215.3 178.8C214.6 178.8 213.3 178.6 209.6 178.6C206.6 178.6 204.8 178.8 203.9 178.8C203.5 178.8 202.9 178.8 202.9 178.1C202.9 177.4 203.6 177.4 204.6 177.3C207 177.1 207 175.8 207 173.9V153.3C207 151.3 207 150 204.6 149.9C203.6 149.8 202.9 149.8 202.9 149.1C202.9 148.4 203.4 148.4 204 148.4C205.5 148.4 207.2 148.6 209.6 148.6C212 148.6 213.9 148.4 215.3 148.4C215.7 148.4 216.3 148.4 216.3 149.1C216.3 149.8 215.6 149.8 214.6 149.9C212.2 150 212.2 151.3 212.2 153.3V160.1H212.1Z" fill="#313235"/>
<path d="M258.7 179C254.9 179 251.9 177.7 251 177.1C250.5 176.7 250.4 176 250.4 174.8C250.4 174.6 250.4 172.2 250.5 170.4C250.5 170.2 250.5 169.5 251.1 169.5C251.5 169.5 251.7 169.9 251.8 170.3C252.7 174.6 256 177.7 259.5 177.7C261.5 177.7 265.3 176.2 265.3 172.3C265.3 168.5 262 166.7 258.5 165.1C254.6 163.4 250.7 161.5 250.7 156.3C250.7 151.8 254.1 148 260.2 148C263 148 265.9 148.8 266.6 149.1C267.2 149.4 267.2 149.9 267.2 154.1C267.2 155.2 267.2 155.6 266.5 155.6C266 155.6 265.8 155.3 265.3 153.8C264.7 151.9 263.8 149.1 259.8 149.1C255.8 149.1 254.5 151.9 254.5 153.8C254.5 157.2 257.3 158.5 261.2 160.1C263.9 161.3 269 163.6 269 169.1C269.2 174.5 265.2 179 258.7 179Z" fill="#313235"/>
<path d="M275.8 153.2C273.6 150 272.5 149.9 271.9 149.8C270.1 149.6 269.9 149.6 269.9 148.9C269.9 148.2 270.5 148.2 271.5 148.2C272.6 148.2 273.3 148.4 277 148.4C281.6 148.4 282.6 148.2 283.1 148.2C283.8 148.2 284.4 148.2 284.4 148.9C284.4 149.5 283.9 149.7 282.4 149.7C281.1 149.7 280.7 150 280.7 150.5C280.7 150.8 280.7 151 281.6 152.4L288.6 162.9L294.2 154.4C294.5 153.9 295.8 151.9 295.8 151C295.8 149.8 294.8 149.8 293.1 149.7C292.8 149.7 291.9 149.7 291.9 149C291.9 148.3 292.8 148.3 293.3 148.3C294.4 148.3 295.2 148.5 298 148.5C299.8 148.5 301.8 148.3 302.2 148.3C302.7 148.3 303 148.5 303 149C303 149.5 302.3 149.7 302 149.7C299.8 149.7 298.8 150.8 295.9 154.9L289.9 163.9C289.7 164.1 289.6 164.4 289.6 165V173.7C289.6 175.7 289.6 177 292 177.1C293.1 177.1 293.7 177.2 293.7 178C293.7 178.7 293.1 178.7 292.7 178.7C291.3 178.7 289.1 178.5 287.5 178.5C284.4 178.5 281.5 178.7 281.2 178.7C280.8 178.7 280.2 178.7 280.2 178C280.2 177.3 280.9 177.3 281.9 177.2C284.3 177 284.3 175.7 284.3 173.8V166.3C284.3 166 284.3 165.6 283.9 165.1L275.8 153.2Z" fill="#313235"/>
<path d="M312.101 179C308.301 179 305.301 177.7 304.401 177.1C303.901 176.7 303.801 176 303.801 174.8C303.801 174.6 303.801 172.2 303.901 170.4C303.901 170.2 303.901 169.5 304.501 169.5C304.901 169.5 305.101 169.9 305.201 170.3C306.101 174.6 309.401 177.7 312.901 177.7C314.901 177.7 318.701 176.2 318.701 172.3C318.701 168.5 315.401 166.7 311.901 165.1C308.001 163.4 304.101 161.5 304.101 156.3C304.101 151.8 307.501 148 313.701 148C316.501 148 319.401 148.8 320.001 149.1C320.601 149.4 320.601 149.9 320.601 154.1C320.601 155.2 320.601 155.6 319.901 155.6C319.401 155.6 319.201 155.3 318.701 153.8C318.101 151.9 317.201 149.1 313.201 149.1C309.201 149.1 307.901 151.9 307.901 153.8C307.901 157.2 310.701 158.5 314.601 160.1C317.301 161.3 322.401 163.6 322.401 169.1C322.501 174.5 318.601 179 312.101 179Z" fill="#313235"/>
<path d="M340.8 173.7C340.8 175.7 340.8 177 343.2 177.1C344.2 177.1 344.9 177.2 344.9 177.9C344.9 178.6 344.3 178.6 343.9 178.6C342.3 178.6 339.8 178.4 338.2 178.4C337.4 178.4 333.4 178.6 332.5 178.6C332.1 178.6 331.5 178.6 331.5 177.9C331.5 177.2 332.2 177.2 333.2 177.1C335.6 177 335.6 175.6 335.6 173.8V151.3C335.6 150 335.2 150 334.2 150C331.3 150 328.1 150 325.6 154.6C325.2 155.4 324.9 155.6 324.5 155.6C324.1 155.6 323.9 155.3 323.9 155C323.9 154.8 324 154.5 324 154.2L326 147.4C326.1 146.8 326.3 146.5 326.7 146.5C327.1 146.5 327.2 146.7 327.3 147.2C327.5 148.5 328.4 148.6 329.5 148.6H345.1C350.1 148.6 350.3 148 350.7 147.1C350.8 146.7 351 146.4 351.4 146.4C352.1 146.4 352.1 147.2 352.1 148.3L351.8 154.2C351.8 155.2 351.7 155.8 351 155.8C350.8 155.8 350.4 155.8 350.2 154.7C349.4 150 347 150 343.9 150C341.1 150 340.9 150 340.9 151.6V173.7H340.8Z" fill="#313235"/>
<path d="M357.799 153.2C357.799 151.2 357.799 149.9 355.399 149.8C354.299 149.8 353.699 149.7 353.699 149C353.699 148.3 354.299 148.3 354.699 148.3C354.799 148.3 354.799 148.3 355.899 148.4C356.999 148.4 359.099 148.5 363.199 148.5H365.499C370.499 148.5 372.999 148.5 374.299 148.4C375.599 148.4 375.599 148.3 375.799 148.3C376.399 148.3 376.399 148.7 376.399 149.8V154.3C376.399 154.5 376.399 155.1 375.899 155.1C375.399 155.1 375.299 154.9 374.399 153.1C373.799 151.8 372.699 150 365.799 150C363.399 150 363.199 150.3 363.199 152.8V159.8C363.199 161.4 363.199 161.7 365.999 161.7C371.399 161.7 371.799 160.6 372.699 158.1C372.899 157.5 373.199 157.4 373.399 157.4C373.699 157.4 373.899 157.5 373.899 158.1C373.899 158.8 373.599 163.8 373.599 164.8C373.599 165.1 373.699 166.8 373.699 167.2C373.699 167.5 373.699 168.2 373.099 168.2C372.699 168.2 372.399 168 372.199 167C371.199 163.3 369.799 163.2 365.899 163.2C363.599 163.2 363.199 163.2 363.199 164.7V173C363.199 176.4 364.199 177 368.299 177C370.399 177 373.399 177 375.599 172.9C376.499 171.2 376.599 171 376.999 171C377.399 171 377.599 171.4 377.599 171.7C377.599 172.3 377.099 175.4 376.899 177.2C376.899 178.1 376.399 178.7 374.999 178.7C372.499 178.7 369.099 178.7 366.299 178.6C363.499 178.6 361.299 178.5 360.999 178.5H360.399C358.399 178.5 357.199 178.5 356.399 178.6C355.599 178.6 355.199 178.7 354.899 178.7C354.499 178.7 353.899 178.7 353.899 178C353.899 177.3 354.599 177.3 355.599 177.2C357.999 177.1 357.999 175.7 357.999 173.8V153.2H357.799Z" fill="#313235"/>
<path d="M397.099 176.4C396.699 177.6 396.499 178 395.899 178C395.399 178 395.099 177.6 394.799 176.8L385.199 153.5H385.099C384.799 158.9 384.399 164.4 384.399 169.4C384.399 177 384.799 177.3 387.299 177.3C388.399 177.3 389.199 177.3 389.199 178C389.199 178.7 388.299 178.7 387.799 178.7C387.099 178.7 385.499 178.5 383.399 178.5C381.699 178.5 379.799 178.7 378.999 178.7C378.699 178.7 378.199 178.6 378.199 178.1C378.199 177.5 378.699 177.4 379.999 177.2C381.599 177 382.299 176.7 382.399 173.3C382.399 173 383.399 158.7 383.399 152.3C383.399 149.9 383.299 149.9 381.099 149.9C379.499 149.9 379.199 149.6 379.199 149C379.199 148.6 379.499 148.4 380.299 148.4C380.799 148.4 383.499 148.6 384.799 148.6C386.499 148.6 387.599 148.4 388.099 148.4C388.599 148.4 388.999 148.4 389.499 149.6L397.699 169.8L405.399 150.1C405.999 148.5 406.599 148.4 407.299 148.4C408.399 148.4 410.299 148.6 411.299 148.6C412.399 148.6 413.699 148.4 414.199 148.4C414.699 148.4 415.399 148.4 415.399 149C415.399 149.6 414.999 149.6 413.599 149.7C411.299 149.8 411.199 150.5 411.299 153L411.999 173.6C412.099 176.6 412.099 177.3 414.299 177.3C415.299 177.3 415.799 177.5 415.799 178C415.799 178.7 414.999 178.7 414.499 178.7C413.799 178.7 411.199 178.5 409.399 178.5C406.999 178.5 404.399 178.7 403.399 178.7C403.099 178.7 402.499 178.7 402.499 178.1C402.499 177.4 402.899 177.4 404.399 177.3C406.599 177.1 406.699 175.9 406.599 173.6L406.199 152.7H406.099L397.099 176.4Z" fill="#313235"/>
</g>
<defs>
<clipPath id="clip0_2_1584">
<rect width="443.8" height="179" fill="white"/>
</clipPath>
</defs>
</svg>
