<svg width="596" height="156" viewBox="0 0 596 156" fill="none" xmlns="http://www.w3.org/2000/svg">
<g clip-path="url(#clip0_2_1825)">
<path d="M96.2853 22.5931C96.2853 22.5931 97.899 24.2069 99.5127 25.8207C100.589 27.9724 102.202 31.7379 103.816 34.9655C105.43 38.1931 108.119 42.4965 109.195 44.1103C109.195 44.1103 110.809 45.1862 109.195 47.8759C108.657 48.9517 107.043 52.1793 108.657 53.2552C110.271 54.869 112.96 57.0207 116.188 61.8621C119.415 66.1655 121.029 68.8552 122.643 70.469C123.718 72.0828 122.643 74.7724 121.029 75.3103C119.415 76.3862 115.65 75.8483 115.65 78C115.65 80.1517 115.65 81.7655 116.188 83.3793C116.188 84.9931 115.65 86.6069 115.112 87.1448C115.112 87.6828 116.726 89.2965 116.726 90.3724C116.726 91.4483 115.65 93.6 115.65 94.6759C115.65 95.7517 119.415 100.055 118.877 103.283C117.802 106.51 116.188 108.662 113.498 109.738C110.271 110.814 109.733 109.738 105.43 110.814C101.126 111.89 95.7474 112.966 95.7474 112.966L96.2853 107.048C96.2853 107.048 86.0651 102.207 65.6246 100.593C41.9568 98.4414 31.1986 107.586 31.1986 107.586V109.2C31.1986 109.2 26.8954 108.662 24.2059 107.586C21.5163 107.048 20.9784 105.972 19.9026 104.359C17.751 100.593 19.9026 93.0621 17.2131 88.7586C14.5235 84.4552 10.2203 79.6138 11.2961 71.5448C12.3719 63.4759 14.5235 58.6345 14.5235 58.6345C14.5235 58.6345 13.4477 54.869 13.9856 51.6414C16.1373 40.8828 17.751 43.0345 18.2889 37.6552C19.3647 32.2759 23.6679 24.7448 25.8196 22.0552C28.5091 19.3655 28.5091 14.5241 33.3503 9.68276C36.5777 6.45517 44.6463 0.537931 54.8665 0C61.8593 0 69.9279 2.68966 72.6174 3.22759C75.3069 3.76552 79.0723 2.68966 84.4513 6.45517C89.8304 9.68276 91.982 11.8345 94.1336 12.9103C96.2853 13.9862 97.3611 15.6 97.899 17.7517C98.4369 19.9034 96.2853 22.5931 96.2853 22.5931Z" fill="url(#paint0_radial_2_1825)"/>
<path d="M93.5945 116.193L102.739 147.931L93.0565 145.241L91.9807 156C91.9807 156 80.6847 141.476 64.5475 133.945C47.3345 125.876 28.5078 130.179 28.5078 130.179L29.5836 106.51C29.5836 106.51 46.2587 103.821 66.1612 110.814C84.988 117.807 91.9807 130.179 91.9807 130.179L93.5945 116.193Z" fill="url(#paint1_radial_2_1825)"/>
<path d="M25.8192 112.428C25.8192 112.428 23.6676 112.428 20.4401 111.352C17.7506 110.276 16.1369 108.662 16.1369 108.662C16.1369 108.662 2.68924 115.117 3.76506 126.414C4.30296 133.407 4.84087 135.021 3.22715 139.324C1.61343 143.09 -0.538193 147.393 0.537619 147.931C1.61343 149.007 10.2199 146.317 16.6748 140.4C22.5918 135.021 24.7434 130.717 24.7434 130.717L25.8192 112.428Z" fill="url(#paint2_radial_2_1825)"/>
<path d="M152.227 96.8272C154.378 97.3652 155.992 97.9031 159.219 97.9031C168.364 97.9031 168.364 90.3721 168.364 85.5307V34.4272H182.349V92.5238C182.349 100.055 177.508 110.276 162.985 110.276C159.219 110.276 155.992 109.738 152.227 109.2V96.8272Z" fill="#313235"/>
<path d="M227.534 78C226.996 71.5448 224.306 65.6276 216.776 65.6276C209.245 65.6276 205.48 71.0069 204.942 78H227.534ZM236.678 105.972C231.837 108.662 225.92 110.276 218.927 110.276C201.714 110.276 191.494 100.593 191.494 83.3793C191.494 68.3172 199.563 55.9448 215.7 55.9448C235.065 55.9448 240.444 69.3931 240.444 87.1448H204.404C204.942 95.7517 210.859 100.055 219.465 100.055C225.92 100.055 231.837 97.3655 236.678 94.6759V105.972Z" fill="#313235"/>
<path d="M254.429 66.7033H244.209V57.0206H254.429V49.4895C254.429 39.2688 260.346 31.7378 271.104 31.7378C274.332 31.7378 278.635 32.2757 280.787 32.8137L279.711 44.1102C278.635 43.5723 277.021 42.4964 273.794 42.4964C269.491 42.4964 267.877 46.2619 267.877 50.5654V57.0206H279.711V66.7033H267.877V108.662H254.429V66.7033Z" fill="#313235"/>
<path d="M292.621 66.7033H282.4V57.0206H292.621V49.4895C292.621 39.2688 298.538 31.7378 309.296 31.7378C312.523 31.7378 316.826 32.2757 318.978 32.8137L317.902 44.1102C316.826 43.5723 315.213 42.4964 311.985 42.4964C307.682 42.4964 306.068 46.2619 306.068 50.5654V57.0206H317.902V66.7033H306.068V108.662H292.621V66.7033Z" fill="#313235"/>
<path d="M357.169 78C356.631 71.5448 353.941 65.6276 345.873 65.6276C338.342 65.6276 334.577 71.0069 334.039 78H357.169ZM366.313 105.972C361.472 108.662 355.555 110.276 348.562 110.276C331.349 110.276 321.129 100.593 321.129 83.3793C321.129 68.3172 329.197 55.9448 345.335 55.9448C364.699 55.9448 370.078 69.3931 370.078 87.1448H334.039C334.577 95.7517 340.494 100.055 349.1 100.055C355.555 100.055 361.472 97.3655 366.313 94.6759V105.972Z" fill="#313235"/>
<path d="M377.072 57.0207H388.906V68.8552C389.444 64.0138 394.823 55.9448 403.43 55.9448C404.505 55.9448 406.119 55.9448 407.733 56.4828V69.931C406.657 69.3931 403.968 68.8552 401.816 68.8552C391.058 68.8552 391.058 82.8414 391.058 89.8345V109.2H377.61L377.072 57.0207Z" fill="#313235"/>
<path d="M446.998 67.7793C442.695 66.1655 440.006 65.6276 434.626 65.6276C430.861 65.6276 426.558 66.7034 426.558 71.5448C426.558 79.6138 450.226 74.7724 450.226 93.6C450.226 105.972 439.468 110.814 428.172 110.814C422.792 110.814 417.951 109.738 412.572 108.662L413.648 97.3655C417.951 99.5172 422.255 100.593 427.096 100.593C430.323 100.593 436.24 99.5172 436.24 94.1379C436.24 83.9172 412.572 90.9103 412.572 72.0828C412.572 60.7862 422.255 55.9448 433.013 55.9448C439.468 55.9448 443.771 57.0207 447.536 58.0966L446.998 67.7793Z" fill="#313235"/>
<path d="M483.039 99.5171C493.259 99.5171 495.948 90.3723 495.948 81.7654C495.948 73.6964 491.645 66.1654 483.039 66.1654C474.432 66.1654 470.129 73.6964 470.129 81.7654C470.129 90.3723 472.818 99.5171 483.039 99.5171ZM483.039 55.4067C498.638 55.4067 510.472 65.6274 510.472 82.8412C510.472 97.9033 500.252 109.738 483.039 109.738C465.826 109.738 455.605 97.9033 455.605 82.8412C456.143 66.1654 467.977 55.4067 483.039 55.4067Z" fill="#313235"/>
<path d="M519.078 57.0207H531.988V64.0138C536.291 58.0965 542.208 55.9448 549.201 55.9448C561.573 55.9448 566.952 64.5517 566.952 76.3862V109.2H553.504V81.2276C553.504 74.7724 553.504 66.1655 544.898 66.1655C535.215 66.1655 533.064 76.9241 533.064 83.3793V108.662H519.616L519.078 57.0207Z" fill="#313235"/>
<path d="M585.242 88.7588C591.159 88.7588 596 93.6002 596 99.5174C596 105.435 591.159 110.276 585.242 110.276C579.325 110.276 575.021 105.435 575.021 99.5174C574.483 93.6002 579.325 88.7588 585.242 88.7588ZM585.242 108.124C590.083 108.124 593.31 104.359 593.31 99.5174C593.31 94.676 589.545 90.9105 585.242 90.9105C580.4 90.9105 577.173 94.676 577.173 99.5174C577.173 104.359 580.4 108.124 585.242 108.124ZM581.476 94.1381H585.779C587.931 94.1381 589.545 95.7519 589.545 97.3657C589.545 98.9795 588.469 100.055 587.393 100.055C587.393 100.055 587.393 100.055 587.931 100.593L590.083 104.359H587.393L585.779 100.593H584.166V104.359H581.476V94.1381ZM585.242 98.9795C586.317 98.9795 586.855 98.4415 586.855 97.3657C586.855 96.2898 586.317 95.7519 585.242 95.7519H583.628V98.9795H585.242Z" fill="#313235"/>
</g>
<defs>
<radialGradient id="paint0_radial_2_1825" cx="0" cy="0" r="1" gradientUnits="userSpaceOnUse" gradientTransform="translate(115.745 62.5146) scale(94.3584 94.3628)">
<stop stop-color="#C4C6C8"/>
<stop offset="0.1701" stop-color="#BCBEC0"/>
<stop offset="0.4431" stop-color="#A5A6A8"/>
<stop offset="0.783" stop-color="#7F8082"/>
<stop offset="1" stop-color="#636466"/>
</radialGradient>
<radialGradient id="paint1_radial_2_1825" cx="0" cy="0" r="1" gradientUnits="userSpaceOnUse" gradientTransform="translate(115.107 62.5136) scale(94.3643 94.3687)">
<stop stop-color="#C4C6C8"/>
<stop offset="0.1701" stop-color="#BCBEC0"/>
<stop offset="0.4431" stop-color="#A5A6A8"/>
<stop offset="0.783" stop-color="#7F8082"/>
<stop offset="1" stop-color="#636466"/>
</radialGradient>
<radialGradient id="paint2_radial_2_1825" cx="0" cy="0" r="1" gradientUnits="userSpaceOnUse" gradientTransform="translate(115.108 62.5292) scale(94.3541 94.3585)">
<stop stop-color="#C4C6C8"/>
<stop offset="0.1701" stop-color="#BCBEC0"/>
<stop offset="0.4431" stop-color="#A5A6A8"/>
<stop offset="0.783" stop-color="#7F8082"/>
<stop offset="1" stop-color="#636466"/>
</radialGradient>
<clipPath id="clip0_2_1825">
<rect width="596" height="156" fill="white"/>
</clipPath>
</defs>
</svg>
