<svg width="371" height="184" viewBox="0 0 371 184" fill="none" xmlns="http://www.w3.org/2000/svg">
<g clip-path="url(#clip0_2_1961)">
<path d="M3.40039 2.0002C3.40039 1.3002 3.90039 0.700195 4.70039 0.700195H10.9004C11.6004 0.700195 12.2004 1.3002 12.2004 2.0002V40.1002H29.5004C30.2004 40.1002 30.8004 40.7002 30.8004 41.4002V47.0002C30.8004 47.7002 30.3004 48.3002 29.5004 48.3002H4.70039C4.00039 48.3002 3.40039 47.7002 3.40039 47.0002V2.0002Z" fill="#313235"/>
<path d="M38.7992 2.0002C38.7992 1.3002 39.3992 0.700195 40.0992 0.700195H46.4992C47.1992 0.700195 47.7992 1.3002 47.7992 2.0002V29.8002C47.7992 35.6002 51.6992 40.1002 57.5992 40.1002C63.4992 40.1002 67.4992 35.6002 67.4992 29.8002V2.0002C67.4992 1.3002 67.9992 0.700195 68.7992 0.700195H75.1992C75.8992 0.700195 76.4992 1.3002 76.4992 2.0002V30.2002C76.4992 40.5002 68.2992 48.9002 57.5992 48.9002C46.8992 48.9002 38.6992 40.6002 38.6992 30.2002L38.7992 2.0002Z" fill="#313235"/>
<path d="M90.6992 2.0002C90.6992 1.3002 91.1992 0.700195 91.8992 0.700195H107.999C121.099 0.700195 131.799 11.4002 131.799 24.4002C131.799 37.6002 121.099 48.2002 107.999 48.2002H91.8992C91.1992 48.2002 90.6992 47.6002 90.6992 46.9002V2.0002ZM107.199 40.0002C115.999 40.0002 122.499 33.3002 122.499 24.5002C122.499 15.7002 116.099 9.0002 107.199 9.0002H99.4992V40.0002H107.199Z" fill="#313235"/>
<path d="M138.199 2.4002C137.899 1.4002 138.499 0.800195 139.399 0.800195H145.599C146.099 0.800195 146.699 1.3002 146.799 1.8002L153.899 28.9002H154.199L164.999 0.900195C165.099 0.500195 165.499 0.200195 166.199 0.200195H167.399C168.099 0.200195 168.399 0.500195 168.599 0.900195L179.499 28.9002H179.799L186.699 1.8002C186.799 1.3002 187.399 0.800195 187.899 0.800195H194.099C195.099 0.800195 195.599 1.5002 195.299 2.4002L182.499 48.0002C182.399 48.5002 181.799 49.0002 181.299 49.0002H180.199C179.599 49.0002 179.199 48.7002 178.999 48.3002L166.799 17.5002H166.499L154.499 48.3002C154.299 48.7002 153.999 49.0002 153.299 49.0002H152.199C151.699 49.0002 151.099 48.6002 150.999 48.0002L138.199 2.4002Z" fill="#313235"/>
<path d="M207.5 2.0002C207.5 1.3002 208.1 0.700195 208.8 0.700195H215.1C215.8 0.700195 216.4 1.3002 216.4 2.0002V46.9002C216.4 47.6002 215.8 48.2002 215.1 48.2002H208.8C208.1 48.2002 207.5 47.6002 207.5 46.9002V2.0002Z" fill="#313235"/>
<path d="M253.1 0C259.2 0 265 2.4 269.7 6.3C270.2 6.8 270.299 7.7 269.799 8.2L265.6 12.6C265.1 13.1 264.399 13.1 263.799 12.6C260.899 10 257.3 8.7 253.5 8.7C245 8.7 238.3 16 238.3 24.5C238.3 32.9 245 40 253.6 40C257.4 40 260.3 38.8 261.7 38.3V32.5H256.299C255.599 32.5 255 32 255 31.3V25.9C255 25.2 255.499 24.6 256.299 24.6H269.299C269.999 24.6 270.5 25.2 270.5 25.9V43.3C270.5 43.8 270.2 44.2 270 44.4C270 44.4 263 48.8 253.2 48.8C239.7 48.8 228.8 38.1 228.8 24.5C228.7 11 239.6 0 253.1 0Z" fill="#313235"/>
<path d="M24.5 67.2998C31.4 67.2998 36.3 69.4998 40.9 73.5998C41.5 74.0998 41.5 74.9998 41 75.4998L36.9 79.7998C36.4 80.2998 35.7 80.2998 35.2 79.7998C32.3 77.2998 28.5 75.7998 24.7 75.7998C16 75.7998 9.6 83.0998 9.6 91.5998C9.6 100.1 16.1 107.3 24.8 107.3C28.9 107.3 32.3 105.7 35.2 103.4C35.7 102.9 36.5 103 36.9 103.4L41.1 107.7C41.6 108.2 41.5 109.1 41 109.5C36.4 114 30.5 116.1 24.5 116.1C10.9 116.1 0 105.3 0 91.6998C0 78.0998 10.9 67.2998 24.5 67.2998Z" fill="#313235"/>
<path d="M49.1993 113.8L70.2993 68.0999C70.4993 67.6999 70.7993 67.3999 71.4993 67.3999H72.1993C72.8993 67.3999 73.1993 67.6999 73.3993 68.0999L94.2993 113.8C94.6993 114.7 94.1993 115.6 93.0993 115.6H87.1993C86.1993 115.6 85.6993 115.2 85.1993 114.2L81.8993 106.9H61.5993L58.2993 114.2C57.9993 114.9 57.3993 115.6 56.2993 115.6H50.3993C49.2993 115.5 48.7993 114.6 49.1993 113.8ZM78.4993 99.2999L71.6993 84.3999H71.4993L64.7993 99.2999H78.4993Z" fill="#313235"/>
<path d="M104.799 68.4998C104.799 67.7998 105.399 67.2998 106.099 67.2998H107.799L135.999 97.2998H136.099V69.2998C136.099 68.5998 136.599 67.9998 137.399 67.9998H143.599C144.299 67.9998 144.899 68.5998 144.899 69.2998V115C144.899 115.7 144.299 116.2 143.599 116.2H141.999L113.599 84.9998H113.499V114.2C113.499 114.9 112.999 115.5 112.199 115.5H105.999C105.299 115.5 104.699 114.9 104.699 114.2V68.4998H104.799Z" fill="#313235"/>
<path d="M182.1 67.2998C189 67.2998 193.9 69.4998 198.5 73.5998C199.1 74.0998 199.1 74.9998 198.6 75.4998L194.5 79.7998C194 80.2998 193.3 80.2998 192.8 79.7998C189.9 77.2998 186.1 75.7998 182.3 75.7998C173.6 75.7998 167.2 83.0998 167.2 91.5998C167.2 100.1 173.7 107.3 182.4 107.3C186.5 107.3 189.9 105.7 192.8 103.4C193.3 102.9 194.1 103 194.5 103.4L198.7 107.7C199.2 108.2 199.1 109.1 198.6 109.5C194 114 188.1 116.1 182.1 116.1C168.5 116.1 157.6 105.3 157.6 91.6998C157.6 78.0998 168.5 67.2998 182.1 67.2998Z" fill="#313235"/>
<path d="M211.301 69.3C211.301 68.6 211.801 68 212.601 68H240.201C240.901 68 241.501 68.6 241.501 69.3V74.9C241.501 75.6 241.001 76.2 240.201 76.2H220.101V87.3H236.901C237.601 87.3 238.201 87.9 238.201 88.6V94.2C238.201 94.9 237.601 95.5 236.901 95.5H220.101V107.4H240.201C240.901 107.4 241.501 108 241.501 108.7V114.3C241.501 115 241.001 115.6 240.201 115.6H212.601C211.901 115.6 211.301 115 211.301 114.3V69.3Z" fill="#313235"/>
<path d="M255.6 69.3C255.6 68.6 256.1 68 256.9 68H276.3C284.4 68 291.1 74.5 291.1 82.6C291.1 88.8 287 93.9 281.1 96.3L290.4 113.5C290.9 114.4 290.4 115.5 289.2 115.5H282.1C281.5 115.5 281.1 115.2 281 114.9L272 96.9H264.5V114.2C264.5 114.9 263.9 115.5 263.2 115.5H256.9C256.2 115.5 255.6 114.9 255.6 114.2V69.3ZM275.5 89.7C279.1 89.7 282.2 86.6 282.2 82.8C282.2 79.2 279.1 76.2 275.5 76.2H264.4V89.7H275.5Z" fill="#313235"/>
<path d="M3.40039 136.6C3.40039 135.9 3.90039 135.3 4.70039 135.3H24.1004C32.2004 135.3 38.9004 141.8 38.9004 149.9C38.9004 156.1 34.8004 161.2 28.9004 163.6L38.2004 180.8C38.7004 181.7 38.2004 182.8 37.0004 182.8H29.9004C29.3004 182.8 28.9004 182.5 28.8004 182.2L19.8004 164.2H12.3004V181.5C12.3004 182.2 11.7004 182.8 11.0004 182.8H4.80039C4.10039 182.8 3.50039 182.2 3.50039 181.5V136.6H3.40039ZM23.4004 156.9C27.0004 156.9 30.1004 153.8 30.1004 150C30.1004 146.4 27.0004 143.4 23.4004 143.4H12.3004V156.9H23.4004Z" fill="#313235"/>
<path d="M51.6992 136.6C51.6992 135.9 52.1992 135.3 52.9992 135.3H80.5992C81.2992 135.3 81.8992 135.9 81.8992 136.6V142.2C81.8992 142.9 81.3992 143.5 80.5992 143.5H60.4992V154.6H77.2992C77.9992 154.6 78.5992 155.2 78.5992 155.9V161.5C78.5992 162.2 77.9992 162.8 77.2992 162.8H60.4992V174.7H80.5992C81.2992 174.7 81.8992 175.3 81.8992 176V181.6C81.8992 182.3 81.3992 182.9 80.5992 182.9H52.9992C52.2992 182.9 51.6992 182.3 51.6992 181.6V136.6Z" fill="#313235"/>
<path d="M93.4009 176.2L95.8009 172C96.3009 171 97.5009 171 98.1009 171.5C98.4009 171.7 103.901 175.7 108.401 175.7C111.901 175.7 114.601 173.4 114.601 170.5C114.601 167 111.701 164.7 106.001 162.4C99.6009 159.8 93.2009 155.7 93.2009 147.7C93.2009 141.7 97.7009 134.7 108.501 134.7C115.401 134.7 120.701 138.2 122.101 139.2C122.801 139.6 123.001 140.8 122.501 141.4L119.901 145.3C119.401 146.1 118.301 146.7 117.501 146.1C117.001 145.8 111.801 142.4 108.101 142.4C104.201 142.4 102.101 145 102.101 147.2C102.101 150.4 104.601 152.6 110.101 154.8C116.701 157.4 124.301 161.4 124.301 170.1C124.301 177.1 118.301 183.5 108.701 183.5C100.101 183.5 95.1009 179.5 93.8009 178.2C93.1009 177.6 92.7009 177.2 93.4009 176.2Z" fill="#313235"/>
<path d="M136.699 136.6C136.699 135.9 137.199 135.3 137.999 135.3H165.599C166.299 135.3 166.899 135.9 166.899 136.6V142.2C166.899 142.9 166.399 143.5 165.599 143.5H145.499V154.6H162.299C162.999 154.6 163.599 155.2 163.599 155.9V161.5C163.599 162.2 162.999 162.8 162.299 162.8H145.499V174.7H165.599C166.299 174.7 166.899 175.3 166.899 176V181.6C166.899 182.3 166.399 182.9 165.599 182.9H137.999C137.299 182.9 136.699 182.3 136.699 181.6V136.6Z" fill="#313235"/>
<path d="M176.301 181L197.401 135.3C197.601 134.9 197.901 134.6 198.601 134.6H199.301C200.001 134.6 200.301 134.9 200.501 135.3L221.401 181C221.801 181.9 221.301 182.8 220.201 182.8H214.301C213.301 182.8 212.801 182.4 212.301 181.4L209.001 174.1H188.701L185.401 181.4C185.101 182.1 184.501 182.8 183.401 182.8H177.501C176.401 182.8 175.901 181.9 176.301 181ZM205.601 166.6L198.801 151.7H198.601L191.901 166.6H205.601Z" fill="#313235"/>
<path d="M231.9 136.6C231.9 135.9 232.4 135.3 233.2 135.3H252.6C260.7 135.3 267.4 141.8 267.4 149.9C267.4 156.1 263.3 161.2 257.4 163.6L266.7 180.8C267.2 181.7 266.7 182.8 265.5 182.8H258.4C257.8 182.8 257.4 182.5 257.3 182.2L248.3 164.2H240.8V181.5C240.8 182.2 240.2 182.8 239.5 182.8H233.3C232.6 182.8 232 182.2 232 181.5L231.9 136.6ZM251.8 156.9C255.4 156.9 258.5 153.8 258.5 150C258.5 146.4 255.4 143.4 251.8 143.4H240.7V156.9H251.8Z" fill="#313235"/>
<path d="M302 134.6C308.9 134.6 313.8 136.8 318.4 140.9C319 141.4 319 142.3 318.5 142.8L314.4 147.1C313.9 147.6 313.2 147.6 312.7 147.1C309.8 144.6 306 143.1 302.2 143.1C293.5 143.1 287.1 150.4 287.1 158.9C287.1 167.4 293.6 174.6 302.3 174.6C306.4 174.6 309.8 173 312.7 170.7C313.2 170.2 314 170.3 314.4 170.7L318.6 175C319.1 175.5 319 176.4 318.5 176.8C313.9 181.3 308 183.4 302 183.4C288.4 183.4 277.5 172.6 277.5 159C277.5 145.5 288.4 134.6 302 134.6Z" fill="#313235"/>
<path d="M330.801 136.6C330.801 135.9 331.401 135.3 332.101 135.3H338.401C339.101 135.3 339.701 135.9 339.701 136.6V154.6H361.801V136.6C361.801 135.9 362.301 135.3 363.101 135.3H369.301C370.001 135.3 370.601 135.9 370.601 136.6V181.5C370.601 182.2 370.001 182.8 369.301 182.8H363.101C362.401 182.8 361.801 182.2 361.801 181.5V162.8H339.701V181.5C339.701 182.2 339.201 182.8 338.401 182.8H332.101C331.401 182.8 330.801 182.2 330.801 181.5V136.6Z" fill="#313235"/>
</g>
<defs>
<clipPath id="clip0_2_1961">
<rect width="370.6" height="183.5" fill="white"/>
</clipPath>
</defs>
</svg>
