<svg width="1128" height="377" viewBox="0 0 1128 377" fill="none" xmlns="http://www.w3.org/2000/svg">
<g clip-path="url(#clip0_2_2170)">
<path d="M205.452 373.85H160.127L373.85 50.5229L398.001 85.4727L205.452 373.85Z" fill="#95979D"/>
<path d="M285.681 373.85H240.355L413.716 108.331L437.702 143.115L285.681 373.85Z" fill="#95979D"/>
<path d="M344.736 8.28502C343.247 5.96608 340.6 0.5 334.645 0.5C328.525 0.5 326.043 6.13172 324.554 8.28502L80.0635 373.85H125.389L358.631 28.3273L344.736 8.28502Z" fill="#95979D"/>
<path d="M228.611 62.1174C227.122 59.7985 224.31 54.498 218.52 54.498C212.399 54.498 209.918 60.1298 208.429 62.1174L0 373.85H45.3251L242.341 82.491L228.611 62.1174Z" fill="#95979D"/>
<path d="M228.61 62.1174C227.122 59.9641 224.475 54.498 218.52 54.498C212.399 54.498 209.918 60.1298 208.429 62.1174L194.699 82.6566L391.218 373.85H436.543L228.61 62.1174Z" fill="#62646A"/>
<path d="M344.735 8.28502C343.247 5.96608 340.434 0.5 334.645 0.5C328.524 0.5 326.043 6.13172 324.554 8.28502L310.824 28.8242L551.511 373.85H596.836L344.735 8.28502Z" fill="#62646A"/>
<path d="M397.836 85.4727L373.85 50.5229L350.525 85.804L374.677 120.423L397.836 85.4727Z" fill="#313235"/>
<path d="M437.702 143.115L413.716 108.331L390.723 143.446L414.709 177.899L437.702 143.115Z" fill="#313235"/>
<path d="M471.282 373.85H516.607L296.764 50.0259L272.943 85.3069L471.282 373.85Z" fill="#62646A"/>
<path d="M344.735 8.28502C343.247 5.96608 340.434 0.5 334.645 0.5C333.818 0.5 333.156 0.665639 332.494 0.665639C328.028 1.82511 325.877 6.29736 324.554 8.11938L312.148 26.6709L310.824 28.6586L334.976 63.2771L358.631 28.1617L344.735 8.28502Z" fill="#313235"/>
<path d="M296.764 50.0259L272.943 85.3069L296.764 119.925L320.419 84.9757L296.764 50.0259Z" fill="#313235"/>
<path d="M336.465 177.568L359.624 142.784L335.969 107.834L312.645 143.115L336.465 177.568Z" fill="#313235"/>
<path d="M376.496 236.038L399.489 201.254L375.669 166.47L352.841 201.586L376.496 236.038Z" fill="#313235"/>
<path d="M228.61 62.1174C227.122 59.9641 224.309 54.498 218.52 54.498C217.693 54.498 217.031 54.6637 216.369 54.6637C211.903 55.8232 209.752 60.2954 208.429 62.1174L194.699 82.6566L218.354 117.772L242.175 82.491L242.009 82.1597L228.61 62.1174Z" fill="#313235"/>
<path d="M281.876 142.121L258.552 107.006L234.896 142.287L258.221 177.071L281.876 142.121Z" fill="#313235"/>
<path d="M320.915 200.757L297.756 165.808L274.432 200.923L297.756 235.542L320.915 200.757Z" fill="#313235"/>
<path d="M360.616 260.222L337.292 225.272L314.464 260.222L337.788 294.84L360.616 260.222Z" fill="#313235"/>
<path d="M624.957 208.211C634.552 208.211 641.996 206.223 641.996 187.672V107.668L627.935 107.006V100.877L671.11 101.54L698.735 177.568H698.9L727.022 101.54L769.7 100.877V107.006L755.308 107.668V207.548L769.7 208.211V214.34C762.587 214.34 749.188 213.677 742.075 213.677C734.962 213.677 722.224 214.34 715.111 214.34V208.211L729.337 207.548V115.619H729.007L693.772 214.008H685.005L649.44 115.619H649.109V187.672C649.109 206.223 656.056 208.211 667.47 208.211V214.34C658.538 214.34 653.41 213.677 646.131 213.677C639.018 213.677 633.725 214.34 624.792 214.34V208.211H624.957Z" fill="#313235"/>
<path d="M772.678 173.758C772.678 143.281 793.19 129.202 816.018 129.202C839.177 129.202 859.689 141.625 859.689 171.936C859.689 202.58 839.673 216.493 816.018 216.493C792.859 216.493 772.678 204.402 772.678 173.758ZM833.552 172.93C833.552 148.581 828.755 135.33 816.018 135.33C803.611 135.33 798.649 148.581 798.649 172.93C798.649 197.445 803.611 210.53 816.018 210.53C828.755 210.53 833.552 197.445 833.552 172.93Z" fill="#313235"/>
<path d="M874.907 148.25C874.907 138.477 871.929 138.477 862.831 138.477V132.348L898.562 130.526V179.721C898.562 196.948 898.893 205.726 909.976 205.726C918.743 205.726 929.826 195.291 929.826 177.899V148.415C929.826 138.643 925.691 138.643 917.916 138.643V132.348L953.481 130.526V207.051L965.557 207.383V213.511L931.315 215.333L930.819 199.432H930.653C924.864 209.039 914.938 216.327 900.878 216.327C882.185 216.327 875.072 206.72 875.072 186.347L874.907 148.25Z" fill="#313235"/>
<path d="M1016.67 208.211V214.34C1008.07 214.34 1003.44 213.677 993.017 213.677C982.596 213.677 977.799 214.34 969.031 214.34V208.211L981.107 207.383V147.918C981.107 138.477 978.129 138.477 969.031 138.477V132.348L1003.27 130.526L1003.6 146.096H1003.77C1009.89 136.324 1019.48 129.036 1033.55 129.036C1048.6 129.036 1059.35 138.146 1059.35 160.673V207.217L1071.76 208.045V214.174C1062.99 214.174 1058.19 213.511 1047.77 213.511C1037.35 213.511 1032.88 214.174 1024.12 214.174V208.045L1035.86 207.217V165.973C1035.86 146.593 1033.71 139.637 1024.28 139.637C1015.51 139.637 1004.6 150.072 1004.6 167.464V207.217L1016.67 208.211Z" fill="#313235"/>
<path d="M1104.51 190.488C1104.18 201.586 1104.51 207.714 1111.79 207.714C1118.41 207.714 1122.21 198.273 1122.21 198.273L1128 200.426C1128 200.426 1124.2 216.824 1105.5 216.824C1083.5 216.824 1081.19 204.898 1081.19 190.819V139.305H1067.79V132.349H1081.19V102.534C1094.59 102.534 1104.51 99.0552 1104.51 99.0552V132.349H1124.53V139.305H1104.51V190.488Z" fill="#313235"/>
<path d="M639.349 331.612C640.837 339.728 652.417 370.04 675.741 370.04C690.463 370.04 696.253 361.758 696.253 352.483C696.253 319.355 634.551 337.741 634.551 292.521C634.551 265.854 656.552 257.075 672.764 257.075C687.651 257.075 695.261 261.878 698.073 261.878C701.05 261.878 702.043 257.903 702.043 257.903H707.998C707.998 263.866 707.667 268.173 707.667 273.804C707.667 282.252 707.998 287.055 707.998 292.687H702.043C700.554 284.736 690.463 263.038 671.275 263.038C660.522 263.038 653.244 269.663 653.244 278.939C653.244 309.417 716.6 291.859 716.6 339.728C716.6 366.065 696.749 376.5 674.914 376.5C656.056 376.5 646.131 370.04 642.988 370.04C639.183 370.04 638.522 374.347 638.522 374.347H632.566C632.566 365.734 633.063 360.599 633.063 351.986C633.063 343.704 632.566 338.569 632.566 331.281H639.349V331.612Z" fill="#313235"/>
<path d="M771.355 367.225V373.353C762.753 373.353 757.79 372.691 747.369 372.691C736.947 372.691 732.15 373.353 723.383 373.353V367.225L735.459 366.396V307.429C735.459 297.656 732.316 297.656 723.383 297.656V291.362L759.114 289.54V366.231L771.355 367.225ZM747.7 246.805C754.978 246.805 761.926 251.609 761.926 260.388C761.926 269.166 754.978 273.97 747.7 273.97C740.256 273.97 733.308 269.166 733.308 260.388C733.308 251.609 740.09 246.805 747.7 246.805Z" fill="#313235"/>
<path d="M822.634 367.224V373.353C814.032 373.353 809.401 372.69 798.979 372.69C788.558 372.69 783.76 373.353 774.993 373.353V367.224L787.069 366.396V306.932C787.069 297.49 784.091 297.49 774.993 297.49V291.362L809.235 289.54L809.566 305.11H809.731C815.852 295.337 825.446 288.049 839.507 288.049C854.56 288.049 865.313 297.159 865.313 319.686V366.23L877.719 367.059V373.187C868.952 373.187 864.155 372.525 853.733 372.525C843.312 372.525 838.845 373.187 830.078 373.187V367.059L841.823 366.23V324.986C841.823 305.607 839.672 298.65 830.243 298.65C821.476 298.65 810.558 309.085 810.558 326.477V366.23L822.634 367.224Z" fill="#313235"/>
<path d="M973.166 359.439C973.166 359.439 970.685 375.672 952.323 375.672C943.556 375.672 936.278 372.028 933.135 363.083H932.804C928.834 370.537 921.39 376.334 908.322 376.334C895.75 376.334 881.027 370.537 881.027 351.82C881.027 328.63 908.322 326.477 932.638 326.643V317.864C933.135 303.619 931.977 294.012 920.232 294.012C911.299 294.012 907.329 298.484 906.502 300.306C906.502 300.306 910.472 302.459 910.472 308.588C910.472 314.882 905.84 319.355 898.562 319.355C891.614 319.355 886.652 315.048 886.652 307.925C886.652 295.171 902.863 288.049 922.217 288.049C953.481 288.049 956.128 305.772 955.797 322.502L954.97 356.292C954.805 361.758 956.624 365.568 960.429 365.568C965.557 365.568 967.377 357.948 967.377 357.948L973.166 359.439ZM932.142 332.771C909.976 332.44 905.013 338.237 905.013 349.666C905.013 360.267 909.149 365.568 916.593 365.568C923.54 365.568 931.481 359.439 931.811 346.685L932.142 332.771Z" fill="#313235"/>
<path d="M1021.14 367.225V373.353C1012.54 373.353 1007.57 372.691 997.153 372.691C986.731 372.691 981.934 373.353 973.167 373.353V367.225L985.243 366.396V307.429C985.243 297.656 982.1 297.656 973.167 297.656V291.362L1008.9 289.54V366.231L1021.14 367.225ZM997.318 246.805C1004.6 246.805 1011.54 251.609 1011.54 260.388C1011.54 269.166 1004.6 273.97 997.318 273.97C989.874 273.97 982.927 269.166 982.927 260.388C982.927 251.609 989.874 246.805 997.318 246.805Z" fill="#313235"/>
</g>
<defs>
<clipPath id="clip0_2_2170">
<rect width="1128" height="376" fill="white" transform="translate(0 0.5)"/>
</clipPath>
</defs>
</svg>
