<svg width="502" height="144" viewBox="0 0 502 144" fill="none" xmlns="http://www.w3.org/2000/svg">
<g clip-path="url(#clip0_2_1843)">
<path d="M79.7004 105.7C82.0004 105.7 84.0004 104.6 85.2004 102.8C85.3004 102.6 85.8004 102 86.1004 101.1L99.8004 63.4002L91.8004 41.4002C90.8004 39.0002 88.4004 37.2002 85.5004 37.2002C83.2004 37.2002 81.2004 38.3002 80.0004 40.1002C79.9004 40.3002 79.3004 41.1002 79.1004 41.8002L65.4004 79.6002L73.4004 101.7C74.5004 104.1 76.9004 105.7 79.7004 105.7Z" fill="#313235"/>
<path d="M125.101 0L87.8008 102.6C86.9008 105.1 84.6008 107 81.8008 107.3V107.4H121.301C124.401 107.4 127.001 105.4 128.001 102.7L165.401 0.1H125.101V0Z" fill="#313235"/>
<path d="M84 35.7998H44.1C41 35.7998 38.4 37.7998 37.4 40.4998L0 143.1H40.2L77.5 40.5998C78.5 37.8998 81 35.9998 84 35.7998Z" fill="#313235"/>
<path d="M371.5 109C354.2 109 343.4 98.9998 343.4 82.7998C343.4 65.9998 353.3 55.5998 369.3 55.5998H370.7C372.7 55.5998 375.5 55.6998 379.2 56.0998V35.7998H390.5V107.1C390.5 107.2 379.7 109 371.5 109ZM371.4 64.4998C360.5 64.4998 355.1 70.3998 355.1 82.4998C355.1 93.3998 361.5 100.2 371.8 100.2C373.8 100.2 376 100.1 379.1 99.7998V65.1998C376.1 64.6998 373.6 64.4998 371.4 64.4998Z" fill="#313235"/>
<path d="M216.7 107.4L186.2 54.1V107.4H175.6V40H190.5L221 92.7V40H231.7V107.4H216.7Z" fill="#313235"/>
<path d="M313.9 108.4C308.8 108.4 303.4 107.8 297 106.6L296.3 106.5V97.0998L297.3 97.2998C302.9 98.4998 307.8 99.4998 312.6 99.4998C316.5 99.4998 325.7 98.8998 325.7 93.0998C325.7 88.2998 319.4 86.9998 314.3 86.0998L314 85.9998C313.1 85.7998 312.2 85.5998 311.4 85.3998C304 83.4998 296 80.5998 296 70.5998C296 60.8998 303.7 55.2998 317.1 55.2998C323.5 55.2998 328.2 55.9998 332 56.5998L333.8 56.8998V65.9998L332.8 65.7998C328.6 64.9998 323.6 64.1998 318.8 64.1998C313.5 64.1998 307.1 65.1998 307.1 69.8998C307.1 73.7998 312.3 74.9998 318.3 76.2998C326.7 78.0998 337.1 80.3998 337.1 91.7998C337.2 102.4 328.7 108.4 313.9 108.4Z" fill="#313235"/>
<path d="M422.199 108.4C410.499 108.4 399.699 106.3 399.699 91.4C399.699 75.2 416.399 75.2 426.499 75.2C427.499 75.2 432.199 75.4 433.699 75.5C433.699 66.4 433.599 64.2 420.299 64.2C415.099 64.2 409.199 65.2 404.099 66.2L403.099 66.4V57.4L403.799 57.3C409.799 56.1 415.499 55.5 421.299 55.5C434.099 55.5 444.999 56.8 444.999 72.7V107.4L444.199 107.5C435.299 108.3 428.199 108.4 422.199 108.4ZM426.099 83.2C416.499 83.2 410.499 84.6 410.499 91.7C410.499 99.9 418.099 100.6 425.299 100.6C427.999 100.6 432.799 100.3 434.299 100.1V83.5C432.199 83.4 426.799 83.2 426.099 83.2Z" fill="#313235"/>
<path d="M263.699 108.4C251.999 108.4 241.199 106.3 241.199 91.4C241.199 75.2 257.899 75.2 267.999 75.2C268.999 75.2 273.699 75.4 275.199 75.5C275.199 66.4 275.099 64.2 261.799 64.2C256.599 64.2 250.699 65.2 245.599 66.2L244.599 66.4V57.4L245.299 57.3C251.299 56.1 256.999 55.5 262.799 55.5C275.599 55.5 286.499 56.8 286.499 72.7V107.4L285.699 107.5C276.799 108.3 269.699 108.4 263.699 108.4ZM267.599 83.2C257.999 83.2 251.999 84.6 251.999 91.7C251.999 99.9 259.599 100.6 266.799 100.6C269.499 100.6 274.299 100.3 275.799 100.1V83.5C273.699 83.4 268.299 83.2 267.599 83.2Z" fill="#313235"/>
<path d="M489.899 130.3V108.2C485.499 108.8 483.099 108.8 481.299 108.8C476.799 108.8 471.899 107.8 467.999 106.2C459.399 102.6 454.299 93.4996 454.299 81.8996C454.299 76.0996 455.699 65.3996 465.199 59.6996C469.999 56.8996 475.599 55.5996 483.999 55.5996C486.999 55.5996 491.099 55.7996 495.099 56.0996L501.499 56.3996V125.2L489.899 130.3ZM483.099 64.4996C471.599 64.4996 465.799 70.2996 465.799 81.8996C465.799 96.6996 474.499 99.8996 481.799 99.8996C483.599 99.8996 485.599 99.8996 489.999 99.2996V64.7996C486.499 64.4996 484.899 64.4996 483.099 64.4996Z" fill="#313235"/>
</g>
<defs>
<clipPath id="clip0_2_1843">
<rect width="501.5" height="143.1" fill="white"/>
</clipPath>
</defs>
</svg>
