<svg width="220" height="78" viewBox="0 0 220 78" fill="none" xmlns="http://www.w3.org/2000/svg">
<path d="M13.4492 28.6966C14.8637 27.2821 15.9246 26.398 17.1623 25.6908C18.2232 24.9835 19.6377 24.6299 21.4058 24.6299C24.058 24.6299 25.8261 25.514 27.0638 27.2821C28.1247 29.0503 28.6551 31.3488 28.6551 34.3546V53.4504C28.6551 54.3345 28.3015 54.6882 27.4174 55.0418C26.5334 55.2186 25.4725 55.3954 24.2348 55.5722V56.4563H39.6175V55.749C39.0871 55.749 38.7335 55.5722 38.203 55.5722C37.6726 55.5722 37.1421 55.3954 36.7885 55.2185C36.2581 55.0417 35.9045 54.8649 35.5508 54.6881C35.1972 54.5113 35.0204 54.1577 35.0204 53.8041V31.5257C35.0204 28.1662 34.3132 25.3371 32.7218 23.0386C31.1305 20.9168 28.832 19.856 26.0029 19.856C24.5884 19.856 23.3507 20.2096 22.1131 20.74C20.8754 21.2705 19.6377 21.9778 18.5768 22.685C17.5159 23.5691 16.6319 24.4532 15.7478 25.3372C14.8637 26.3981 14.1565 27.2821 13.626 28.1662" fill="#62646A"/>
<path d="M11.5053 29.9344V53.4506C11.6821 53.981 11.8589 54.3347 12.0357 54.5115C12.2125 54.6883 12.5661 54.8651 12.9198 55.0419C13.2734 55.2187 13.627 55.2187 14.1575 55.2187C14.6879 55.2187 15.0415 55.2187 15.572 55.3956V56.1027H0.896484V55.3956C2.13418 55.2187 3.01825 55.0419 3.90231 54.6883C4.78638 54.3346 5.14 53.8042 5.14 52.9201V26.9286C5.14 26.575 5.14 26.2214 4.96319 26.0445C4.96319 25.8677 4.60956 25.691 4.25593 25.3374C3.72549 25.1605 3.19505 24.8069 2.66461 24.4533C2.13418 24.0997 1.42692 23.9229 0.896484 23.5692V23.0387L10.798 19.5024H11.3285L11.5053 29.9344Z" fill="#62646A"/>
<path d="M192.916 28.6966C194.331 27.2821 195.391 26.398 196.452 25.6908C197.513 24.9835 198.928 24.6299 200.696 24.6299C203.348 24.6299 205.116 25.514 206.354 27.2821C207.415 29.0503 207.945 31.3488 207.945 34.3546V53.4504C207.945 54.3345 207.591 54.6882 206.707 55.0418C205.823 55.2186 204.762 55.3954 203.525 55.5722V56.4563H218.908V55.749C218.377 55.749 218.023 55.5722 217.493 55.5722C216.963 55.5722 216.432 55.3954 216.079 55.2185C215.548 55.0417 215.194 54.8649 214.841 54.6881C214.487 54.5113 214.31 54.1577 214.31 53.8041V31.5257C214.31 28.1662 213.603 25.3371 212.012 23.0386C210.421 20.9168 208.122 19.856 205.293 19.856C203.878 19.856 202.641 20.0328 201.403 20.5633C200.165 21.0937 198.928 21.8009 197.867 22.5082C196.806 23.3922 195.922 24.2763 195.038 25.1603C194.154 26.2212 193.446 27.1054 192.916 27.9894" fill="#313235"/>
<path d="M191.148 29.9344V53.4506C191.325 53.981 191.501 54.3347 191.678 54.5115C191.855 54.6883 192.209 54.8651 192.562 55.0419C192.916 55.2187 193.27 55.2187 193.8 55.2187C194.33 55.2187 194.684 55.2187 195.215 55.3956V56.1027H180.539V55.3956C181.777 55.2187 182.661 55.0419 183.545 54.6883C184.429 54.3346 184.783 53.8042 184.783 52.9201V26.9286C184.783 26.575 184.783 26.2214 184.606 26.0445C184.606 25.8677 184.252 25.691 183.899 25.3374C183.368 25.1605 182.838 24.8069 182.307 24.4533C181.777 24.0997 181.07 23.9229 180.539 23.5692V23.0387L190.441 19.5024H190.971L191.148 29.9344Z" fill="#313235"/>
<path d="M41.3867 56.2796V55.5724C41.9172 55.5724 42.6244 55.3956 43.1548 55.3956C43.6853 55.3956 44.3925 55.2187 44.7462 55.0419C45.2766 54.8651 45.6302 54.6883 45.9839 54.3346C46.3375 53.981 46.5143 53.6274 46.5143 53.0969V26.7519C46.5143 26.3982 46.5143 26.0445 46.3375 25.6909C46.3375 25.3373 45.9838 25.1605 45.6302 24.8069C45.0998 24.4532 44.5694 24.2764 44.0389 23.9228C43.3317 23.5692 42.8012 23.3924 41.9172 23.0387V22.5083L52.3491 19.1489H52.8796V53.6275C53.0564 54.1579 53.2332 54.5115 53.5868 54.6883C53.9404 54.8651 54.2941 55.0419 54.8245 55.2187C55.355 55.3955 55.7086 55.3956 56.239 55.3956C56.7694 55.3956 57.2999 55.3955 57.8303 55.5724V56.2796H41.3867Z" fill="#62646A"/>
<path d="M52.3488 11.3693C51.6416 12.0765 50.5807 12.607 49.5198 12.607C48.459 12.607 47.3981 12.2533 46.6908 11.3693C45.9836 10.4852 45.4531 9.60118 45.4531 8.5403C45.4531 7.30261 45.8067 6.41848 46.6908 5.71123C47.3981 5.00397 48.459 4.65039 49.5198 4.65039C50.5807 4.65039 51.6416 5.00397 52.3488 5.71123C53.0561 6.41848 53.5865 7.47942 53.5865 8.5403C53.4097 9.60118 53.0561 10.662 52.3488 11.3693Z" fill="#62646A"/>
<path d="M152.426 30.6418C152.603 30.1113 152.78 29.2273 153.31 27.9896C153.84 26.7519 154.371 25.691 155.255 24.6301C156.139 23.5692 157.023 22.5083 158.261 21.6242C159.498 20.7402 160.736 20.3865 162.151 20.3865C164.272 20.3865 166.041 21.0938 167.455 22.5083C168.693 23.9228 169.4 25.5141 169.4 27.459C169.4 28.1663 169.223 28.6968 169.046 29.0504C168.87 29.404 168.516 29.7577 168.162 30.2881C167.632 30.4649 167.101 30.6418 166.394 30.6418C165.687 30.6418 164.98 30.6418 164.272 30.6418C163.035 30.6418 161.974 30.6418 161.09 30.6418C160.029 30.6418 159.145 30.6418 158.261 30.6418C157.377 30.6418 156.846 30.6418 155.962 30.6418L155.609 31.7026H177.003C176.826 29.5808 176.296 27.6359 175.588 26.0446C174.704 24.4532 173.643 23.2155 172.406 22.1547C171.168 21.0938 169.577 20.3866 167.809 19.8561C166.041 19.3257 164.096 19.1489 162.151 19.1489C159.675 19.1489 157.377 19.6793 155.432 20.7402C153.487 21.8011 151.719 23.2155 150.304 24.8069C148.89 26.575 147.829 28.3431 146.945 30.4649C146.237 32.5866 145.707 34.7085 145.707 36.8302C145.707 39.4824 146.061 41.9578 146.945 44.4332C147.829 46.7317 148.89 48.8535 150.481 50.6216C152.072 52.3897 153.84 53.8042 155.962 54.6883C158.084 55.5723 160.559 56.1028 163.212 56.1028C165.333 56.1028 167.278 55.7491 168.87 54.8651C170.638 54.1578 172.052 53.097 173.29 51.8593C174.528 50.6216 175.588 49.3839 176.296 47.9694C177.003 46.5549 177.533 45.3172 177.71 44.0795L177.18 43.9027C176.649 45.8477 175.235 47.4389 173.29 48.6766C171.345 49.9143 169.046 50.6216 166.571 50.6216C164.272 50.6216 162.151 50.268 160.383 49.3839C158.614 48.4998 157.023 47.2621 155.962 45.8476C154.724 44.2563 153.84 42.665 153.31 40.5432C152.78 38.5983 152.426 36.4766 152.426 34.3548C152.426 33.8244 152.426 33.2939 152.426 32.7634C152.426 32.233 152.426 31.7026 152.426 31.349V30.6418Z" fill="#313235"/>
<path d="M67.0236 30.6418C67.2004 30.1113 67.3772 29.2273 67.9076 27.9896C68.4381 26.7519 68.9685 25.691 69.8526 24.6301C70.7367 23.5692 71.6207 22.5083 72.8584 21.6242C74.0961 20.7402 75.3338 20.3865 76.7483 20.3865C78.8701 20.3865 80.6382 21.0938 82.0527 22.5083C83.2904 23.9228 83.9976 25.5141 83.9976 27.459C83.9976 28.1663 83.8208 28.6968 83.644 29.0504C83.4672 29.404 83.1136 29.7577 82.7599 30.2881C82.2295 30.4649 81.699 30.6418 80.9918 30.6418C80.2845 30.6418 79.5773 30.6418 78.87 30.6418C77.6324 30.6418 76.5715 30.6418 75.6874 30.6418C74.6265 30.6418 73.7425 30.6418 72.8584 30.6418C71.9744 30.6418 71.4439 30.6418 70.5598 30.6418L70.2062 31.7026H91.6006C91.4238 29.5808 90.8933 27.6359 90.1861 26.0446C89.302 24.4532 88.2411 23.2155 87.0035 22.1547C85.7658 21.0938 84.1744 20.3866 82.4063 19.8561C80.6382 19.3257 78.6932 19.1489 76.7483 19.1489C74.2729 19.1489 71.9743 19.6793 70.0294 20.7402C68.0845 21.8011 66.3163 23.2155 64.9018 24.8069C63.4873 26.575 62.4264 28.3431 61.5424 30.4649C60.8351 32.5866 60.3047 34.7085 60.3047 36.8302C60.3047 39.4824 60.6583 41.9578 61.5424 44.4332C62.4264 46.7317 63.4873 48.8535 65.0786 50.6216C66.6699 52.3897 68.4381 53.8042 70.5598 54.6883C72.6816 55.5723 75.157 56.1028 77.8092 56.1028C79.9309 56.1028 81.8759 55.7491 83.4672 54.8651C85.2353 54.1578 86.6498 53.097 87.8875 51.8593C89.1252 50.6216 90.1861 49.3839 90.8933 47.9694C91.6006 46.5549 92.131 45.3172 92.3078 44.0795L91.7774 43.9027C91.247 45.8477 89.8325 47.4389 87.8875 48.6766C85.9426 49.9143 83.644 50.6216 81.1686 50.6216C78.8701 50.6216 76.7483 50.268 74.9802 49.3839C73.212 48.4998 71.6207 47.2621 70.5598 45.8476C69.3222 44.2563 68.4381 42.665 67.9076 40.5432C67.3772 38.5983 67.0236 36.4766 67.0236 34.3548C67.0236 33.8244 67.0236 33.2939 67.0236 32.7634C67.0236 32.233 67.0236 31.7026 67.0236 31.349V30.6418Z" fill="#313235"/>
<path d="M93.5469 56.2796V55.3955C95.8454 55.2187 97.4368 55.0418 98.3208 54.6882C99.0281 54.3346 99.5585 53.8042 99.5585 52.9201V8.71685C99.5585 8.36322 99.5585 8.0096 99.3817 7.83278C99.3817 7.65597 99.0281 7.47912 98.6744 7.12549C98.144 6.94868 97.4368 6.41832 96.5527 5.88788C95.6686 5.35745 94.7846 5.0038 94.2541 4.65017V4.11976L105.217 0.583496H105.747V53.2737C105.747 53.8042 105.924 54.1578 106.101 54.5114C106.277 54.6883 106.631 54.8651 107.161 55.0419C107.692 55.2187 108.222 55.2186 108.93 55.2186C109.637 55.2186 110.521 55.3955 111.405 55.3955V56.2796H93.5469Z" fill="#313235"/>
<path d="M139.871 50.091C139.164 51.5055 137.926 52.7432 136.688 53.6272C135.274 54.5113 133.859 55.2185 132.091 55.5721C130.323 55.9258 128.555 56.1025 126.61 56.1025C124.312 56.1025 122.19 55.9258 120.245 55.5721C118.3 55.2185 116.355 54.5113 114.764 53.804V43.5489H115.294C115.648 44.7866 116.178 46.0243 116.885 47.4388C117.593 48.8533 118.3 50.0909 119.184 51.1518C120.068 52.2127 121.129 53.2735 122.367 53.9808C123.604 54.688 125.019 55.0417 126.787 55.0417C129.262 55.0417 131.207 54.3344 132.622 52.9199C134.036 51.5054 134.744 49.3837 134.744 46.3778C134.744 44.7865 134.213 43.5488 133.329 42.4879C132.268 41.427 131.03 40.7199 129.262 40.3663C127.848 40.1894 126.61 39.8358 125.196 39.4822C123.958 39.1286 122.72 38.7749 121.659 38.4213C119.714 37.714 118.123 36.6531 116.885 34.885C115.648 33.2937 115.117 31.3488 115.117 28.8734C115.117 27.2821 115.471 25.8676 116.178 24.6299C116.885 23.3922 117.769 22.1544 118.83 21.2704C119.891 20.3863 121.306 19.6791 122.72 19.1487C124.135 18.6183 125.726 18.4414 127.494 18.4414C129.616 18.4414 131.561 18.6182 133.152 18.9718C134.744 19.3254 136.335 19.8559 137.926 20.3863L138.81 29.9342L138.28 30.111C137.573 28.5197 136.865 27.1053 136.158 25.8676C135.451 24.6299 134.567 23.3921 133.683 22.5081C132.799 21.624 131.738 20.7399 130.677 20.3863C129.616 19.8559 128.378 19.6791 126.787 19.6791C125.903 19.6791 125.019 19.8559 124.135 20.2095C123.251 20.5632 122.543 20.9168 121.836 21.624C121.129 22.1545 120.599 23.0385 120.245 23.9226C119.891 24.8066 119.714 25.8676 119.714 27.1053C119.714 29.0502 120.245 30.2879 121.306 31.172C122.367 32.056 123.781 32.5865 125.372 32.9401C126.433 33.1169 127.671 33.4705 129.086 33.8242C130.5 34.1778 131.561 34.3546 132.622 34.7082C134.92 35.2387 136.865 36.4764 138.457 38.2445C140.048 40.0126 140.932 42.3112 140.932 44.7866C141.109 46.9083 140.755 48.6765 139.871 50.091Z" fill="#313235"/>
<path d="M11.8599 73.6072C11.8599 75.7289 10.0917 77.4971 7.96996 77.4971C5.8482 77.4971 4.08008 75.7289 4.08008 73.6072C4.08008 71.4854 5.8482 69.7173 7.96996 69.7173C10.0917 69.5405 11.8599 71.3086 11.8599 73.6072Z" fill="#313235"/>
<path d="M37.3208 73.6072C37.3208 75.7289 35.5527 77.4971 33.4309 77.4971C31.3091 77.4971 29.541 75.7289 29.541 73.6072C29.541 71.4854 31.3091 69.7173 33.4309 69.7173C35.5527 69.5405 37.3208 71.3086 37.3208 73.6072Z" fill="#313235"/>
<path d="M62.6059 73.6072C62.6059 75.7289 60.8378 77.4971 58.7161 77.4971C56.5943 77.4971 54.8262 75.7289 54.8262 73.6072C54.8262 71.4854 56.5943 69.7173 58.7161 69.7173C60.8378 69.5405 62.6059 71.3086 62.6059 73.6072Z" fill="#313235"/>
<path d="M88.0669 73.6072C88.0669 75.7289 86.2987 77.4971 84.177 77.4971C82.0552 77.4971 80.2871 75.7289 80.2871 73.6072C80.2871 71.4854 82.0552 69.7173 84.177 69.7173C86.2987 69.5405 88.0669 71.3086 88.0669 73.6072Z" fill="#313235"/>
<path d="M113.528 73.6072C113.528 75.7289 111.76 77.4971 109.638 77.4971C107.516 77.4971 105.748 75.7289 105.748 73.6072C105.748 71.4854 107.516 69.7173 109.638 69.7173C111.76 69.5405 113.528 71.3086 113.528 73.6072Z" fill="#313235"/>
<path d="M138.989 73.6072C138.989 75.7289 137.221 77.4971 135.099 77.4971C132.977 77.4971 131.209 75.7289 131.209 73.6072C131.209 71.4854 132.977 69.7173 135.099 69.7173C137.221 69.5405 138.989 71.3086 138.989 73.6072Z" fill="#313235"/>
<path d="M164.45 73.6072C164.45 75.7289 162.682 77.4971 160.56 77.4971C158.438 77.4971 156.67 75.7289 156.67 73.6072C156.67 71.4854 158.438 69.7173 160.56 69.7173C162.682 69.5405 164.45 71.3086 164.45 73.6072Z" fill="#313235"/>
<path d="M215.372 73.6072C215.372 75.7289 213.603 77.4971 211.482 77.4971C209.36 77.4971 207.592 75.7289 207.592 73.6072C207.592 71.4854 209.36 69.7173 211.482 69.7173C213.603 69.7173 215.372 71.3086 215.372 73.6072Z" fill="#313235"/>
<path d="M189.911 73.6072C189.911 75.7289 188.142 77.4971 186.021 77.4971C183.899 77.4971 182.131 75.7289 182.131 73.6072C182.131 71.4854 183.899 69.7173 186.021 69.7173C188.142 69.5405 189.911 71.3086 189.911 73.6072Z" fill="#313235"/>
</svg>
