<svg width="228" height="485" viewBox="0 0 228 485" fill="none" xmlns="http://www.w3.org/2000/svg">
<g clip-path="url(#clip0_2_1998)">
<path d="M15.7895 448.907H12.9701V438.192H3.38391V448.907H0.564453V425.597H3.38391V435.936H12.9701V425.597H15.7895V448.907Z" fill="#313235"/>
<path d="M20.8637 425.597H34.2092V428.041H23.6832V435.748H32.8934V438.192H23.6832V446.275H34.0212V448.719H20.6758L20.8637 425.597Z" fill="#313235"/>
<path d="M49.6233 443.268H41.5409L40.0372 448.907H36.8418L43.7965 425.597H47.3678L54.3224 448.907H51.315L49.6233 443.268ZM42.1048 440.824H49.0594L45.6761 428.417L42.1048 440.824Z" fill="#313235"/>
<path d="M57.518 425.597H60.3375V446.463H68.6079V448.907H57.3301L57.518 425.597Z" fill="#313235"/>
<path d="M76.8777 428.041H71.0508V425.597H85.712V428.041H79.8851V448.907H77.0656L76.8777 428.041Z" fill="#313235"/>
<path d="M104.321 448.907H101.501V438.192H91.9152V448.907H89.0957V425.597H91.9152V435.936H101.501V425.597H104.321V448.907Z" fill="#313235"/>
<path d="M114.659 439.884L107.893 425.597H111.088L116.163 437.064L121.238 425.597H124.433L117.667 439.884V448.907H114.847L114.659 439.884Z" fill="#313235"/>
<path d="M148.303 442.328H151.122C151.122 447.403 148.679 449.283 143.416 449.283C137.777 449.283 135.521 447.215 135.521 440.824V433.493C135.521 427.289 137.777 425.033 143.416 425.033C148.679 425.033 151.122 427.101 151.122 431.989H148.303C148.303 428.605 146.987 427.477 143.604 427.477C139.845 427.477 138.529 428.793 138.529 433.117V440.824C138.529 445.148 139.845 446.463 143.604 446.463C146.799 446.839 148.303 445.711 148.303 442.328Z" fill="#313235"/>
<path d="M155.635 425.597H158.454V448.907H155.635V425.597Z" fill="#313235"/>
<path d="M167.852 428.041H162.025V425.597H176.687V428.041H170.86V448.907H168.04V428.041H167.852Z" fill="#313235"/>
<path d="M179.881 425.597H182.7V448.907H179.881V425.597Z" fill="#313235"/>
<path d="M187.965 425.597H201.31V428.041H190.972V435.748H200.182V438.192H190.972V446.275H201.31V448.719H187.965V425.597Z" fill="#313235"/>
<path d="M205.068 431.613C205.068 427.477 207.512 425.221 212.587 425.221C217.85 425.221 220.293 426.913 220.293 431.801H217.474C217.474 428.605 216.158 427.665 212.775 427.665C209.579 427.665 208.076 428.793 208.076 431.425C208.076 434.056 209.016 435.184 213.339 435.748C219.542 436.5 221.045 438.568 221.045 442.516C221.045 447.215 218.602 449.095 212.963 449.095C207.888 449.095 205.068 447.591 205.068 442.328H207.888C207.888 445.712 209.579 446.463 212.963 446.463C216.91 446.463 218.226 445.336 218.226 442.328C218.226 439.508 217.474 438.38 212.587 437.816C207.136 437.252 205.068 435.56 205.068 431.613Z" fill="#313235"/>
<path d="M224.617 445.523H228.001V448.907H224.617V445.523Z" fill="#313235"/>
<path d="M0.564453 461.502H8.083C13.534 461.502 15.6016 463.382 15.6016 467.517C15.6016 470.149 14.2858 472.217 12.0302 472.781C15.0377 473.533 16.1654 475.413 16.1654 478.421C16.1654 482.932 13.7219 484.812 8.64689 484.812H0.564453V461.502ZM3.38391 463.946V471.653H8.64689C11.4663 471.653 12.5941 470.149 12.5941 467.705C12.5941 464.886 11.2784 463.946 8.083 463.946H3.38391ZM8.64689 482.368C12.0302 482.368 13.346 481.24 13.346 478.421C13.346 475.601 11.6543 474.285 8.83486 474.285H3.57187V482.368H8.64689Z" fill="#313235"/>
<path d="M20.3008 461.502H33.6462V463.946H23.3082V471.653H32.5184V474.097H23.3082V482.18H33.6462V484.624H20.3008V461.502Z" fill="#313235"/>
<path d="M42.2917 463.946H36.4648V461.502H51.126V463.946H45.2991V484.812H42.4797L42.2917 463.946Z" fill="#313235"/>
<path d="M58.8327 463.946H53.0059V461.502H67.667V463.946H61.8402V484.812H59.0207V463.946H58.8327Z" fill="#313235"/>
<path d="M70.8633 461.502H84.2087V463.946H73.8707V471.653H83.0809V474.097H73.8707V482.18H84.2087V484.624H70.8633V461.502Z" fill="#313235"/>
<path d="M88.7188 461.502H96.0493C101.5 461.502 104.132 463.006 104.132 468.833C104.132 472.593 102.816 474.849 99.9966 475.601L104.508 484.812H101.312L96.9891 475.977H91.5382V484.812H88.7188V461.502ZM96.2373 473.533C99.8086 473.533 101.124 472.593 101.124 468.833C101.124 464.886 99.6206 463.946 96.0493 463.946H91.5382V473.533H96.2373Z" fill="#313235"/>
<path d="M116.725 461.502H119.545V482.368H127.815V484.812H116.537L116.725 461.502Z" fill="#313235"/>
<path d="M131.951 461.502H134.771V484.812H131.951V461.502Z" fill="#313235"/>
<path d="M146.989 481.804C148.868 475.037 150.748 468.269 152.627 461.502H155.635C153.379 469.397 151.124 477.105 148.68 484.812H145.109L138.154 461.502H141.162C143.041 468.269 144.921 475.037 146.989 481.804Z" fill="#313235"/>
<path d="M159.018 461.502H172.363V463.946H162.025V471.653H171.235V474.097H162.025V482.18H172.363V484.624H159.018V461.502Z" fill="#313235"/>
<path d="M176.123 467.517C176.123 463.382 178.567 461.126 183.642 461.126C188.905 461.126 191.348 462.818 191.348 467.705H188.529C188.529 464.51 187.213 463.57 183.83 463.57C180.634 463.57 179.13 464.698 179.13 467.329C179.13 469.961 180.07 471.089 184.393 471.653C190.596 472.405 192.1 474.473 192.1 478.421C192.1 483.12 189.656 485 184.018 485C178.943 485 176.123 483.496 176.123 478.233H178.943C178.943 481.616 180.634 482.368 184.018 482.368C187.965 482.368 189.281 481.24 189.281 478.233C189.281 475.413 188.529 474.285 183.642 473.721C178.191 473.345 176.123 471.465 176.123 467.517Z" fill="#313235"/>
<path d="M195.67 481.429H199.053V484.812H195.67V481.429Z" fill="#313235"/>
<path d="M10.3373 360.742V371.269H1.87891V339.876H10.3373V350.403H49.6217V360.742H10.3373Z" fill="#313235"/>
<path d="M49.8092 299.835V310.175H29.5091V323.334H49.6212V333.673H2.06641V323.334H21.6146V310.175H2.06641V299.835H49.8092Z" fill="#313235"/>
<path d="M2.06641 292.316V263.178H10.5248V282.165H21.6146V265.81H29.6971V282.165H41.5388V263.178H49.9972V292.316H2.06641Z" fill="#313235"/>
<path d="M105.823 333.86V345.703L72.5533 358.674C74.4329 358.486 76.5005 358.486 78.5681 358.298C80.6357 358.298 83.0793 358.298 85.7107 358.298H105.823V368.074H58.0801V356.043L91.3497 343.072C89.2821 343.26 87.2145 343.26 84.9589 343.26C82.8913 343.26 80.4478 343.448 77.8163 343.448H58.0801V333.672L105.823 333.86Z" fill="#313235"/>
<path d="M58.0801 325.965V296.828H66.5384V315.814H77.6283V299.459H85.7107V315.814H97.5525V296.828H106.011V325.965H58.0801Z" fill="#313235"/>
<path d="M58.0801 244.944V234.604L105.823 243.252V257.163L67.1023 262.802L105.823 268.442V282.353L58.0801 291.188V280.849L96.9886 275.209V275.021L58.0801 269.006V256.599L96.9886 250.771V250.583L58.0801 244.944Z" fill="#313235"/>
<path d="M88.3422 206.407L58.0801 219.942V208.851L78.9441 201.331V201.143L58.0801 193.624V182.533L88.3422 196.068H105.823V206.407H88.3422Z" fill="#313235"/>
<path d="M73.493 181.593C68.0421 181.593 63.9069 180.277 61.2754 177.457C58.6439 174.638 57.3281 170.314 57.3281 164.11C57.3281 157.907 58.6439 153.395 61.2754 150.764C63.9069 147.944 68.0421 146.628 73.681 146.628H90.5977C96.0487 146.628 100.184 147.944 102.815 150.764C105.447 153.583 106.763 158.095 106.763 164.11C106.763 170.314 105.447 174.826 102.815 177.457C100.184 180.277 96.0487 181.593 90.5977 181.593H73.493ZM73.1171 156.779C70.4856 156.779 68.6059 157.343 67.2902 158.471C65.9745 159.599 65.4106 161.479 65.4106 164.11C65.4106 166.554 65.9745 168.434 67.2902 169.562C68.418 170.69 70.4856 171.254 73.1171 171.254H90.5977C93.2292 171.254 95.1088 170.69 96.4246 169.562C97.7403 168.434 98.3042 166.554 98.3042 164.11C98.3042 161.479 97.7403 159.599 96.4246 158.471C95.1088 157.343 93.2292 156.779 90.5977 156.779H73.1171Z" fill="#313235"/>
<path d="M58.0801 139.485V123.13C58.0801 120.31 58.268 117.678 58.644 115.611C59.0199 113.543 59.7718 111.663 60.8995 110.159C62.0273 108.655 63.719 107.715 65.5986 106.963C67.6662 106.211 70.2977 106.023 73.4931 106.023C77.4403 106.023 80.6357 106.587 82.8913 107.903C85.1469 109.219 86.8385 111.099 87.7783 113.731L105.823 105.083V116.175L89.0941 123.882V129.521H105.823V139.861H58.0801V139.485ZM81.0117 123.13C81.0117 120.874 80.4478 118.994 79.5079 118.054C78.5681 116.927 76.6885 116.363 73.6811 116.363C70.8616 116.363 68.982 116.927 68.0422 117.866C67.1023 118.994 66.5384 120.686 66.5384 122.942V129.146H81.0117V123.13Z" fill="#313235"/>
<path d="M81.1996 80.6452L105.823 65.6064V77.2615L85.5228 88.9165H105.823V99.2557H58.0801V88.9165H77.6283L58.0801 77.8254V65.9824L81.1996 80.6452Z" fill="#313235"/>
<path d="M152.814 346.267V359.05L161.837 360.93V371.457L114.094 359.05V346.079L161.837 333.484V344.2L152.814 346.267ZM144.544 357.17V348.147L123.116 352.471V352.659L144.544 357.17Z" fill="#313235"/>
<path d="M154.318 313.37C154.318 311.114 153.754 309.235 152.627 308.295C151.499 307.167 149.431 306.791 146.612 306.791V296.64C152.251 296.64 156.198 297.956 158.829 300.587C161.461 303.219 162.589 307.543 162.589 313.37C162.589 319.386 161.273 323.709 158.454 326.341C155.634 329.161 151.311 330.477 145.484 330.477H130.259C124.244 330.477 119.733 328.973 117.102 326.153C114.47 323.333 113.154 319.01 113.154 313.182C113.154 307.167 114.47 303.031 116.914 300.399C119.357 297.768 123.492 296.452 129.131 296.452V306.603C126.5 306.603 124.432 307.167 123.304 308.107C122.177 309.235 121.613 310.926 121.613 313.182C121.613 315.438 122.177 317.13 123.304 318.258C124.432 319.386 126.312 319.95 128.943 319.95H147.364C149.995 319.95 151.875 319.386 153.003 318.07C153.942 317.318 154.318 315.438 154.318 313.37Z" fill="#313235"/>
<path d="M152.814 269.006V281.789L161.837 283.668V294.196L114.094 281.789V268.818L161.837 256.223V266.938L152.814 269.006ZM144.544 279.909V270.885L123.116 275.209V275.397L144.544 279.909Z" fill="#313235"/>
<path d="M161.837 251.147H114.094V234.793C114.094 231.785 114.282 229.153 114.846 226.897C115.222 224.641 116.161 222.762 117.289 221.258C118.605 219.754 120.297 218.626 122.552 217.874C124.808 217.122 127.627 216.746 131.01 216.746H144.732C148.115 216.746 151.123 217.122 153.378 217.874C155.634 218.626 157.325 219.754 158.641 221.258C159.957 222.762 160.709 224.641 161.273 226.897C161.649 229.153 162.024 231.785 162.024 234.793V251.147H161.837ZM122.552 240.808H153.566V234.981C153.566 233.289 153.378 231.973 153.002 231.033C152.626 230.093 152.062 229.153 151.499 228.589C150.747 228.025 149.995 227.649 149.055 227.461C148.115 227.273 146.987 227.085 145.672 227.085H129.883C128.191 227.085 126.687 227.273 125.748 227.649C124.808 228.025 124.056 228.401 123.492 229.153C123.116 229.905 122.74 230.657 122.74 231.597C122.552 232.537 122.552 233.665 122.552 234.981V240.808Z" fill="#313235"/>
<path d="M114.094 209.979V180.841H122.552V199.828H133.642V183.473H141.724V199.828H153.566V180.841H162.024V209.979H114.094Z" fill="#313235"/>
<path d="M139.845 138.357L125.184 137.793L161.837 146.816V154.711L125.184 163.735L139.845 163.171H161.837V173.134H114.094V158.659L147.927 150.764V150.576L114.094 142.68V128.394H161.837V138.357H139.845Z" fill="#313235"/>
<path d="M144.356 110.347L114.094 123.882V112.79L134.958 105.271V105.083L114.094 97.5637V86.4727L144.356 100.008H161.837V110.347H144.356Z" fill="#313235"/>
<path d="M185.708 369.013C180.257 369.013 176.122 367.698 173.49 364.878C170.859 362.058 169.543 357.734 169.543 351.531C169.543 345.327 170.859 340.816 173.49 338.184C176.122 335.364 180.257 334.048 185.896 334.048H202.813C208.264 334.048 212.399 335.364 215.03 338.184C217.662 341.004 218.977 345.515 218.977 351.531C218.977 357.734 217.662 362.246 215.03 364.878C212.399 367.698 208.264 369.013 202.813 369.013H185.708ZM185.332 344.2C182.7 344.2 180.821 344.763 179.505 345.891C178.189 347.019 177.625 348.899 177.625 351.531C177.625 353.975 178.189 355.855 179.505 356.982C180.633 358.11 182.7 358.674 185.332 358.674H202.813C205.444 358.674 207.324 358.11 208.639 356.982C209.955 355.855 210.519 353.975 210.519 351.531C210.519 348.899 209.955 347.019 208.639 345.891C207.324 344.763 205.444 344.2 202.813 344.2H185.332Z" fill="#313235"/>
<path d="M218.038 327.093H170.295V299.271H178.753V316.754H189.843V301.903H197.926V316.754H218.038V327.093Z" fill="#313235"/>
<path d="M195.858 241.56L181.197 240.996L217.85 250.019V257.915L181.197 266.938L195.858 266.374H217.85V276.337H170.295V262.05L204.128 254.155V253.967L170.295 246.071V231.785H218.038V241.748L195.858 241.56Z" fill="#313235"/>
<path d="M170.295 223.514V194.376H178.753V213.174H189.843V196.82H197.926V213.174H209.767V194.376H218.226V223.514H170.295Z" fill="#313235"/>
<path d="M218.038 187.797H170.295V171.442C170.295 168.434 170.483 165.802 171.047 163.547C171.423 161.291 172.363 159.411 173.49 157.907C174.806 156.403 176.498 155.275 178.753 154.523C181.009 153.771 183.828 153.396 187.212 153.396H200.933C204.316 153.396 207.324 153.771 209.579 154.523C211.835 155.275 213.527 156.403 214.842 157.907C216.158 159.411 216.91 161.291 217.474 163.547C217.85 165.802 218.226 168.434 218.226 171.442V187.797H218.038ZM178.565 177.646H209.579V171.818C209.579 170.126 209.391 168.81 209.015 167.87C208.64 166.93 208.076 165.99 207.512 165.427C206.76 164.863 206.008 164.487 205.068 164.299C204.128 164.111 203.001 163.923 201.685 163.923H185.896C184.204 163.923 182.701 164.111 181.761 164.487C180.821 164.863 180.069 165.239 179.505 165.99C179.129 166.742 178.753 167.494 178.753 168.434C178.565 169.374 178.565 170.502 178.565 171.818V177.646Z" fill="#313235"/>
<path d="M170.295 147.192V136.853H218.038V147.192H170.295Z" fill="#313235"/>
<path d="M210.52 112.791C210.52 110.535 209.956 108.655 208.828 107.715C207.7 106.587 205.632 106.211 202.813 106.211V96.0601C208.452 96.0601 212.399 97.3759 215.031 100.008C217.662 102.64 218.79 106.963 218.79 112.791C218.79 118.806 217.474 123.13 214.655 125.762C211.835 128.581 207.512 129.897 201.685 129.897H186.46C180.445 129.897 175.934 128.393 173.303 125.574C170.671 122.754 169.355 118.43 169.355 112.603C169.355 106.587 170.671 102.452 173.115 99.8197C175.558 97.188 179.693 95.8721 185.332 95.8721V106.023C182.701 106.023 180.633 106.587 179.506 107.527C178.378 108.655 177.814 110.347 177.814 112.603C177.814 114.859 178.378 116.55 179.506 117.678C180.633 118.806 182.513 119.37 185.144 119.37H203.565C206.196 119.37 208.076 118.806 209.204 117.49C209.956 116.738 210.52 115.046 210.52 112.791Z" fill="#313235"/>
<path d="M170.295 90.2327V79.8936H218.038V90.2327H170.295Z" fill="#313235"/>
<path d="M218.038 37.0327V48.8757L184.768 61.8467C186.648 61.6587 188.715 61.6587 190.783 61.4707C192.851 61.4707 195.294 61.4707 197.926 61.4707H218.038V71.2459H170.295V59.4029L203.565 46.4319C201.497 46.6199 199.429 46.6199 197.174 46.6199C195.106 46.6199 192.663 46.8079 190.031 46.8079H170.295V37.0327H218.038Z" fill="#313235"/>
<path d="M170.295 29.1376V0H178.753V18.9864H189.843V2.63178H197.926V18.9864H209.767V0H218.226V29.1376H170.295Z" fill="#313235"/>
<path d="M222.173 391.76H0V405.483H222.173V391.76Z" fill="#313235"/>
</g>
<defs>
<clipPath id="clip0_2_1998">
<rect width="228" height="485" fill="white"/>
</clipPath>
</defs>
</svg>
