<svg width="430" height="485" viewBox="0 0 430 485" fill="none" xmlns="http://www.w3.org/2000/svg">
<path d="M213.542 68.1494L214.602 72.3922L216.986 80.3473L224.14 98.379L230.763 103.417L234.737 105.804H239.771H244.54V107.395V112.433L246.13 117.471L247.984 122.245L248.779 123.836L250.369 124.631L252.753 125.427H255.138L258.582 123.836L259.377 127.283L260.172 132.056V137.625L259.377 142.663L255.138 154.861L254.343 157.247L255.138 158.308L256.197 159.103L257.787 160.695L258.582 162.286L260.966 166.263L263.351 168.119L264.146 167.324L265.735 166.263L267.59 165.733L269.18 163.081L272.359 159.103L275.538 157.247L277.393 158.308L282.162 159.899H292.759L303.357 155.656L306.801 154.065H307.331V153.27L309.186 152.474H311.57H312.365L313.955 154.065L316.604 155.656H318.194H320.578L322.168 154.861L325.347 154.065L329.586 150.883L334.62 148.497L339.389 145.845L338.594 148.497L337.005 154.065L334.62 159.103L329.586 168.915L327.202 177.931V178.726L326.407 179.522V180.317L325.347 181.908V182.704L327.997 186.151L329.586 190.129V192.515L328.791 195.962L327.202 199.144L322.168 204.713L318.194 211.342L316.604 218.767V222.745L318.194 225.397L320.578 227.783L324.552 229.374L327.997 230.17H331.971H337.005H339.389V231.761L340.979 233.352L341.774 234.147L344.158 236.003L347.337 237.594L351.576 238.39L355.551 240.777L358.2 243.163H353.961L349.987 243.959L346.807 245.815L342.568 247.406L337.005 252.179L331.176 258.013L325.347 261.99L318.194 265.438H317.399H316.604L315.544 266.233H314.75L313.16 267.824L311.57 269.415L309.981 271.802L308.391 273.658V275.249L309.186 278.431L311.57 284L314.75 290.629L315.544 292.22H312.365L305.742 293.281L293.554 292.22L282.957 288.242L280.572 287.447L275.538 286.651L266.795 283.469L257.787 280.022L240.566 271.006L227.584 267.029L222.55 271.006L219.371 276.044L218.576 280.818L217.781 287.447L219.371 300.44L220.96 312.903L218.576 324.306L210.363 332.526V326.692L211.157 315.29L212.747 293.281L207.978 271.802L204.799 267.029V266.233L203.739 265.438H202.944H202.149H200.56H199.765L197.381 264.642L194.996 263.581L192.347 264.642L189.962 265.438L188.372 267.029L183.339 270.211L179.364 274.453L175.39 278.431L173.536 280.022H169.562L164.528 281.878L154.725 285.06L145.187 289.038L136.179 293.281L126.376 294.076L117.368 290.629L118.163 288.242L118.958 285.856L119.753 280.818L118.958 275.249L116.573 271.006L113.129 267.824L108.36 267.029L104.121 266.233L100.942 264.642L98.5573 262.786L92.7286 258.808L82.131 249.792L72.3281 246.61L74.9775 243.959L80.5413 239.981L93.5234 234.147L106.771 229.374L109.95 227.783L112.334 225.927L113.129 223.54V221.949L112.334 220.358L111.539 217.972L110.745 216.116L106.771 212.138L103.326 208.16L100.147 204.713V202.327V200.736L100.942 195.962L102.531 190.924L103.326 186.681V181.908L101.737 177.931L100.147 175.279L97.7625 170.506L93.5234 161.49L91.139 153.27V150.883L94.3183 152.474L99.3522 155.656L112.334 160.695H118.163L124.522 159.899L127.966 157.247L130.35 159.899L132.735 160.695L136.179 161.49L140.948 162.286H147.572L158.964 164.672L162.143 166.263L162.938 165.733L164.528 164.672L165.588 163.081L168.767 159.899L170.356 157.247V154.861L169.562 150.088L168.767 141.072L167.972 131.26V129.669V128.874V127.813V127.283L170.356 127.813H172.741L174.331 127.283L176.185 126.222L177.775 123.836L178.57 122.245L180.159 116.411L181.749 111.638L184.133 107.395L185.193 106.599V105.804H186.783H187.578L189.167 106.599L189.962 107.395L193.141 104.213L197.381 97.5835L200.56 91.2194L206.389 77.1653L213.542 68.1494Z" fill="#313235"/>
<mask id="mask0_2_2068" style="mask-type:luminance" maskUnits="userSpaceOnUse" x="0" y="2" width="425" height="470">
<path d="M424.966 2.38672H0V471.742H424.966V2.38672Z" fill="white"/>
</mask>
<g mask="url(#mask0_2_2068)">
<path d="M212.483 15.6455C110.481 15.6455 28.084 98.3792 28.084 200.205C28.084 302.297 110.746 384.765 212.483 384.765C314.221 384.765 396.883 302.032 396.883 200.205C396.883 98.3792 314.486 15.6455 212.483 15.6455ZM212.483 363.817C122.403 363.817 49.2793 290.629 49.2793 200.471C49.2793 110.312 122.403 37.1245 212.483 37.1245C302.563 37.1245 375.687 110.312 375.687 200.471C375.687 290.629 302.563 363.817 212.483 363.817Z" fill="#313235"/>
</g>
<mask id="mask1_2_2068" style="mask-type:luminance" maskUnits="userSpaceOnUse" x="0" y="2" width="425" height="470">
<path d="M424.966 2.38672H0V471.742H424.966V2.38672Z" fill="white"/>
</mask>
<g mask="url(#mask1_2_2068)">
<path d="M82.3959 470.946L60.1408 435.678V470.946H51.1328V419.502H60.9356L82.9258 454.24V419.502H92.1987V470.946H82.3959Z" fill="#313235"/>
</g>
<mask id="mask2_2_2068" style="mask-type:luminance" maskUnits="userSpaceOnUse" x="0" y="2" width="425" height="470">
<path d="M424.966 2.38672H0V471.742H424.966V2.38672Z" fill="white"/>
</mask>
<g mask="url(#mask2_2_2068)">
<path d="M122.402 451.058V470.946H113.129V451.058L95.1133 419.502H105.446L117.898 441.777L130.615 419.502H140.418L122.402 451.058Z" fill="#313235"/>
</g>
<mask id="mask3_2_2068" style="mask-type:luminance" maskUnits="userSpaceOnUse" x="0" y="2" width="425" height="470">
<path d="M424.966 2.38672H0V471.742H424.966V2.38672Z" fill="white"/>
</mask>
<g mask="url(#mask3_2_2068)">
<path d="M173.801 465.643C170.092 469.62 164.528 471.742 159.229 471.742C153.93 471.742 148.632 469.885 144.657 465.908C139.094 460.339 138.299 453.445 138.299 444.959C138.299 436.474 139.094 429.579 144.657 424.011C148.632 420.033 153.665 418.177 159.229 418.177C164.793 418.177 170.092 420.298 173.801 424.011C176.715 426.927 178.305 431.17 178.835 435.148H169.297C169.032 433.026 168.237 431.435 166.913 429.844C165.323 427.723 162.408 426.662 159.229 426.662C156.315 426.662 153.4 427.988 151.281 430.11C147.837 433.822 147.837 440.186 147.837 444.959C147.837 449.732 147.837 456.096 151.281 459.809C153.4 461.93 156.315 463.256 159.229 463.256C162.408 463.256 165.323 462.195 166.913 460.074C168.237 458.483 169.032 456.627 169.297 454.505H178.835C178.305 458.483 176.715 462.726 173.801 465.643Z" fill="#313235"/>
</g>
<mask id="mask4_2_2068" style="mask-type:luminance" maskUnits="userSpaceOnUse" x="0" y="2" width="425" height="470">
<path d="M424.966 2.38672H0V471.742H424.966V2.38672Z" fill="white"/>
</mask>
<g mask="url(#mask4_2_2068)">
<path d="M219.372 452.384H208.509V470.681H199.236V419.237H219.372C231.029 419.237 237.388 425.867 237.388 435.678C237.388 445.489 231.294 452.384 219.372 452.384ZM219.107 427.723H208.509V444.429H219.107C225.201 444.429 228.115 440.981 228.115 436.208C228.115 431.435 225.201 427.723 219.107 427.723Z" fill="#313235"/>
</g>
<mask id="mask5_2_2068" style="mask-type:luminance" maskUnits="userSpaceOnUse" x="0" y="2" width="425" height="470">
<path d="M424.966 2.38672H0V471.742H424.966V2.38672Z" fill="white"/>
</mask>
<g mask="url(#mask5_2_2068)">
<path d="M268.915 471.476C264.941 471.476 262.822 469.09 262.557 466.173C260.702 469.09 256.463 471.742 251.164 471.742C242.156 471.742 237.652 466.173 237.652 459.809C237.652 452.649 243.216 448.406 250.37 448.141L261.497 447.346V444.959C261.497 441.512 260.172 439.125 255.138 439.125C250.899 439.125 248.515 440.982 248.25 444.429H239.507C240.037 435.943 246.66 432.231 255.138 432.231C261.497 432.231 267.061 434.352 269.18 439.921C270.24 442.307 270.24 444.959 270.24 447.611V461.665C270.24 463.521 270.77 464.052 272.36 464.052C272.89 464.052 273.419 463.786 273.419 463.786V470.416C271.83 470.946 271.035 471.476 268.915 471.476ZM261.497 454.24L251.959 455.036C249.31 455.301 246.66 456.892 246.66 460.074C246.66 462.991 249.31 464.847 251.959 464.847C257.523 464.847 261.497 461.93 261.497 456.362V454.24Z" fill="#313235"/>
</g>
<mask id="mask6_2_2068" style="mask-type:luminance" maskUnits="userSpaceOnUse" x="0" y="2" width="425" height="470">
<path d="M424.966 2.38672H0V471.742H424.966V2.38672Z" fill="white"/>
</mask>
<g mask="url(#mask6_2_2068)">
<path d="M297.793 441.247C291.435 441.247 287.99 445.755 287.99 451.854V470.946H278.982V433.292H286.666L287.461 438.86C289.315 434.617 293.554 432.761 298.058 432.761C299.118 432.761 299.913 432.761 300.973 433.026V441.777C299.913 441.247 298.853 441.247 297.793 441.247Z" fill="#313235"/>
</g>
<mask id="mask7_2_2068" style="mask-type:luminance" maskUnits="userSpaceOnUse" x="0" y="2" width="425" height="470">
<path d="M424.966 2.38672H0V471.742H424.966V2.38672Z" fill="white"/>
</mask>
<g mask="url(#mask7_2_2068)">
<path d="M331.442 470.946L320.844 454.505L314.75 460.869V470.946H305.742V418.442H314.75V448.406L329.057 433.292H340.45L326.938 447.876L341.774 470.946H331.442Z" fill="#313235"/>
</g>
<mask id="mask8_2_2068" style="mask-type:luminance" maskUnits="userSpaceOnUse" x="0" y="2" width="425" height="470">
<path d="M424.966 2.38672H0V471.742H424.966V2.38672Z" fill="white"/>
</mask>
<g mask="url(#mask8_2_2068)">
<path d="M370.388 467.499C367.473 470.416 362.704 471.742 357.406 471.742C352.637 471.742 348.398 470.416 345.218 467.499C343.099 465.377 341.244 462.195 341.244 458.748H349.722C349.722 460.339 350.517 462.195 351.842 463.256C353.167 464.317 355.021 464.847 357.671 464.847C360.585 464.847 365.354 464.317 365.354 460.074C365.354 457.953 364.029 456.362 361.645 456.096C358.2 455.566 354.491 455.301 351.312 454.771C346.278 453.71 342.834 449.467 342.834 444.694C342.834 440.982 344.423 438.065 346.543 436.208C349.192 433.822 353.167 432.496 357.935 432.496C362.439 432.496 366.943 433.822 369.858 437.004C371.977 439.125 373.302 442.042 373.302 444.694H364.824C364.824 443.368 364.294 442.042 363.234 441.247C362.175 440.186 360.32 439.391 358.2 439.391C356.876 439.391 355.551 439.391 354.226 439.921C352.637 440.451 351.312 442.042 351.312 443.898C351.312 446.55 353.696 447.346 355.551 447.611C358.995 448.141 359.79 448.141 363.499 448.672C369.328 449.732 373.832 453.445 373.832 459.278C373.567 462.726 372.242 465.377 370.388 467.499Z" fill="#313235"/>
</g>
</svg>
