<?xml version="1.0" encoding="UTF-8"?><svg id="Layer_1" xmlns="http://www.w3.org/2000/svg" viewBox="0 0 108.24 88.22"><defs><style>.cls-1{fill:#655aff;}</style></defs><path class="cls-1" d="M13,55.64c2.41-4.25,4.83-8.5,7.25-12.75,.37-.65,.96-.93,1.71-.92,2.19,.02,4.39,0,6.59,0,19.78,0,39.57,0,59.35-.02,1.16,0,1.89,.39,2.45,1.4,2.14,3.82,4.32,7.61,6.49,11.41,1.06,1.87,.3,3.19-1.84,3.19-5.1,0-10.21,.01-15.31-.01-.66,0-.89,.11-.87,.83,.06,1.97,.02,3.95,.02,5.93,0,1.28-.47,1.62-1.69,1.26-1.49-.44-2.96-1.29-4.47-1.23-1.48,.06-2.93,.8-4.39,1.24-1.14,.34-1.61,0-1.61-1.17,0-2.06-.02-4.12,.01-6.17,0-.52-.1-.74-.66-.69-.57,.05-1.16-.04-1.73,.02-1.09,.11-1.79-.37-2.38-1.25-1.57-2.34-3.2-4.63-4.82-6.96-.25,.18-.13,.41-.13,.61,0,10.89,0,21.79-.02,32.68,0,.58,.09,.78,.74,.78,9.41-.03,18.82-.02,28.23,0,.59,0,.71-.17,.71-.73-.02-6.48-.02-12.95-.01-19.43,0-1.35,.77-2.16,1.97-2.09,.85,.05,1.54,.69,1.64,1.55,.03,.27,.03,.55,.03,.82,0,7.02,0,14.05,0,21.07,0,1.88-.53,2.41-2.37,2.41-21.81,0-43.63,0-65.44,0-1.86,0-2.4-.53-2.4-2.39,0-6.91,0-13.83,0-20.74,0-.41-.03-.83,.11-1.22,.27-.74,1.11-1.25,1.89-1.16,.83,.09,1.5,.75,1.62,1.62,.04,.27,.02,.55,.02,.82,0,6.2,.01,12.4-.01,18.6,0,.64,.09,.87,.82,.87,9.36-.03,18.71-.02,28.07-.01,.54,0,.8-.02,.8-.72-.03-10.92-.02-21.84-.02-32.76,0-.18,0-.36,0-.76-1.64,2.36-3.22,4.48-4.64,6.7-.8,1.25-1.73,1.93-3.23,1.68-.57-.1-.74,.11-.73,.7,.04,2.06,.02,4.12,.01,6.17,0,1.1-.54,1.49-1.57,1.15-1.32-.44-2.64-.87-3.95-1.34-.42-.15-.78-.12-1.19,.02-1.29,.46-2.58,.89-3.88,1.31-1.08,.35-1.56,0-1.56-1.13,0-2.03-.03-4.06,.01-6.09,.01-.63-.13-.82-.79-.81-5.51,.03-11.03,0-16.55,.02-.99,0-1.77-.28-2.27-1.17,0-.38,0-.77,0-1.15Zm4.9-1.31c9.16,0,18.18,0,27.2,.01,.43,0,.62-.21,.84-.51,1.51-2.18,3.04-4.36,4.55-6.53,.37-.53,.73-1.06,1.08-1.57-.09-.08-.11-.11-.12-.11-9.38,0-18.76-.01-28.13-.02-.32,0-.48,.11-.64,.38-1.56,2.75-3.14,5.5-4.77,8.36Zm40.73-8.74c1.94,2.78,3.79,5.42,5.61,8.08,.33,.48,.66,.67,1.25,.67,8.67-.02,17.33-.01,26-.01h.88c-.16-.29-.26-.51-.38-.71-1.41-2.47-2.84-4.93-4.22-7.41-.26-.47-.54-.63-1.08-.63-8.97,.02-17.94,.01-26.9,.01-.33,0-.65,0-1.16,0Z"/><path class="cls-1" d="M63.76,36.66c.26-4.32,.87-8.54,3.19-12.33,.97-1.58,2.18-2.95,3.56-4.17,.89-.79,2-.75,2.7,.06,.67,.77,.61,1.89-.26,2.63-3.47,2.97-4.9,6.88-5.31,11.27-.09,.98-.14,1.97-.27,2.94-.15,1.1-.95,1.72-1.99,1.62-.97-.09-1.66-.94-1.62-2.02Z"/><path class="cls-1" d="M46.56,36.91c.03,.82-.65,1.68-1.62,1.77-1.07,.11-1.9-.53-2.01-1.69-.19-1.96-.31-3.92-.74-5.86-.71-3.23-2.21-5.97-4.71-8.17-.99-.87-1.11-1.98-.34-2.8,.74-.8,1.8-.76,2.77,.09,3.64,3.18,5.47,7.29,6.19,11.98,.23,1.46,.33,2.94,.46,4.68Z"/><path class="cls-1" d="M56.8,32.66c0,1.37,0,2.74,0,4.12,0,1.14-.74,1.91-1.8,1.91-1.06,0-1.81-.77-1.81-1.91-.01-2.8-.01-5.6,0-8.4,0-1.12,.8-1.9,1.85-1.88,1.01,.02,1.75,.79,1.76,1.87,.01,1.43,0,2.85,0,4.28Z"/><path class="cls-1" d="M59.24,.63c1.31,.47,1.69,1.56,1.03,2.8l-.48,.89c2.87,1.43,3.97,3.38,3.25,5.39-.43,1.2-1.33,1.88-2.9,1.31-1.17-.42-2.04-1.23-1.71-2.17l.06-.16c.19-.54-.09-1.22-1.36-1.68-1.27-.45-1.83-.05-2.02,.47s-.04,.94,.95,1.56c5.44,3.27,6,4.87,4.99,7.71-.99,2.77-3.71,3.86-6.91,3.29l-.2,1.09c-.28,1.38-1.27,1.98-2.58,1.51s-1.67-1.53-1.03-2.72l.49-.94c-3.38-1.55-4.76-3.69-3.82-6.31,.42-1.17,1.6-2.02,3.16-1.46,1.22,.44,2.01,1.17,1.79,2.02l-.07,.27c-.2,.93,.22,1.59,1.89,2.18,1.43,.51,1.99,.05,2.22-.6,.21-.59-.1-.99-.86-1.5-5.03-3.07-6.26-4.6-5.17-7.64,.79-2.2,3.04-3.46,6.53-2.74l.21-1.11c.27-1.33,1.22-1.92,2.53-1.45Z"/><path class="cls-1" d="M92.85,15.65c1.15,.79,1.23,1.94,.28,2.97l-.69,.74c2.41,2.11,2.97,4.28,1.76,6.05-.72,1.05-1.77,1.47-3.14,.53-1.02-.71-1.66-1.72-1.1-2.54l.1-.14c.32-.47,.23-1.21-.88-1.97-1.11-.76-1.76-.52-2.07-.06s-.28,.89,.52,1.75c4.42,4.55,4.56,6.25,2.85,8.73s-4.57,2.78-7.53,1.41l-.48,1c-.63,1.26-1.73,1.59-2.88,.8s-1.23-1.9-.3-2.9l.72-.78c-2.87-2.37-3.66-4.78-2.08-7.08,.71-1.03,2.06-1.54,3.43-.6,1.07,.73,1.65,1.65,1.22,2.41l-.13,.24c-.43,.85-.19,1.59,1.27,2.59,1.25,.86,1.91,.56,2.3-.02,.35-.51,.16-.98-.45-1.67-4.08-4.26-4.88-6.04-3.04-8.71,1.33-1.93,3.82-2.57,7.02-.97l.49-1.02c.6-1.22,1.67-1.54,2.81-.75Z"/><path class="cls-1" d="M13.44,21.56c.79-1.15,1.94-1.23,2.97-.28l.74,.69c2.11-2.41,4.28-2.97,6.05-1.76,1.05,.72,1.47,1.77,.53,3.14-.71,1.02-1.72,1.66-2.54,1.1l-.14-.1c-.47-.32-1.21-.23-1.97,.88s-.52,1.76-.06,2.07,.89,.28,1.75-.52c4.55-4.42,6.25-4.56,8.73-2.85,2.42,1.66,2.78,4.57,1.41,7.53l1,.48c1.26,.63,1.59,1.73,.8,2.88s-1.9,1.23-2.9,.3l-.78-.72c-2.37,2.87-4.78,3.66-7.08,2.08-1.03-.71-1.54-2.06-.6-3.43,.73-1.07,1.65-1.65,2.41-1.22l.24,.13c.85,.43,1.59,.19,2.59-1.27,.86-1.25,.56-1.91-.02-2.3-.51-.35-.98-.16-1.67,.45-4.26,4.08-6.04,4.88-8.71,3.04-1.93-1.33-2.57-3.82-.97-7.02l-1.02-.49c-1.22-.6-1.54-1.67-.75-2.81Z"/></svg>
