<svg width="295" height="66" viewBox="0 0 295 66" fill="none" xmlns="http://www.w3.org/2000/svg">
<g clip-path="url(#clip0_2_1718)">
<path d="M8.38281 17.5786H13.0078C13.7578 17.5786 14.5078 17.5786 15.2578 17.4536C16.0078 17.4536 16.7578 17.2036 17.3828 16.9536C18.0078 16.7036 18.5078 16.3286 19.0078 15.8286C19.3828 15.3286 19.6328 14.5786 19.6328 13.5786C19.6328 12.7036 19.5078 11.9536 19.1328 11.4536C18.7578 10.9536 18.2578 10.4536 17.7578 10.2036C17.1328 9.95361 16.5078 9.70361 15.7578 9.57861C14.8828 9.57861 14.2578 9.45361 13.5078 9.45361H8.38281V17.5786ZM0.507812 2.82861H14.2578C16.0078 2.82861 17.7578 2.95361 19.3828 3.32861C21.0078 3.70361 22.3828 4.32861 23.6328 5.07861C24.8828 5.95361 25.8828 6.95361 26.5078 8.45361C27.2578 9.82861 27.6328 11.5786 27.6328 13.7036C27.6328 16.2036 27.0078 18.3286 25.6328 20.0786C24.3828 21.8286 22.3828 22.9536 19.8828 23.4536L28.8828 38.4536H19.6328L12.2578 24.2036H8.38281V38.4536H0.507812V2.82861Z" fill="#313235"/>
<path d="M28.5469 2.8623H37.0469L42.6719 25.6123H42.7969L50.2969 2.8623H57.5469L64.9219 26.2373H65.0469L71.0469 2.8623H78.9219L68.5469 38.4873H61.5469L53.7969 13.8623H53.6719L45.7969 38.4873H39.0469L28.5469 2.8623Z" fill="#313235"/>
<path d="M95.4395 2.86231H88.0645V25.6123C88.0645 26.2373 88.0645 26.9873 87.9395 27.7373C87.9395 28.4873 87.6895 29.2373 87.5645 29.8623C87.3145 30.4873 86.9395 31.1123 86.4395 31.4873C85.9395 31.9873 85.1895 32.1123 84.3145 32.1123C83.4395 32.1123 82.6895 31.8623 81.9395 31.2373C81.1895 30.6123 80.8145 29.8623 80.8145 28.9873L73.6895 30.7373C74.3145 33.6123 75.5645 35.7373 77.4395 36.9873C79.4395 38.3623 81.8145 38.9873 84.5645 38.9873C86.9395 38.9873 88.9395 38.6123 90.4395 37.8623C91.9395 37.1123 93.0645 36.2373 93.9395 34.9873C94.6895 33.8623 95.1895 32.4873 95.5645 30.9873L95.4395 2.86231Z" fill="#313235"/>
<path d="M138.977 27.7251C138.352 27.7251 137.727 27.7251 136.852 27.8501C135.977 27.8501 135.227 28.1001 134.352 28.2251C133.602 28.4751 132.852 28.8501 132.352 29.2251C131.852 29.7251 131.477 30.3501 131.477 31.2251C131.477 32.1001 131.852 32.8501 132.602 33.2251C133.352 33.6001 134.227 33.8501 134.977 33.8501C135.727 33.8501 136.477 33.7251 137.102 33.6001C137.727 33.3501 138.352 33.1001 138.977 32.7251C139.477 32.3501 139.977 31.8501 140.227 31.3501C140.602 30.7251 140.727 30.1001 140.727 29.3501V27.7251H138.977ZM140.852 35.3501C139.852 36.6001 138.852 37.6001 137.352 38.1001C135.977 38.7251 134.602 38.9751 132.977 38.9751C131.852 38.9751 130.727 38.8501 129.727 38.4751C128.602 38.2251 127.727 37.7251 126.977 37.1001C126.227 36.4751 125.477 35.7251 125.102 34.7251C124.602 33.8501 124.352 32.7251 124.352 31.4751C124.352 30.1001 124.602 28.8501 125.102 27.8501C125.602 26.8501 126.352 26.1001 127.227 25.4751C128.102 24.8501 129.102 24.3501 130.227 23.9751C131.352 23.6001 132.602 23.3501 133.727 23.2251C134.977 23.1001 136.227 22.9751 137.352 22.9751C138.602 22.9751 139.727 22.9751 140.727 22.9751C140.727 21.6001 140.227 20.6001 139.352 19.7251C138.477 18.9751 137.352 18.4751 135.977 18.4751C134.727 18.4751 133.602 18.7251 132.602 19.2251C131.602 19.7251 130.727 20.4751 129.852 21.3501L125.852 17.2251C127.227 15.9751 128.852 14.9751 130.727 14.2251C132.602 13.6001 134.602 13.2251 136.602 13.2251C138.852 13.2251 140.602 13.4751 142.102 14.1001C143.477 14.6001 144.602 15.4751 145.477 16.4751C146.352 17.7251 146.977 19.1001 147.227 20.6001C147.602 22.2251 147.727 23.9751 147.727 25.9751V38.3501H140.852V35.3501Z" fill="#313235"/>
<path d="M150.283 14.0127H157.783V17.8877H157.908C158.783 16.3877 159.658 15.2627 160.783 14.5127C161.908 13.7627 163.283 13.3877 164.908 13.3877C165.283 13.3877 165.783 13.3877 166.158 13.3877C166.533 13.3877 167.033 13.5127 167.408 13.6377V20.5127C166.908 20.3877 166.283 20.2627 165.783 20.1377C165.283 20.0127 164.658 20.0127 164.158 20.0127C162.783 20.0127 161.658 20.2627 160.783 20.6377C160.033 21.0127 159.408 21.6377 158.908 22.3877C158.408 23.0127 158.158 23.8877 158.033 24.8877C157.908 25.8877 157.783 27.0127 157.783 28.2627V38.5127H150.283V14.0127Z" fill="#313235"/>
<path d="M169.463 14.0127H176.713V17.3877H176.838C177.088 16.8877 177.463 16.3877 177.838 16.0127C178.213 15.5127 178.838 15.1377 179.338 14.7627C179.963 14.3877 180.588 14.1377 181.338 13.8877C182.088 13.6377 182.963 13.5127 183.838 13.5127C185.713 13.5127 187.338 13.7627 188.463 14.3877C189.588 15.0127 190.588 15.7627 191.213 16.7627C191.963 17.7627 192.338 19.0127 192.588 20.3877C192.838 21.7627 192.963 23.2627 192.963 25.0127V38.5127H185.463V26.5127C185.463 25.7627 185.463 25.1377 185.338 24.3877C185.338 23.6377 185.088 22.8877 184.838 22.2627C184.588 21.6377 184.213 21.1377 183.713 20.7627C183.213 20.2627 182.463 20.0127 181.463 20.0127C180.588 20.0127 179.713 20.2627 179.213 20.5127C178.588 20.8877 178.088 21.3877 177.838 22.0127C177.463 22.5127 177.213 23.2627 177.088 24.0127C177.088 24.6377 176.963 25.5127 176.963 26.2627V38.3877H169.463V14.0127Z" fill="#313235"/>
<path d="M209.275 27.7251C208.65 27.7251 208.025 27.7251 207.15 27.8501C206.275 27.8501 205.525 28.1001 204.65 28.2251C203.9 28.4751 203.15 28.8501 202.65 29.2251C202.15 29.6001 201.775 30.3501 201.775 31.2251C201.775 32.1001 202.15 32.8501 202.9 33.2251C203.65 33.6001 204.525 33.8501 205.275 33.8501C206.025 33.8501 206.775 33.7251 207.4 33.6001C208.025 33.3501 208.65 33.1001 209.275 32.7251C209.775 32.3501 210.275 31.8501 210.525 31.3501C210.9 30.7251 211.025 30.1001 211.025 29.3501V27.7251H209.275ZM211.15 35.3501C210.15 36.6001 209.15 37.6001 207.65 38.1001C206.275 38.7251 204.9 38.9751 203.275 38.9751C202.15 38.9751 201.025 38.8501 200.025 38.4751C198.9 38.2251 198.025 37.7251 197.275 37.1001C196.525 36.4751 195.775 35.7251 195.4 34.7251C194.9 33.8501 194.65 32.7251 194.65 31.4751C194.65 30.1001 194.9 28.8501 195.4 27.8501C195.9 26.8501 196.65 26.1001 197.525 25.4751C198.4 24.8501 199.4 24.3501 200.525 23.9751C201.65 23.6001 202.9 23.3501 204.025 23.2251C205.15 23.1001 206.525 22.9751 207.65 22.9751C208.9 22.9751 210.025 22.9751 211.025 22.9751C211.025 21.6001 210.525 20.6001 209.65 19.7251C208.775 18.9751 207.65 18.4751 206.275 18.4751C205.025 18.4751 203.9 18.7251 202.9 19.2251C201.9 19.7251 201.025 20.4751 200.15 21.3501L196.15 17.2251C197.525 15.9751 199.15 14.9751 201.025 14.2251C202.9 13.6001 204.9 13.2251 206.9 13.2251C209.15 13.2251 210.9 13.4751 212.4 14.1001C213.775 14.6001 214.9 15.4751 215.775 16.4751C216.65 17.7251 217.275 19.1001 217.525 20.6001C217.9 22.2251 218.025 23.9751 218.025 25.9751V38.3501H211.15V35.3501Z" fill="#313235"/>
<path d="M227.602 26.2188C227.602 28.0938 228.102 29.5938 229.227 30.7188C230.227 31.8438 231.727 32.4688 233.727 32.4688C235.602 32.4688 237.102 31.8438 238.227 30.7188C239.102 29.5938 239.602 28.0938 239.602 26.2188C239.602 24.3438 239.102 22.8438 237.977 21.7188C236.977 20.5938 235.477 19.9688 233.477 19.9688C231.602 19.9688 230.102 20.5938 228.977 21.7188C228.102 22.8438 227.602 24.3438 227.602 26.2188ZM220.727 0.468751H228.227V16.5938H228.352C229.227 15.4688 230.352 14.5938 231.727 14.0938C233.102 13.5938 234.602 13.3438 236.102 13.3438C237.852 13.3438 239.352 13.7188 240.727 14.4688C242.102 15.2188 243.227 16.0938 244.227 17.3438C245.102 18.5938 245.852 19.9687 246.352 21.4688C246.852 22.9688 247.102 24.7188 247.102 26.3438C247.102 28.2188 246.852 29.8438 246.227 31.4688C245.602 32.9688 244.852 34.3438 243.852 35.4688C242.852 36.5938 241.477 37.4688 240.102 38.0938C238.602 38.7188 236.977 38.9688 235.227 38.9688C234.352 38.9688 233.477 38.8437 232.727 38.5937C231.977 38.4687 231.227 38.0938 230.602 37.7188C229.977 37.3437 229.352 36.9688 228.852 36.4688C228.352 36.0937 227.977 35.5938 227.727 35.2188H227.602V38.4688H220.727V0.468751Z" fill="#313235"/>
<path d="M262.711 27.7251C262.086 27.7251 261.461 27.7251 260.586 27.8501C259.711 27.8501 258.961 28.1001 258.086 28.2251C257.336 28.4751 256.586 28.8501 256.086 29.2251C255.586 29.7251 255.211 30.3501 255.211 31.2251C255.211 32.1001 255.586 32.8501 256.336 33.2251C257.086 33.6001 257.961 33.8501 258.711 33.8501C259.461 33.8501 260.211 33.7251 260.836 33.6001C261.461 33.3501 262.086 33.1001 262.711 32.7251C263.211 32.3501 263.711 31.8501 263.961 31.3501C264.336 30.7251 264.461 30.1001 264.461 29.3501V27.7251H262.711ZM264.586 35.3501C263.586 36.6001 262.586 37.6001 261.086 38.1001C259.711 38.7251 258.211 38.9751 256.711 38.9751C255.586 38.9751 254.461 38.8501 253.461 38.4751C252.336 38.2251 251.461 37.7251 250.711 37.1001C249.961 36.4751 249.211 35.7251 248.836 34.7251C248.336 33.8501 248.086 32.7251 248.086 31.4751C248.086 30.1001 248.336 28.8501 248.836 27.8501C249.336 26.8501 250.086 26.1001 250.961 25.4751C251.836 24.8501 252.836 24.3501 253.961 23.9751C255.086 23.6001 256.336 23.3501 257.461 23.2251C258.711 23.1001 259.961 22.9751 261.086 22.9751C262.336 22.9751 263.461 22.9751 264.461 22.9751C264.461 21.6001 263.961 20.6001 263.086 19.7251C262.211 18.9751 261.086 18.4751 259.711 18.4751C258.461 18.4751 257.336 18.7251 256.336 19.2251C255.336 19.7251 254.461 20.4751 253.586 21.3501L249.586 17.2251C250.961 15.9751 252.586 14.9751 254.461 14.2251C256.336 13.6001 258.336 13.2251 260.336 13.2251C262.586 13.2251 264.336 13.4751 265.836 14.1001C267.211 14.6001 268.336 15.4751 269.211 16.4751C270.086 17.7251 270.711 19.1001 270.961 20.6001C271.336 22.2251 271.461 23.9751 271.461 25.9751V38.3501H264.586V35.3501Z" fill="#313235"/>
<path d="M288.879 21.1963C287.754 19.8213 286.379 19.1963 284.504 19.1963C283.879 19.1963 283.254 19.3213 282.629 19.6963C282.004 19.9463 281.754 20.4463 281.754 21.1963C281.754 21.6963 282.004 22.1963 282.629 22.4463C283.254 22.6963 284.004 22.9463 285.004 23.1963C286.004 23.4463 287.004 23.6963 288.129 23.9463C289.254 24.1963 290.254 24.5713 291.254 25.0713C292.254 25.5713 293.004 26.3213 293.629 27.1963C294.254 28.0713 294.504 29.3213 294.504 30.9463C294.504 32.5713 294.129 33.8213 293.504 34.8213C292.879 35.8213 291.879 36.6963 290.879 37.3213C289.754 37.9463 288.629 38.3213 287.254 38.5713C285.879 38.8213 284.629 38.9463 283.254 38.9463C281.504 38.9463 279.879 38.6963 278.129 38.1963C276.379 37.6963 274.879 36.8213 273.754 35.5713L278.379 30.4463C278.879 31.4463 279.629 32.1963 280.504 32.5713C281.379 33.0713 282.379 33.3213 283.504 33.3213C284.379 33.3213 285.129 33.1963 285.879 32.9463C286.629 32.6963 286.879 32.1963 286.879 31.5713C286.879 30.9463 286.629 30.4463 286.004 30.1963C285.379 29.8213 284.629 29.5713 283.629 29.4463C282.629 29.0713 281.629 28.8213 280.504 28.5713C279.504 28.3213 278.504 27.9463 277.504 27.4463C276.504 26.9463 275.754 26.1963 275.129 25.3213C274.504 24.4463 274.254 23.1963 274.254 21.5713C274.254 20.0713 274.504 18.9463 275.129 17.8213C275.754 16.8213 276.504 15.9463 277.379 15.3213C278.379 14.6963 279.379 14.1963 280.629 13.8213C281.879 13.4463 283.129 13.3213 284.379 13.3213C286.004 13.4463 287.629 13.6963 289.379 14.0713C291.004 14.5713 292.379 15.3213 293.504 16.5713L288.879 21.1963Z" fill="#313235"/>
<path d="M39.6836 42.4326H44.6836V50.8076H54.3086V42.4326H59.3086V64.9326H54.3086V55.1826H44.6836V64.9326H39.6836V42.4326Z" fill="#313235"/>
<path d="M62.8516 42.4326H78.1016V47.0576H67.8516V51.1826H77.6016V55.8076H67.8516V60.4326H78.7266V64.9326H62.8516V42.4326Z" fill="#313235"/>
<path d="M91.8633 48.9863L89.1133 55.9863H94.6133L91.8633 48.9863ZM89.9883 42.4863H94.1133L103.863 64.9863H98.2383L96.3633 60.2363H87.6133L85.7383 64.9863H80.2383L89.9883 42.4863Z" fill="#313235"/>
<path d="M105.732 42.4326H110.732V60.4326H119.982V64.9326H105.732V42.4326Z" fill="#313235"/>
<path d="M124.779 46.9175H118.404V42.5425H136.154V46.9175H129.779V65.0425H124.779V46.9175Z" fill="#313235"/>
<path d="M138.674 42.4326H143.674V50.8076H153.299V42.4326H158.299V64.9326H153.299V55.1826H143.674V64.9326H138.674V42.4326Z" fill="#313235"/>
<path d="M103.275 31.7939H110.275C110.9 31.7939 111.525 31.6689 112.15 31.5439C112.775 31.4189 113.275 31.1689 113.775 30.9189C114.275 30.5439 114.65 30.1689 115.025 29.6689C115.4 29.1689 115.525 28.5439 115.525 27.6689C115.525 26.7939 115.275 26.1689 114.9 25.5439C114.525 25.0439 113.9 24.6689 113.275 24.4189C112.65 24.1689 112.025 23.9189 111.275 23.9189C110.525 23.7939 109.775 23.6689 109.15 23.6689H103.275V31.7939ZM103.275 17.0439H108.9C109.525 17.0439 110.15 16.9189 110.65 16.7939C111.275 16.6689 111.775 16.4189 112.275 16.1689C112.775 15.9189 113.15 15.4189 113.4 14.9189C113.65 14.4189 113.775 13.7939 113.775 13.1689C113.775 12.4189 113.65 11.7939 113.275 11.2939C112.9 10.7939 112.525 10.4189 112.025 10.1689C111.525 9.91895 110.9 9.66895 110.275 9.54395C109.65 9.41895 109.025 9.41895 108.4 9.41895H103.275C103.275 9.54395 103.275 17.0439 103.275 17.0439ZM95.4004 2.91895H108.65C110.15 2.91895 111.775 3.04395 113.275 3.29395C114.775 3.54395 116.275 3.91895 117.525 4.54395C118.775 5.16895 119.775 6.16895 120.525 7.29395C121.275 8.41895 121.65 10.0439 121.65 11.9189C121.65 13.9189 121.15 15.5439 120.025 16.9189C118.9 18.2939 117.4 19.1689 115.525 19.7939C116.65 19.9189 117.775 20.2939 118.775 20.7939C119.775 21.2939 120.525 21.9189 121.275 22.6689C122.025 23.4189 122.525 24.2939 122.9 25.2939C123.275 26.2939 123.4 27.4189 123.4 28.5439C123.4 30.4189 123.025 32.0439 122.15 33.2939C121.4 34.5439 120.275 35.5439 119.025 36.2939C117.775 37.0439 116.275 37.6689 114.775 37.9189C113.15 38.2939 111.525 38.4189 110.025 38.4189H95.4004V2.91895Z" fill="#313235"/>
</g>
<defs>
<clipPath id="clip0_2_1718">
<rect width="295" height="65.5" fill="white"/>
</clipPath>
</defs>
</svg>
