<svg width="385" height="142" viewBox="0 0 385 142" fill="none" xmlns="http://www.w3.org/2000/svg">
<g clip-path="url(#clip0_2_1535)">
<path d="M180.6 37.0999C180.9 38.3999 181.5 39.2999 182.6 39.9999C183.6 40.6999 185 40.9999 186.6 40.9999C188.4 40.9999 189.7 40.5999 190.7 39.7999C191.7 38.9999 192.2 37.7999 192.2 36.1999C192.2 33.7999 190.9 32.1999 188.4 31.2999L183.4 29.5999C179.8 28.3999 178 26.0999 178 22.6999V22.4999C178 20.0999 178.8 18.2999 180.3 16.8999C181.8 15.4999 184.1 14.8999 186.9 14.8999C188.5 14.8999 189.9 15.0999 190.9 15.4999C192 15.8999 192.9 16.5999 193.6 17.4999C194 17.9999 194.4 18.5999 194.6 19.2999C194.9 19.9999 195 20.5999 195 21.1999C195 21.4999 194.9 21.6999 194.8 21.7999C194.7 21.8999 194.5 21.8999 194.1 21.8999H192.7C192.4 21.8999 192.2 21.8999 192 21.7999C191.9 21.6999 191.8 21.4999 191.8 21.2999C191.4 18.7999 189.6 17.4999 186.4 17.4999C184.6 17.4999 183.3 17.8999 182.3 18.6999C181.3 19.4999 180.8 20.6999 180.8 22.0999C180.8 22.6999 180.9 23.2999 181 23.6999C181.1 24.1999 181.4 24.5999 181.7 24.9999C182 25.3999 182.5 25.6999 183 25.9999C183.5 26.2999 184.2 26.4999 185 26.7999L190 28.4999C191.7 29.0999 193 29.9999 193.9 31.1999C194.8 32.3999 195.2 33.8999 195.2 35.6999V35.8999C195.2 37.0999 195 38.0999 194.6 39.0999C194.2 40.0999 193.6 40.8999 192.9 41.4999C192.1 42.1999 191.2 42.6999 190.2 42.9999C189.2 43.2999 187.9 43.4999 186.6 43.4999C183.4 43.4999 181 42.6999 179.4 41.2999C178.8 40.7999 178.4 40.0999 178 39.2999C177.6 38.4999 177.4 37.6999 177.4 37.0999C177.4 36.7999 177.5 36.5999 177.6 36.4999C177.7 36.3999 177.9 36.3999 178.3 36.3999H179.7C180 36.3999 180.2 36.3999 180.3 36.4999C180.5 36.6999 180.6 36.8999 180.6 37.0999Z" fill="#313235"/>
<path d="M208.901 15C213.301 15 216.301 16.7 217.701 20.2C217.801 20.6 218.001 21 218.101 21.4C218.201 21.8 218.301 22.2 218.401 22.7C218.501 23.2 218.501 23.7 218.501 24.2C218.501 24.8 218.501 25.4 218.501 26.2V32.2C218.501 33 218.501 33.7 218.501 34.2C218.501 34.8 218.401 35.3 218.401 35.8C218.301 36.3 218.201 36.7 218.101 37.1C218.001 37.5 217.901 37.9 217.701 38.3C216.301 41.9 213.301 43.7 208.901 43.7C204.401 43.7 201.501 42 200.101 38.5C200.001 38.1 199.801 37.7 199.701 37.3C199.601 36.9 199.501 36.5 199.401 36C199.301 35.5 199.301 35 199.301 34.4C199.301 33.8 199.301 33.2 199.301 32.4V26.4C199.301 25.6 199.301 24.9 199.301 24.4C199.301 23.8 199.401 23.3 199.401 22.8C199.501 22.3 199.501 21.9 199.701 21.5C199.901 21.1 199.901 20.7 200.101 20.3C201.601 16.8 204.501 15 208.901 15ZM208.901 17.7C206.601 17.7 205.001 18.3 204.001 19.6C203.001 20.9 202.501 23 202.501 25.9V32.8C202.501 35.7 203.001 37.8 204.001 39.1C205.001 40.4 206.701 41.1 208.901 41.1C211.101 41.1 212.801 40.5 213.801 39.1C214.801 37.8 215.301 35.7 215.301 32.8V25.9C215.301 23 214.801 20.9 213.801 19.6C212.901 18.4 211.201 17.7 208.901 17.7Z" fill="#313235"/>
<path d="M238.701 35.7999C238.701 35.4999 238.801 35.2999 238.901 35.2999C239.001 35.1999 239.201 35.1999 239.601 35.1999H241.001C241.301 35.1999 241.601 35.1999 241.701 35.2999C241.801 35.3999 241.901 35.5999 241.901 35.8999C241.901 36.9999 241.701 37.8999 241.401 38.8999C241.001 39.7999 240.601 40.5999 239.901 41.1999C238.201 42.8999 235.701 43.6999 232.601 43.6999C230.501 43.6999 228.701 43.2999 227.201 42.4999C225.701 41.6999 224.601 40.3999 223.901 38.6999C223.601 37.8999 223.401 37.0999 223.301 36.1999C223.201 35.2999 223.101 34.0999 223.101 32.6999V26.3999C223.101 24.8999 223.201 23.6999 223.301 22.7999C223.401 21.8999 223.601 20.9999 223.901 20.2999C224.601 18.4999 225.701 17.1999 227.201 16.2999C228.701 15.3999 230.601 14.8999 232.901 14.8999C236.201 14.8999 238.501 15.6999 240.001 17.3999C241.301 18.7999 241.901 20.4999 241.901 22.5999C241.901 22.8999 241.801 23.0999 241.701 23.1999C241.601 23.2999 241.401 23.2999 241.001 23.2999H239.601C239.301 23.2999 239.001 23.2999 238.901 23.1999C238.801 23.0999 238.701 22.8999 238.701 22.6999C238.401 19.2999 236.501 17.5999 232.701 17.5999C230.401 17.5999 228.801 18.1999 227.801 19.4999C226.801 20.7999 226.301 22.8999 226.301 25.7999V32.6999C226.301 35.5999 226.801 37.5999 227.801 38.8999C228.801 40.1999 230.401 40.7999 232.701 40.7999C236.401 40.9999 238.401 39.2999 238.701 35.7999Z" fill="#313235"/>
<path d="M249.6 42.3997C249.6 42.6997 249.5 42.8997 249.4 42.9997C249.3 43.0997 249.1 43.0997 248.8 43.0997H247.3C247 43.0997 246.8 43.0997 246.7 42.9997C246.6 42.8997 246.5 42.6997 246.5 42.3997V16.3997C246.5 16.0997 246.6 15.8997 246.7 15.7997C246.8 15.6997 247 15.6997 247.3 15.6997H248.8C249.1 15.6997 249.3 15.7997 249.4 15.7997C249.5 15.8997 249.6 16.0997 249.6 16.3997V42.3997Z" fill="#313235"/>
<path d="M271.5 42.3997C271.5 42.6997 271.4 42.8997 271.3 42.9997C271.2 43.0997 271 43.0997 270.7 43.0997H256.3C256 43.0997 255.8 43.0997 255.7 42.9997C255.6 42.8997 255.5 42.6997 255.5 42.3997V16.3997C255.5 16.0997 255.6 15.8997 255.7 15.7997C255.8 15.6997 256 15.6997 256.3 15.6997H270.6C270.9 15.6997 271.1 15.7997 271.2 15.7997C271.3 15.8997 271.4 16.0997 271.4 16.3997V17.4997C271.4 17.7997 271.3 17.9997 271.2 18.0997C271.1 18.1997 270.9 18.1997 270.6 18.1997H258.6V27.5997H269.6C269.9 27.5997 270.1 27.5997 270.2 27.6997C270.3 27.7997 270.4 27.9997 270.4 28.2997V29.3997C270.4 29.6997 270.3 29.8997 270.2 29.9997C270.1 30.0997 269.9 30.0997 269.6 30.0997H258.6V40.2997H270.8C271.1 40.2997 271.3 40.2997 271.4 40.3997C271.5 40.4997 271.6 40.6997 271.6 40.9997L271.5 42.3997Z" fill="#313235"/>
<path d="M282.9 18.2998H275.5C275.2 18.2998 275 18.1998 274.9 18.1998C274.8 18.0998 274.7 17.8998 274.7 17.5998V16.4998C274.7 16.1998 274.8 15.9998 274.9 15.8998C275 15.7998 275.2 15.7998 275.5 15.7998H293.4C293.7 15.7998 293.9 15.8998 294 15.8998C294.1 15.9998 294.2 16.1998 294.2 16.4998V17.5998C294.2 17.8998 294.1 18.0998 294 18.1998C293.9 18.2998 293.7 18.2998 293.4 18.2998H286V42.3998C286 42.6998 285.9 42.8998 285.8 42.9998C285.7 43.0998 285.5 43.0998 285.2 43.0998H283.7C283.4 43.0998 283.2 43.0998 283.1 42.9998C283 42.8998 282.9 42.6998 282.9 42.3998V18.2998Z" fill="#313235"/>
<path d="M298.301 15.6001C298.601 15.6001 298.801 15.6001 299.001 15.7001C299.201 15.8001 299.301 16.0001 299.401 16.2001L306.001 29.5001L312.501 16.2001C312.601 15.9001 312.801 15.7001 312.901 15.7001C313.001 15.7001 313.301 15.6001 313.601 15.6001H315.101C315.601 15.6001 315.801 15.7001 315.801 16.1001C315.801 16.2001 315.801 16.3001 315.701 16.5001L307.501 32.7001V42.3001C307.501 42.6001 307.401 42.8001 307.301 42.9001C307.201 43.0001 307.001 43.0001 306.701 43.0001H305.201C304.901 43.0001 304.701 43.0001 304.601 42.9001C304.501 42.8001 304.401 42.6001 304.401 42.3001V32.7001L296.201 16.5001C296.101 16.4001 296.101 16.2001 296.101 16.1001C296.101 15.8001 296.301 15.6001 296.801 15.6001H298.301Z" fill="#313235"/>
<path d="M336.1 15C340.5 15 343.5 16.7 344.9 20.2C345.1 20.6 345.2 21 345.3 21.4C345.4 21.8 345.5 22.2 345.6 22.7C345.7 23.2 345.7 23.7 345.7 24.2C345.7 24.8 345.7 25.4 345.7 26.2V32.2C345.7 33 345.7 33.7 345.7 34.2C345.7 34.8 345.6 35.3 345.6 35.8C345.5 36.3 345.4 36.7 345.3 37.1C345.2 37.5 345.1 37.9 344.9 38.3C343.5 41.9 340.5 43.7 336.1 43.7C331.6 43.7 328.7 42 327.3 38.5C327.1 38.1 327 37.7 326.9 37.3C326.8 36.9 326.7 36.5 326.6 36C326.5 35.5 326.5 35 326.5 34.4C326.5 33.8 326.5 33.2 326.5 32.4V26.4C326.5 25.6 326.5 24.9 326.5 24.4C326.5 23.8 326.6 23.3 326.6 22.8C326.7 22.3 326.8 21.9 326.9 21.5C327 21.1 327.1 20.7 327.3 20.3C328.8 16.8 331.7 15 336.1 15ZM336.1 17.7C333.8 17.7 332.2 18.3 331.2 19.6C330.2 20.9 329.7 23 329.7 25.9V32.8C329.7 35.7 330.2 37.8 331.2 39.1C332.2 40.4 333.9 41.1 336.1 41.1C338.3 41.1 340 40.5 341 39.1C342 37.8 342.5 35.7 342.5 32.8V25.9C342.5 23 342 20.9 341 19.6C340.1 18.4 338.4 17.7 336.1 17.7Z" fill="#313235"/>
<path d="M354.1 29.9997V42.3997C354.1 42.6997 354 42.8997 353.9 42.9997C353.8 43.0997 353.6 43.0997 353.3 43.0997H351.8C351.5 43.0997 351.3 43.0997 351.2 42.9997C351.1 42.8997 351 42.6997 351 42.3997V16.3997C351 16.0997 351.1 15.8997 351.2 15.7997C351.3 15.6997 351.5 15.6997 351.8 15.6997H366C366.3 15.6997 366.5 15.7997 366.6 15.7997C366.7 15.8997 366.8 16.0997 366.8 16.3997V17.4997C366.8 17.7997 366.7 17.9997 366.6 18.0997C366.5 18.1997 366.3 18.1997 366 18.1997H354.1V27.2997H365C365.3 27.2997 365.5 27.2997 365.6 27.3997C365.7 27.4997 365.8 27.6997 365.8 27.9997V29.0997C365.8 29.3997 365.7 29.5997 365.6 29.6997C365.5 29.7997 365.3 29.7997 365 29.7997L354.1 29.9997Z" fill="#313235"/>
<path d="M179.601 84.5997C179.301 84.5997 179.101 84.5997 179.001 84.4997C178.901 84.3997 178.801 84.1997 178.801 83.8997V57.8997C178.801 57.5997 178.901 57.3997 179.001 57.2997C179.101 57.1997 179.301 57.1997 179.601 57.1997H188.401C190.901 57.1997 192.901 57.7997 194.301 58.9997C195.701 60.1997 196.401 61.8997 196.401 64.0997V64.5997C196.401 65.7997 196.101 66.8997 195.501 67.9997C194.901 69.0997 194.001 69.7997 192.901 70.1997C194.001 70.4997 195.001 71.1997 195.701 72.2997C196.401 73.3997 196.801 74.6997 196.801 76.0997V76.6997C196.801 78.0997 196.601 79.3997 196.201 80.2997C195.801 81.2997 195.201 82.0997 194.501 82.6997C193.701 83.2997 192.801 83.7997 191.701 84.0997C190.601 84.3997 189.301 84.4997 187.901 84.4997L179.601 84.5997ZM181.801 59.7997V68.7997H188.301C189.901 68.7997 191.101 68.4997 191.901 67.7997C192.701 67.1997 193.101 66.0997 193.101 64.5997V64.0997C193.101 62.5997 192.701 61.5997 191.901 60.8997C191.101 60.1997 189.801 59.8997 188.001 59.8997H181.801V59.7997ZM181.801 81.9997H187.901C189.601 81.9997 191.001 81.5997 191.901 80.8997C192.901 80.0997 193.401 78.8997 193.401 77.0997V76.2997C193.401 74.7997 193.001 73.6997 192.201 72.7997C191.401 71.8997 190.201 71.4997 188.701 71.4997H181.901L181.801 81.9997Z" fill="#313235"/>
<path d="M217.7 83.8997C217.7 84.1997 217.6 84.3997 217.5 84.4997C217.4 84.5997 217.2 84.5997 216.9 84.5997H202.5C202.2 84.5997 202 84.5997 201.9 84.4997C201.8 84.3997 201.7 84.1997 201.7 83.8997V57.8997C201.7 57.5997 201.8 57.3997 201.9 57.2997C202 57.1997 202.2 57.1997 202.5 57.1997H216.8C217.1 57.1997 217.3 57.1997 217.4 57.2997C217.5 57.3997 217.6 57.5997 217.6 57.8997V58.9997C217.6 59.2997 217.5 59.4997 217.4 59.5997C217.3 59.6997 217.1 59.6997 216.8 59.6997H204.8V69.0997H215.8C216.1 69.0997 216.3 69.0997 216.4 69.1997C216.5 69.2997 216.6 69.4997 216.6 69.7997V70.9997C216.6 71.2997 216.5 71.4997 216.4 71.5997C216.3 71.6997 216.1 71.6997 215.8 71.6997H204.8V81.9997H217C217.3 81.9997 217.5 81.9997 217.6 82.0997C217.7 82.1997 217.8 82.3997 217.8 82.6997L217.7 83.8997Z" fill="#313235"/>
<path d="M241.8 83.9001C241.8 84.2001 241.7 84.4001 241.6 84.5001C241.5 84.6001 241.3 84.6001 241 84.6001H239.5C239.2 84.6001 239 84.6001 238.9 84.5001C238.8 84.4001 238.7 84.2001 238.7 83.9001V71.4001H226V83.8001C226 84.1001 225.9 84.3001 225.8 84.4001C225.7 84.5001 225.5 84.5001 225.2 84.5001H223.7C223.4 84.5001 223.2 84.5001 223.1 84.4001C223 84.3001 222.9 84.1001 222.9 83.8001V57.8001C222.9 57.5001 223 57.3001 223.1 57.2001C223.2 57.1001 223.4 57.1001 223.7 57.1001H225.2C225.5 57.1001 225.7 57.1001 225.8 57.2001C225.9 57.3001 226 57.5001 226 57.8001V68.6001H238.7V57.9001C238.7 57.6001 238.8 57.4001 238.9 57.3001C239 57.2001 239.2 57.2001 239.5 57.2001H241C241.3 57.2001 241.5 57.2001 241.6 57.3001C241.7 57.4001 241.8 57.6001 241.8 57.9001V83.9001Z" fill="#313235"/>
<path d="M267.4 83.8001C267.4 83.9001 267.5 84.1001 267.5 84.2001C267.5 84.5001 267.3 84.7001 266.9 84.7001H265.2C264.9 84.7001 264.7 84.7001 264.5 84.6001C264.4 84.5001 264.3 84.3001 264.2 84.1001L261.9 77.2001H250.8L248.6 84.1001C248.5 84.4001 248.4 84.6001 248.3 84.6001C248.2 84.7001 248 84.7001 247.6 84.7001H246C245.6 84.7001 245.4 84.6001 245.4 84.2001C245.4 84.1001 245.4 84.0001 245.5 83.8001L254.3 58.0001C254.4 57.7001 254.5 57.5001 254.7 57.3001C254.9 57.1001 255.1 57.1001 255.4 57.1001H257.9C258.2 57.1001 258.4 57.2001 258.6 57.3001C258.7 57.4001 258.8 57.7001 259 57.9001L267.4 83.8001ZM251.6 74.4001H261L256.4 60.2001L251.6 74.4001Z" fill="#313235"/>
<path d="M266.401 57.9C266.401 57.8 266.301 57.6 266.301 57.5C266.301 57.2 266.501 57 266.901 57H268.601C268.901 57 269.101 57 269.201 57.1C269.301 57.2 269.401 57.4 269.501 57.7L276.601 80.3L283.601 57.7C283.701 57.4 283.801 57.2 283.901 57.1C284.001 57 284.201 57 284.501 57H286.101C286.501 57 286.701 57.1 286.701 57.5C286.701 57.6 286.701 57.7 286.601 57.9L278.401 83.7C278.301 84 278.201 84.2 278.001 84.4C277.801 84.6 277.601 84.6 277.301 84.6H275.401C275.101 84.6 274.901 84.5 274.701 84.4C274.501 84.3 274.501 84 274.301 83.7L266.401 57.9Z" fill="#313235"/>
<path d="M293.5 83.8997C293.5 84.1997 293.4 84.3997 293.3 84.4997C293.2 84.5997 293 84.5997 292.7 84.5997H291.2C290.9 84.5997 290.7 84.5997 290.6 84.4997C290.5 84.3997 290.4 84.1997 290.4 83.8997V57.8997C290.4 57.5997 290.5 57.3997 290.6 57.2997C290.7 57.1997 290.9 57.1997 291.2 57.1997H292.7C293 57.1997 293.2 57.1997 293.3 57.2997C293.4 57.3997 293.5 57.5997 293.5 57.8997V83.8997Z" fill="#313235"/>
<path d="M308.3 56.5C312.7 56.5 315.7 58.3 317.1 61.7C317.3 62.1 317.4 62.5 317.5 62.9C317.6 63.3 317.7 63.7 317.8 64.2C317.9 64.7 317.9 65.2 317.9 65.7C317.9 66.2 317.9 66.9 317.9 67.7V73.7C317.9 74.5 317.9 75.2 317.9 75.7C317.9 76.3 317.8 76.8 317.8 77.3C317.7 77.8 317.6 78.2 317.5 78.6C317.4 79 317.3 79.4 317.1 79.8C315.7 83.4 312.7 85.2 308.3 85.2C303.8 85.2 300.9 83.5 299.5 80C299.4 79.6 299.2 79.2 299.1 78.8C299 78.4 298.9 78 298.8 77.5C298.7 77 298.7 76.5 298.7 75.9C298.7 75.3 298.7 74.7 298.7 73.9V67.9C298.7 67.1 298.7 66.4 298.7 65.9C298.7 65.3 298.8 64.8 298.8 64.3C298.9 63.8 298.9 63.4 299.1 63C299.3 62.6 299.3 62.2 299.5 61.8C301 58.3 303.9 56.5 308.3 56.5ZM308.3 59.2C306 59.2 304.4 59.8 303.4 61.2C302.4 62.5 301.9 64.6 301.9 67.5V74.4C301.9 77.3 302.4 79.4 303.4 80.7C304.4 82 306.1 82.7 308.3 82.7C310.5 82.7 312.2 82.1 313.2 80.7C314.2 79.4 314.7 77.3 314.7 74.4V67.5C314.7 64.6 314.2 62.5 313.2 61.2C312.3 59.9 310.6 59.2 308.3 59.2Z" fill="#313235"/>
<path d="M326.2 72.9997V83.8997C326.2 84.1997 326.1 84.3997 326 84.4997C325.9 84.5997 325.7 84.5997 325.4 84.5997H324C323.7 84.5997 323.5 84.5997 323.4 84.4997C323.3 84.3997 323.2 84.1997 323.2 83.8997V57.8997C323.2 57.5997 323.3 57.3997 323.4 57.2997C323.5 57.1997 323.7 57.1997 324 57.1997H331.7C334.6 57.1997 336.8 57.7997 338.3 58.8997C339.8 59.9997 340.5 61.9997 340.5 64.7997V65.4997C340.5 67.4997 340 69.0997 339.1 70.2997C338.2 71.4997 336.9 72.2997 335.1 72.6997L341.4 83.8997C341.5 83.9997 341.5 84.1997 341.5 84.2997C341.5 84.5997 341.3 84.6997 340.8 84.6997H339C338.7 84.6997 338.5 84.6997 338.4 84.5997C338.3 84.4997 338.1 84.2997 337.9 83.9997L331.9 73.0997H326.2V72.9997ZM326.2 70.3997H331.8C333 70.3997 334 70.2997 334.7 69.9997C335.4 69.6997 336 69.3997 336.4 68.9997C336.8 68.5997 337 67.9997 337.2 67.4997C337.3 66.8997 337.4 66.2997 337.4 65.5997V64.9997C337.4 64.2997 337.3 63.5997 337.2 62.9997C337.1 62.3997 336.8 61.7997 336.4 61.3997C336 60.8997 335.5 60.5997 334.7 60.2997C334 59.9997 333 59.8997 331.8 59.8997H326.2V70.3997Z" fill="#313235"/>
<path d="M366 83.8001C366 83.9001 366.1 84.1001 366.1 84.2001C366.1 84.5001 365.9 84.7001 365.5 84.7001H363.8C363.5 84.7001 363.3 84.7001 363.1 84.6001C362.9 84.5001 362.9 84.3001 362.8 84.1001L360.5 77.2001H349.4L347.2 84.1001C347.1 84.4001 347 84.6001 346.9 84.6001C346.8 84.6001 346.6 84.7001 346.2 84.7001H344.6C344.2 84.7001 344 84.6001 344 84.2001C344 84.1001 344 84.0001 344.1 83.8001L352.9 58.0001C353 57.7001 353.1 57.5001 353.2 57.3001C353.3 57.1001 353.5 57.1001 353.9 57.1001H356.4C356.7 57.1001 356.9 57.2001 357.1 57.3001C357.2 57.4001 357.3 57.7001 357.4 57.9001L366 83.8001ZM350.3 74.4001H359.6L355 60.2001L350.3 74.4001Z" fill="#313235"/>
<path d="M384.8 83.8997C384.8 84.1997 384.7 84.3997 384.6 84.4997C384.5 84.5997 384.3 84.5997 384 84.5997H370.5C370.2 84.5997 370 84.5997 369.9 84.4997C369.8 84.3997 369.7 84.1997 369.7 83.8997V57.8997C369.7 57.5997 369.8 57.3997 369.9 57.2997C370 57.1997 370.2 57.1997 370.5 57.1997H372C372.3 57.1997 372.5 57.1997 372.6 57.2997C372.7 57.3997 372.8 57.5997 372.8 57.8997V81.9997H384C384.3 81.9997 384.5 81.9997 384.6 82.0997C384.7 82.1997 384.8 82.3997 384.8 82.6997V83.8997Z" fill="#313235"/>
<path d="M189.001 117.9C188.701 117.9 188.501 117.9 188.301 117.8C188.201 117.7 188.001 117.5 187.901 117.2L181.801 104V125.4C181.801 125.7 181.701 125.9 181.601 126C181.501 126.1 181.301 126.1 181.001 126.1H179.601C179.301 126.1 179.101 126.1 179.001 126C178.901 125.9 178.801 125.7 178.801 125.4V99.3997C178.801 99.0997 178.901 98.8997 179.001 98.7997C179.101 98.6997 179.301 98.6997 179.601 98.6997H181.701C182.001 98.6997 182.201 98.6997 182.401 98.7997C182.501 98.8997 182.701 99.0997 182.801 99.3997L189.801 114.7L197.001 99.3997C197.101 99.0997 197.301 98.8997 197.401 98.7997C197.501 98.6997 197.801 98.6997 198.101 98.6997H200.101C200.401 98.6997 200.601 98.6997 200.701 98.7997C200.801 98.8997 200.901 99.0997 200.901 99.3997V125.4C200.901 125.7 200.801 125.9 200.701 126C200.601 126.1 200.401 126.1 200.101 126.1H198.701C198.401 126.1 198.201 126.1 198.101 126C198.001 125.9 197.901 125.7 197.901 125.4V104L191.601 117.2C191.501 117.5 191.301 117.7 191.201 117.8C191.101 117.9 190.801 117.9 190.501 117.9H189.001Z" fill="#313235"/>
<path d="M222.801 125.4C222.801 125.7 222.701 125.9 222.601 126C222.501 126.1 222.301 126.1 222.001 126.1H207.601C207.301 126.1 207.101 126.1 207.001 126C206.901 125.9 206.801 125.7 206.801 125.4V99.3997C206.801 99.0997 206.901 98.8997 207.001 98.7997C207.101 98.6997 207.301 98.6997 207.601 98.6997H221.901C222.201 98.6997 222.401 98.6997 222.501 98.7997C222.601 98.8997 222.701 99.0997 222.701 99.3997V100.5C222.701 100.8 222.601 101 222.501 101.1C222.401 101.2 222.201 101.2 221.901 101.2H209.901V110.6H220.901C221.201 110.6 221.401 110.6 221.501 110.7C221.601 110.8 221.701 111 221.701 111.3V112.4C221.701 112.7 221.601 112.9 221.501 113C221.401 113.1 221.201 113.1 220.901 113.1H209.901V123.3H222.001C222.301 123.3 222.501 123.3 222.601 123.4C222.701 123.5 222.801 123.7 222.801 124V125.4Z" fill="#313235"/>
<path d="M236.6 98.6001C238.7 98.6001 240.6 99.1001 242.1 100C243.7 100.9 244.7 102.1 245.3 103.7C245.9 105.3 246.2 107.3 246.2 109.6V115.4C246.2 116.7 246.1 117.8 246 118.7C245.9 119.6 245.6 120.4 245.3 121.2C244.7 122.8 243.6 124 242.1 124.9C240.6 125.8 238.8 126.2 236.7 126.2H228.7C228.4 126.2 228.2 126.2 228.1 126.1C228 126 227.9 125.8 227.9 125.5V99.5001C227.9 99.2001 228 99.0001 228.1 98.9001C228.2 98.8001 228.4 98.8001 228.7 98.8001H236.6V98.6001ZM231.1 123.5H236.6C238.9 123.5 240.5 122.9 241.6 121.6C242.6 120.3 243.2 118.3 243.2 115.5V109.3C243.2 106.5 242.7 104.5 241.6 103.2C240.5 101.9 238.9 101.3 236.6 101.3H231.1V123.5Z" fill="#313235"/>
<path d="M254.5 125.4C254.5 125.7 254.4 125.9 254.3 126C254.2 126.1 254 126.1 253.7 126.1H252.2C251.9 126.1 251.7 126.1 251.6 126C251.5 125.9 251.4 125.7 251.4 125.4V99.3997C251.4 99.0997 251.5 98.8997 251.6 98.7997C251.7 98.6997 251.9 98.6997 252.2 98.6997H253.7C254 98.6997 254.2 98.6997 254.3 98.7997C254.4 98.8997 254.5 99.0997 254.5 99.3997V125.4Z" fill="#313235"/>
<path d="M275.3 118.8C275.3 118.5 275.4 118.3 275.5 118.3C275.6 118.2 275.8 118.2 276.2 118.2H277.6C277.9 118.2 278.2 118.2 278.3 118.3C278.4 118.4 278.5 118.6 278.5 118.9C278.5 120 278.3 120.9 278 121.9C277.7 122.9 277.2 123.6 276.5 124.2C274.8 125.9 272.3 126.7 269.2 126.7C267.1 126.7 265.3 126.3 263.8 125.5C262.3 124.7 261.2 123.4 260.5 121.7C260.2 120.9 260 120.1 259.9 119.2C259.8 118.3 259.7 117.1 259.7 115.7V109.4C259.7 107.9 259.8 106.7 259.9 105.8C260 104.9 260.2 104 260.5 103.3C261.2 101.5 262.3 100.2 263.8 99.2999C265.3 98.3999 267.2 97.8999 269.5 97.8999C272.8 97.8999 275.1 98.6999 276.6 100.4C277.9 101.8 278.5 103.5 278.5 105.6C278.5 105.9 278.4 106.1 278.3 106.2C278.2 106.3 278 106.4 277.6 106.4H276.2C275.9 106.4 275.6 106.4 275.5 106.3C275.4 106.2 275.3 106 275.3 105.8C275 102.4 273.1 100.7 269.3 100.7C267 100.7 265.4 101.3 264.4 102.6C263.4 103.9 262.9 106 262.9 108.9V115.8C262.9 118.7 263.4 120.7 264.4 122C265.4 123.3 267 123.9 269.3 123.9C273 124 275 122.3 275.3 118.8Z" fill="#313235"/>
<path d="M286.201 125.4C286.201 125.7 286.101 125.9 286.001 126C285.901 126.1 285.701 126.1 285.401 126.1H283.901C283.601 126.1 283.401 126.1 283.301 126C283.201 125.9 283.101 125.7 283.101 125.4V99.3997C283.101 99.0997 283.201 98.8997 283.301 98.7997C283.401 98.6997 283.601 98.6997 283.901 98.6997H285.401C285.701 98.6997 285.901 98.6997 286.001 98.7997C286.101 98.8997 286.201 99.0997 286.201 99.3997V125.4Z" fill="#313235"/>
<path d="M295.101 103.8V125.3C295.101 125.6 295.001 125.8 294.901 125.9C294.801 126 294.601 126 294.301 126H292.901C292.601 126 292.401 126 292.301 125.9C292.201 125.8 292.101 125.6 292.101 125.3V99.3001C292.101 99.0001 292.201 98.8001 292.301 98.7001C292.401 98.6001 292.601 98.6001 292.901 98.6001H294.801C295.101 98.6001 295.301 98.6001 295.401 98.7001C295.501 98.8001 295.701 99.0001 295.801 99.3001L307.201 120.8V99.4001C307.201 99.1001 307.301 98.9001 307.401 98.8001C307.501 98.7001 307.701 98.7001 308.001 98.7001H309.401C309.701 98.7001 309.901 98.7001 310.001 98.8001C310.101 98.9001 310.201 99.1001 310.201 99.4001V125.4C310.201 125.7 310.101 125.9 310.001 126C309.901 126.1 309.701 126.1 309.401 126.1H307.501C307.201 126.1 307.001 126.1 306.901 126C306.801 125.9 306.601 125.7 306.501 125.4L295.101 103.8Z" fill="#313235"/>
<path d="M332.2 125.4C332.2 125.7 332.1 125.9 332 126C331.9 126.1 331.7 126.1 331.4 126.1H317C316.7 126.1 316.5 126.1 316.4 126C316.3 125.9 316.2 125.7 316.2 125.4V99.3997C316.2 99.0997 316.3 98.8997 316.4 98.7997C316.5 98.6997 316.7 98.6997 317 98.6997H331.3C331.6 98.6997 331.8 98.6997 331.9 98.7997C332 98.8997 332.1 99.0997 332.1 99.3997V100.5C332.1 100.8 332 101 331.9 101.1C331.8 101.2 331.6 101.2 331.3 101.2H319.3V110.6H330.3C330.6 110.6 330.8 110.6 330.9 110.7C331 110.8 331.1 111 331.1 111.3V112.4C331.1 112.7 331 112.9 330.9 113C330.8 113.1 330.6 113.1 330.3 113.1H319.3V123.3H331.5C331.8 123.3 332 123.3 332.1 123.4C332.2 123.5 332.3 123.7 332.3 124L332.2 125.4Z" fill="#313235"/>
<path d="M141.8 66.3001C140.6 46.8001 132.2 29.3001 118.4 17.1001C110.2 9.90005 100.4 4.90005 89.8005 2.20005C82.4005 0.400052 74.6005 -0.399948 66.5005 0.100052C46.3005 1.40005 28.4005 10.1001 16.1005 24.7001C4.60046 38.4001 -0.999537 56.3001 0.200463 75.3001C1.40046 94.8001 9.80046 112.3 23.6005 124.5C31.8005 131.7 41.6005 136.7 52.2005 139.4C59.6005 141.2 67.4005 142 75.5005 141.4C95.7005 140.1 113.6 131.4 125.9 116.8C137.3 103.2 143 85.2001 141.8 66.3001ZM74.8005 136.5H74.0005C72.5005 136.6 67.9005 136.7 62.3005 136.2C59.3005 135.9 56.4005 135.3 53.6005 134.6C43.7005 132.1 34.6005 127.4 26.9005 120.7C13.9005 109.5 6.20046 93.2001 5.00046 75.0001C3.90046 57.1001 9.20046 40.3001 20.1005 27.6001C24.3005 22.6001 29.3005 18.4001 34.8005 15.0001C28.4005 22.6001 25.2005 32.5001 26.0005 43.7001C26.4005 49.2001 27.6005 54.2001 29.6005 58.8001C28.4005 63.6001 27.9005 68.6001 28.2005 73.6001C29.5005 93.4001 42.0005 108.8 59.3005 113.4C63.8005 114.6 68.7005 115.1 73.7005 114.8C85.0005 114.1 95.3005 109.2 102.6 101.1C105.5 97.9001 107.8 94.3001 109.7 90.4001C110.4 92.9001 110.8 95.6001 111 98.4001C112.4 119.7 97.8005 135 74.8005 136.5ZM53.5005 44.1001C53.9005 50.5001 57.7005 55.3001 64.0005 57.1001L73.9005 59.8001L84.8005 62.7001C97.7005 65.8001 103.8 74.8001 107.2 83.4001C105.5 88.9001 102.7 93.8001 98.9005 97.9001C95.4005 101.7 91.2005 104.7 86.5005 106.7C87.5005 104.7 88.6005 99.9001 88.4005 97.4001C88.0005 91.1001 84.3005 86.0001 77.9005 84.3001L68.0005 81.6001L57.2005 78.6001C46.4005 75.7001 38.8005 67.6001 34.8005 58.1001C36.5005 52.6001 39.3005 47.7001 43.1005 43.6001C46.5005 39.8001 50.8005 36.8001 55.5005 34.8001C54.5005 36.8001 53.4005 41.6001 53.5005 44.1001ZM68.9005 31.8001C69.5005 31.7001 70.1005 31.7001 70.7005 31.6001C71.2005 31.6001 71.6005 31.6001 72.0005 31.5001C75.2005 31.6001 78.3005 32.1001 81.3005 32.9001C96.6005 37.1001 107.7 50.7001 108.9 68.3001C109.1 71.0001 109.1 72.7001 108.8 75.3001C105.1 67.7001 97.6005 61.0001 86.4005 58.1001L75.3005 55.1001L65.3005 52.4001C61.2005 51.3001 58.8005 48.1001 58.5005 43.8001C58.1005 38.4001 62.6005 32.2001 68.9005 31.8001ZM55.7005 83.1001L66.8005 86.1001L76.8005 88.8001C80.9005 89.9001 83.3005 93.3001 83.5005 97.7001C83.9005 103.1 79.4005 109.3 73.0005 109.7C72.4005 109.8 71.8005 109.8 71.2005 109.9C70.7005 109.9 70.3005 109.9 69.9005 110C66.7005 109.9 63.6005 109.4 60.6005 108.6C45.3005 104.4 34.2005 90.8001 33.0005 73.2001C32.8005 70.5001 32.9005 67.8001 33.2005 65.2001C37.6005 72.1001 45.7005 80.4001 55.7005 83.1001ZM121.8 114C117.6 119 112.6 123.2 107.1 126.6C113.6 119 116.3 109.2 115.6 98.0001C115.2 92.5001 114.1 87.6001 112.4 82.8001C113.6 78.0001 114.1 73.0001 113.8 68.0001C112.5 48.2001 100 32.8001 82.7005 28.2001C78.2005 27.0001 73.3005 26.5001 68.3005 26.8001C57.0005 27.5001 46.7005 32.4001 39.4005 40.5001C36.5005 43.7001 34.2005 47.3001 32.3005 51.2001C31.6005 48.7001 31.2005 46.0001 31.0005 43.2001C29.6005 21.9001 44.1005 6.50005 67.2005 5.10005L68.0005 5.00005C69.5005 4.90005 74.1005 4.80005 79.7005 5.30005C82.7005 5.60005 85.6005 6.20005 88.4005 6.90005C98.3005 9.40005 107.4 14.1001 115.1 20.8001C128 32.1001 135.7 48.4001 136.9 66.7001C138 84.4001 132.7 101.3 121.8 114Z" fill="url(#paint0_linear_2_1535)"/>
</g>
<defs>
<linearGradient id="paint0_linear_2_1535" x1="70.9661" y1="141.579" x2="70.9661" y2="-0.206645" gradientUnits="userSpaceOnUse">
<stop stop-color="#474747"/>
<stop offset="0.5015" stop-color="#B6B6B6"/>
</linearGradient>
<clipPath id="clip0_2_1535">
<rect width="384.8" height="141.6" fill="white"/>
</clipPath>
</defs>
</svg>
