<svg width="661" height="423" viewBox="0 0 661 423" fill="none" xmlns="http://www.w3.org/2000/svg">
<g clip-path="url(#clip0_2_1995)">
<path d="M606.496 70.1751C611.223 64.8841 619.288 62.3779 630.689 62.3779C641.256 62.3779 651.267 62.9348 661 64.0487V2.22778C654.048 1.67084 646.818 1.39236 639.588 0.835418C632.358 0.278473 624.849 0 617.619 0C583.971 0 558.666 8.63265 542.259 25.6195C525.574 42.6063 517.232 64.6057 517.232 91.339V114.452H471.904V0H389.036V151.211H387.924C378.747 136.452 365.955 125.313 349.827 117.794C333.698 110.275 316.735 106.377 298.938 106.377C276.969 106.377 257.504 110.832 240.819 119.465C224.134 128.097 210.23 139.793 199.385 153.995C196.882 157.059 194.935 160.122 192.711 163.463V114.452H132.367V24.5056H49.7766V114.731H0V169.868H49.7766V347.255C49.7766 362.293 52.2793 374.546 57.2848 384.014C62.2903 393.482 69.2423 400.444 77.8629 405.456C86.4834 410.469 96.7724 413.81 108.174 415.481C119.575 417.152 131.811 417.988 144.602 417.988C152.667 417.988 161.009 417.709 169.63 417.431C178.25 417.152 186.037 416.317 192.989 415.203V364.521C195.213 367.862 197.438 371.204 199.663 374.546C210.786 389.583 224.69 401.279 241.653 409.912C258.616 418.544 278.36 423 300.884 423C320.628 423 338.425 419.38 353.998 412.14C369.57 404.899 382.362 393.203 392.095 377.052H393.207V415.481H471.626V170.147H516.954V415.481H599.544V170.147H656.551V115.009H599.544V96.9085C599.266 84.0987 601.769 75.4661 606.496 70.1751ZM180.475 353.103C176.304 353.382 171.854 353.66 167.127 353.66C153.223 353.66 143.768 351.433 139.319 346.698C134.87 341.964 132.367 332.775 132.367 318.851V169.868H189.095C182.978 180.172 178.25 191.589 174.635 203.842C169.074 222.778 166.293 242.271 166.293 262.321C166.293 283.207 169.074 303.535 174.635 322.75C177.694 333.332 181.587 343.078 186.315 352.268C184.368 352.546 182.422 352.825 180.475 353.103ZM388.48 300.194C385.977 311.889 382.362 322.193 376.801 331.382C371.517 340.572 364.009 347.812 355.11 353.103C345.934 358.673 334.81 361.179 321.184 361.179C308.393 361.179 297.547 358.394 288.371 352.825C279.194 347.255 271.686 339.737 265.846 330.826C259.728 321.636 255.557 311.332 252.776 299.637C249.995 287.941 248.605 276.245 248.605 264.828C248.605 252.575 249.995 240.6 252.498 229.183C255.001 217.766 259.172 207.462 264.734 198.551C270.295 189.64 277.804 182.4 286.98 177.109C296.435 171.818 307.558 169.033 321.184 169.033C334.81 169.033 345.934 171.818 354.832 177.109C363.731 182.678 370.961 189.64 376.522 198.273C382.084 206.905 385.977 217.209 388.48 228.626C390.705 240.043 391.817 252.018 391.817 264.549C392.095 276.523 390.705 288.498 388.48 300.194Z" fill="#313235"/>
</g>
<defs>
<clipPath id="clip0_2_1995">
<rect width="661" height="423" fill="white"/>
</clipPath>
</defs>
</svg>
