<svg width="504" height="208" viewBox="0 0 504 208" fill="none" xmlns="http://www.w3.org/2000/svg">
<path d="M45.5996 62.5C45.5996 63.5 45.5996 91.2 45.5996 92.2C46.4996 92.2 55.5996 92.2 56.5996 92.2C56.5996 91.2 56.5996 74.7 56.5996 74.7H70.8996V128.3C70.8996 128.3 60.0996 128.3 59.0996 128.3C59.0996 129.2 59.0996 138.1 59.0996 139C60.0996 139 99.4996 139 100.5 139C100.5 138.1 100.5 129.2 100.5 128.3C99.4996 128.3 88.6996 128.3 88.6996 128.3V74.7H103.3C103.3 74.7 103.3 82.8 103.3 83.8C104.2 83.8 113.2 83.8 114.1 83.8C114.1 82.8 114.1 63.5 114.1 62.5C113.1 62.5 46.6996 62.5 45.5996 62.5Z" fill="#313235"/>
<path d="M135.699 87.0996C135.699 87.9996 135.699 96.2996 135.699 97.1996C136.599 97.1996 144.099 97.1996 144.099 97.1996V123.6L143.599 124C139.899 126.7 136.399 128.1 133.199 128.1C130.599 128.1 128.799 127.5 127.699 126.2C126.699 125 126.199 122.9 126.199 119.9C126.199 119.9 126.199 88.1996 126.199 87.1996C125.199 87.1996 104.199 87.1996 103.199 87.1996C103.199 88.0996 103.199 96.3996 103.199 97.2996C104.099 97.2996 111.399 97.2996 111.399 97.2996V124.3C111.399 129.3 112.799 133.2 115.499 135.9C118.199 138.6 122.099 140 126.999 140C132.099 140 137.199 138.3 142.199 134.8L144.099 133.4C144.099 133.4 144.099 138.3 144.099 139.2C145.099 139.2 164.099 139.2 165.099 139.2C165.099 138.3 165.099 130.1 165.099 129.1C164.199 129.1 158.999 129.1 158.999 129.1C158.999 129.1 158.999 88.1996 158.999 87.0996C157.999 87.0996 136.799 87.0996 135.699 87.0996Z" fill="#313235"/>
<path d="M180.599 67.2999C177.299 70.8999 175.599 75.4999 175.599 80.7999V87.0998C175.599 87.0998 169.199 87.0998 168.299 87.0998C168.299 87.9998 168.299 96.2998 168.299 97.1998C169.199 97.1998 175.599 97.1998 175.599 97.1998V129C175.599 129 169.199 129 168.299 129C168.299 129.9 168.299 138.1 168.299 139.1C169.299 139.1 198.099 139.1 199.099 139.1C199.099 138.2 199.099 130 199.099 129C198.199 129 190.499 129 190.499 129V97.1998C190.499 97.1998 198.099 97.1998 199.099 97.1998C199.099 96.2998 199.099 87.9998 199.099 87.0998C198.199 87.0998 190.499 87.0998 190.499 87.0998V79.8999C190.499 72.5999 193.599 71.0998 196.299 71.0998C198.599 71.0998 200.399 72.7998 201.699 76.1998C202.499 75.4998 211.099 68.7998 211.899 68.1998C208.499 64.0998 202.999 61.9999 195.499 61.9999C188.899 61.8999 183.799 63.7999 180.599 67.2999Z" fill="#313235"/>
<path d="M219.399 70.4997C219.399 70.4997 209.499 77.5997 209.099 77.8997C209.099 78.3997 209.099 87.0997 209.099 87.0997C209.099 87.0997 203.099 87.0997 202.199 87.0997C202.199 87.9997 202.199 96.2997 202.199 97.1997C203.099 97.1997 209.099 97.1997 209.099 97.1997V127C209.099 135.8 213.199 139.9 222.199 139.9C225.999 139.9 229.999 139.1 234.099 137.5C234.099 136.8 234.099 129.1 234.099 128C232.499 128.5 231.099 128.7 229.899 128.7C227.499 128.7 225.999 128.2 225.099 127.1C224.399 126.1 223.999 124.5 223.999 122V97.1997C223.999 97.1997 233.099 97.1997 233.999 97.1997C233.999 96.2997 233.999 87.9997 233.999 87.0997C232.999 87.0997 223.999 87.0997 223.999 87.0997C223.999 87.0997 223.999 69.0997 223.999 67.1997C222.799 68.0997 219.399 70.4997 219.399 70.4997Z" fill="#313235"/>
<path d="M240.1 89.7997C236.6 92.6997 234.9 96.3997 234.9 100.6C234.9 105.1 236.8 108.8 240.5 111.6C244.3 114.4 250.6 116.6 259.3 118C263.7 118.7 266.6 119.5 268.2 120.3C269.9 121.2 270.8 122.6 270.8 124.3C270.8 126.1 269.9 127.6 268 128.7C266.3 129.8 263.9 130.3 260.9 130.3C257.5 130.3 254.5 129.5 252.1 127.9C249.9 126.4 248.7 124.4 248.3 121.9C247.7 121.9 237.7 121.9 237 121.9C237 122.6 237 138.4 237 139.1C237.7 139.1 247.5 139.1 248.2 139.1C248.2 138.5 248.2 135.2 248.2 135.2L249.5 136.6C251.7 139 256 140.3 262.3 140.3C269.1 140.3 274.3 138.7 278 135.4C281.6 132.2 283.5 128 283.5 122.9C283.5 119.3 282.5 116.2 280.6 113.7C278.7 111.1 276.1 109.3 272.9 108.2C269.6 107.1 264.6 105.9 257.9 104.7C253.5 103.9 250.9 103.3 249.8 102.7C248.5 102 247.9 101 247.9 99.5997C247.9 96.2997 250.7 94.6997 256.2 94.6997C263 94.6997 267.2 96.5997 268.6 100.4C269.1 100.4 279.1 100.4 279.8 100.4C279.8 99.6997 279.8 86.7997 279.8 86.0997C279.1 86.0997 269.6 86.0997 268.9 86.0997C268.9 86.5997 268.9 88.2997 268.9 88.2997L267.9 87.8997C263.7 86.0997 259.2 85.1997 254.4 85.1997C248.4 85.2997 243.7 86.7997 240.1 89.7997Z" fill="#313235"/>
<path d="M295.799 97.5V96C298.399 95.8 299.599 95.6 299.899 93.5C300.099 91.8 300.299 89.9 300.299 87.2V67.2C300.299 64.4 300.199 64.3 295.799 64V62.5H305.999C307.799 67 309.899 71.4 311.899 75.9L317.899 89.4H317.999L323.999 75.9C325.999 71.5 328.099 67 329.799 62.5H339.899V64C335.499 64.3 335.399 64.4 335.399 67.2V92.7C335.399 95.5 335.499 95.6 339.899 95.9V97.4H325.799V96C330.199 95.7 330.299 95.6 330.299 92.8V67.2H330.199L316.999 96.9H315.599L302.599 67.2H302.499V87.2C302.499 89.9 302.599 91.8 302.899 93.5C303.199 95.6 304.399 95.8 307.699 96V97.5H295.799Z" fill="#404040"/>
<path d="M347.499 84.1996C347.399 89.3996 348.699 95.4996 354.899 95.4996C358.899 95.4996 360.799 93.0996 362.199 90.1996L363.699 90.9996C362.299 94.9996 359.499 98.0996 353.899 98.0996C345.699 98.1996 342.199 93.2996 342.199 85.2996C342.199 77.6996 345.899 72.0996 353.799 72.0996C362.999 72.0996 363.999 79.2996 363.999 82.1996C363.999 83.8996 362.999 84.0996 361.999 84.0996C361.999 84.1996 347.499 84.1996 347.499 84.1996ZM356.999 82.2996C358.399 82.2996 358.699 81.5996 358.699 80.6996C358.699 78.6996 358.199 73.8996 353.499 73.8996C348.299 73.8996 347.499 80.1996 347.499 82.2996H356.999Z" fill="#404040"/>
<path d="M386.399 97.4998L385.999 97.0998V94.5998C383.299 96.7998 380.899 97.9998 378.199 97.9998C371.499 97.9998 367.699 92.9998 367.699 85.4998C367.699 81.0998 368.999 77.7998 371.199 75.4998C373.299 73.2998 376.399 71.9998 380.499 71.9998C382.799 71.9998 384.699 72.3998 386.099 73.1998V64.8998C386.099 62.9998 385.799 62.6998 384.499 62.5998L382.599 62.3998V61.0998L390.499 59.7998L390.899 60.0998V92.8998C390.899 95.4998 391.099 95.5998 394.699 95.7998V97.2998L386.399 97.4998ZM386.099 79.9998C386.099 78.5998 386.099 77.8998 385.599 77.0998C384.699 74.9998 382.799 73.8998 380.399 73.8998C375.299 73.8998 372.899 78.3998 372.899 84.9998C372.899 90.7998 375.199 95.2998 379.899 95.2998C382.499 95.2998 384.699 94.2998 385.799 91.6998C386.099 90.7998 386.199 89.9998 386.199 88.8998L386.099 79.9998Z" fill="#404040"/>
<path d="M406.2 72.1999L406.6 72.4999V93.0999C406.6 95.6999 406.8 95.7999 410.4 95.9999V97.4999H398.1V95.9999C401.7 95.7999 401.9 95.5999 401.9 93.0999V77.1999C401.9 75.3999 401.6 75.0999 400.3 74.8999L398.4 74.6999V73.3999L406.2 72.1999ZM407.2 64.4999C407.2 66.2999 406 67.4999 404.1 67.4999C402.3 67.4999 401 66.1999 401 64.4999C401 62.6999 402.3 61.3999 404.1 61.3999C406 61.3999 407.2 62.6999 407.2 64.4999Z" fill="#404040"/>
<path d="M432 90.0997L433.5 90.7997C432.1 96.1997 427.4 98.0997 423.8 98.0997C416.2 98.0997 412.1 93.7997 412.1 85.3997C412.1 78.6997 415.2 72.1997 424.4 72.1997C429.9 72.1997 433.2 74.7997 433.2 77.0997C433.2 78.9997 431.2 79.6997 430.2 79.6997C429.2 79.6997 428.9 79.1997 428.6 78.3997C427.6 75.6997 426.1 73.9997 423.8 73.9997C420.3 73.9997 417.3 76.9997 417.3 84.4997C417.3 89.1997 418.7 95.4997 424.7 95.4997C428.4 95.3997 430.5 93.5997 432 90.0997Z" fill="#404040"/>
<path d="M456.099 91.0996C456.099 94.2996 456.999 95.1996 457.899 95.3996C458.699 95.5996 459.799 95.4996 460.499 95.2996L460.799 96.4996C458.899 97.4996 456.699 97.9996 454.799 97.9996C452.999 97.9996 452.199 96.7996 451.499 94.9996C449.899 96.0996 447.099 97.8996 443.999 97.9996C439.299 97.9996 436.699 94.5996 436.699 90.7996C436.699 88.3996 437.799 85.8996 441.399 84.7996C445.399 83.4996 450.299 82.2996 451.499 80.9996V78.9996C451.499 74.9996 449.199 73.9996 447.199 73.9996C445.199 73.9996 443.099 75.1996 441.999 78.8996C441.799 79.7996 441.399 80.2996 440.399 80.2996C439.399 80.2996 437.599 79.4996 437.599 77.8996C437.599 75.0996 442.099 72.0996 447.799 72.0996C455.399 72.0996 456.099 75.8996 456.099 78.7996V91.0996ZM451.599 83.1996C450.499 83.8996 447.799 84.8996 445.799 85.5996C442.999 86.6996 441.899 87.8996 441.899 90.1996C441.899 93.1996 443.399 95.3996 446.499 95.3996C448.499 95.3996 451.599 94.2996 451.599 90.1996V83.1996Z" fill="#404040"/>
<path d="M471.699 93.1C471.699 95.7 471.899 95.8 475.499 96V97.5H463.199V96C466.799 95.8 466.999 95.6 466.999 93.1V65.1C466.999 63.2 466.699 62.9 465.399 62.8L463.499 62.6V61.3L471.399 60L471.799 60.3L471.699 93.1Z" fill="#404040"/>
<path d="M325.199 113.3H323.699C322.699 107.4 319.199 105.2 313.999 105.2C304.599 105.1 301.299 113.5 301.299 121.8C301.299 127.9 303.499 138.2 313.899 138.2C320.499 138.2 323.099 134.4 324.499 129.1H325.999L325.299 137.5C322.899 138.8 318.199 139.9 314.199 139.9C308.599 139.9 303.599 138.7 300.499 135.6C297.499 132.6 295.699 127.8 295.699 121.9C295.699 116.2 297.399 111.9 300.299 108.6C303.299 105.2 308.299 103.4 314.499 103.4C319.099 103.4 322.899 104.3 325.199 105.4V113.3Z" fill="#404040"/>
<path d="M334.9 125.8C334.8 131 336.1 137.1 342.3 137.1C346.3 137.1 348.2 134.7 349.6 131.7L351.1 132.5C349.7 136.5 346.9 139.6 341.3 139.6C333.1 139.7 329.6 134.8 329.6 126.8C329.6 119.2 333.3 113.6 341.2 113.6C350.4 113.6 351.4 120.8 351.4 123.7C351.4 125.4 350.4 125.6 349.4 125.6L334.9 125.8ZM344.5 123.9C345.9 123.9 346.2 123.2 346.2 122.3C346.2 120.3 345.7 115.5 341 115.5C335.8 115.5 335 121.8 335 123.9H344.5Z" fill="#404040"/>
<path d="M378.699 134.7C378.699 137.3 378.899 137.4 382.499 137.6V139.1H370.199V137.6C373.799 137.4 373.999 137.2 373.999 134.7V122.8C373.999 118.4 372.099 116.5 368.699 116.5C365.999 116.5 363.699 118.2 362.699 120.1C362.299 120.9 362.199 121.6 362.199 122.9V134.7C362.199 137.3 362.399 137.4 365.999 137.6V139.1H353.699V137.6C357.299 137.4 357.499 137.2 357.499 134.7V118.8C357.499 117 357.199 116.7 355.899 116.5L353.999 116.3V115L361.499 113.7L362.199 117.5C365.299 115.5 367.699 113.7 371.399 113.7C375.999 113.7 378.799 116.6 378.799 121.7L378.699 134.7Z" fill="#404040"/>
<path d="M391.599 116.4V132C391.599 135.8 393.199 137.1 394.899 137.1C396.199 137.1 397.299 137 398.499 136.4L398.899 137.5C397.399 138.4 394.999 139.7 392.399 139.7C390.599 139.7 386.799 139.1 386.799 133.9V116.3H383.199V114.3H386.999L390.099 107.9H391.599V114.3H398.099V116.3H391.599V116.4Z" fill="#404040"/>
<path d="M405.999 125.8C405.899 131 407.199 137.1 413.399 137.1C417.399 137.1 419.299 134.7 420.699 131.7L422.199 132.5C420.799 136.5 417.999 139.6 412.399 139.6C404.199 139.7 400.699 134.8 400.699 126.8C400.699 119.2 404.399 113.6 412.299 113.6C421.499 113.6 422.499 120.8 422.499 123.7C422.499 125.4 421.499 125.6 420.499 125.6L405.999 125.8ZM415.499 123.9C416.899 123.9 417.199 123.2 417.199 122.3C417.199 120.3 416.599 115.5 411.999 115.5C406.799 115.5 405.999 121.8 405.999 123.9H415.499Z" fill="#404040"/>
<path d="M433.298 117.8C436.598 114.9 438.098 113.8 439.998 113.8C441.998 113.8 442.698 115.2 442.698 116.3C442.698 117.9 441.598 119.1 440.398 119.1C440.198 119.1 439.698 119 439.398 118.9C437.898 118.1 437.098 117.8 436.298 117.8C435.098 117.8 433.398 119.1 433.398 123V134.8C433.398 137.4 433.698 137.5 438.198 137.7V139.2H424.898V137.7C428.398 137.5 428.698 137.3 428.698 134.8V118.9C428.698 117.1 428.398 116.8 427.098 116.6L425.198 116.4V115.1L432.898 113.8L433.298 117.8Z" fill="#404040"/>
</svg>
