<svg width="542" height="260" viewBox="0 0 542 260" fill="none" xmlns="http://www.w3.org/2000/svg">
<g clip-path="url(#clip0_2_1567)">
<mask id="mask0_2_1567" style="mask-type:luminance" maskUnits="userSpaceOnUse" x="0" y="0" width="542" height="260">
<path d="M542 0H0V260H542V0Z" fill="white"/>
</mask>
<g mask="url(#mask0_2_1567)">
<path d="M285.068 128.722C307.855 128.722 326.224 110.367 326.224 87.5962C326.224 64.8259 307.855 46.4702 285.068 46.4702C262.281 46.4702 243.912 64.8259 243.912 87.5962C243.912 110.367 262.281 128.722 285.068 128.722Z" fill="#313235"/>
</g>
<path d="M310.644 149.401H346.917V113.155L310.644 149.401ZM222.984 113.155V149.401H259.257L222.984 113.155ZM259.257 25.5586H222.984V61.8052L259.257 25.5586ZM347.149 61.8052V25.5586H310.876L347.149 61.8052Z" fill="#313235"/>
<path d="M259.258 149.401L284.835 174.96L310.412 149.401H259.258ZM197.408 87.3637L222.985 112.922V61.8052L197.408 87.3637ZM347.15 113.155L372.727 87.5961L347.15 62.0375V113.155ZM285.068 0L259.491 25.5585H310.877L285.068 0Z" fill="#313235"/>
<mask id="mask1_2_1567" style="mask-type:luminance" maskUnits="userSpaceOnUse" x="0" y="0" width="542" height="260">
<path d="M542 0H0V260H542V0Z" fill="white"/>
</mask>
<g mask="url(#mask1_2_1567)">
<path d="M505.727 248.615V211.671H511.075C523.863 211.671 529.676 219.339 529.676 230.027C529.676 240.715 523.863 248.383 511.075 248.383H505.727V248.615ZM493.869 259.071H511.54C529.444 259.071 542 247.221 542 230.259C542 213.298 529.211 201.448 511.54 201.448H493.869V259.071ZM435.739 259.071H473.872V248.615H447.597V201.216H435.739V259.071ZM371.797 259.071H411.325V248.615H383.655V233.977H406.907V223.754H383.655V211.671H409.93V201.216H371.797V259.071ZM332.268 259.071H344.127V201.216H332.268V259.071ZM271.116 259.071H282.975V235.139H305.994V224.451H282.975V211.671H308.319V201.216H271.116V259.071ZM223.682 259.071H235.541V211.671H252.05V201.216H207.174V211.671H223.682V259.071ZM173.226 259.768C184.619 259.768 192.99 253.959 192.99 243.271C192.99 233.28 187.41 228.865 177.179 224.451L174.156 223.056C169.041 220.965 166.715 219.339 166.715 215.854C166.715 213.065 168.808 210.742 172.296 210.742C175.784 210.742 177.876 212.136 179.969 215.854L189.27 209.813C185.317 202.842 179.969 200.286 172.296 200.286C161.6 200.286 154.857 207.024 154.857 216.086C154.857 225.845 160.437 230.259 169.273 233.977L172.296 235.371C177.644 237.695 180.899 239.089 180.899 243.271C180.899 246.756 177.876 249.08 172.761 249.08C166.948 249.08 163.693 246.059 160.903 241.877L151.137 247.453C155.09 254.424 162.065 259.768 173.226 259.768ZM95.7974 259.071H135.326V248.615H107.656V233.977H130.908V223.754H107.656V211.671H133.93V201.216H95.7974V259.071ZM21.3916 259.535H22.5542L36.0402 231.653C37.6679 228.401 39.2955 223.056 39.2955 223.056C39.2955 223.056 40.9231 228.401 42.5507 231.653L55.5718 259.535H56.7343L77.661 201.216H66.0351L57.6644 224.451C56.2693 228.401 54.6417 234.906 54.6417 234.906C54.6417 234.906 53.0141 228.401 51.1539 224.451L39.7605 200.751H38.5979L27.6696 224.451C25.8094 228.401 24.1818 234.906 24.1818 234.906C24.1818 234.906 22.5542 228.401 21.1591 224.451L12.7884 201.216H0.232422L21.3916 259.535Z" fill="#313235"/>
</g>
</g>
<defs>
<clipPath id="clip0_2_1567">
<rect width="542" height="260" fill="white"/>
</clipPath>
</defs>
</svg>
