<svg width="592" height="117" viewBox="0 0 592 117" fill="none" xmlns="http://www.w3.org/2000/svg">
<g clip-path="url(#clip0_2_1513)">
<path d="M0.100679 47C-0.199321 45.8 0.300679 45.1 1.80068 45.1H2.90068C4.00068 45.1 4.70068 45.6 5.00068 46.6L21.0007 102.2C22.0007 105.6 22.9007 109.7 22.9007 109.7H23.1007C23.1007 109.7 24.1007 105.7 25.2007 102.2L42.6007 46.5C42.9007 45.6 43.6007 45.1 44.7007 45.1H46.7007C47.8007 45.1 48.5007 45.6 48.8007 46.5L66.2007 102.2C67.3007 105.7 68.3007 109.7 68.3007 109.7H68.5007C68.5007 109.7 69.4007 105.6 70.4007 102.2L87.0007 46.6C87.3007 45.6 88.0007 45.1 89.1007 45.1H90.2007C91.5007 45.1 92.2007 45.8 91.9007 47L71.8007 113.9C71.5007 114.8 70.8007 115.3 69.7007 115.3H67.0007C65.9007 115.3 65.2007 114.8 64.9007 113.9L48.9007 62.4C47.5007 57.9 45.9007 51.3 45.9007 51.3H45.5007C45.5007 51.3 43.9007 57.9 42.5007 62.4L26.5007 113.9C26.2007 114.8 25.5007 115.3 24.4007 115.3H21.7007C20.6007 115.3 19.9007 114.8 19.6007 113.8L0.100679 47Z" fill="#313235"/>
<path d="M120.5 58.2C136.4 58.2 149.3 70.8 149.3 87.1C149.3 103.7 136.4 116.6 120.4 116.6C104.4 116.6 91.5 103.7 91.5 87.1C91.7 70.8 104.6 58.2 120.5 58.2ZM120.5 112C133.8 112 144.4 101.2 144.4 87C144.4 73.2 133.7 62.7 120.5 62.7C107.3 62.7 96.6 73.2 96.6 87C96.6 101.2 107.3 112 120.5 112Z" fill="#313235"/>
<path d="M160.2 61.4C160.2 60.2 160.9 59.5 162.1 59.5H163C164.2 59.5 164.9 60.2 164.9 61.4V70.1C164.9 72.7 164.4 74.7 164.4 74.7H164.6C167.4 66.1 174 59.2 183.3 59.2C184.9 59.2 185.6 59.9 185.6 61.1V62.1C185.6 63.3 184.6 64 183.1 64C170.6 64 164.7 78.8 164.7 91.2V113.4C164.7 114.6 164 115.3 162.8 115.3H161.9C160.7 115.3 160 114.6 160 113.4L160.2 61.4Z" fill="#313235"/>
<path d="M194.1 39.1C194.1 37.9 194.8 37.2 196 37.2H196.9C198.1 37.2 198.8 37.9 198.8 39.1V81.4H208.7L225.8 60.6C226.5 59.8 227.1 59.5 228.1 59.5H229.8C231.4 59.5 231.9 60.6 230.8 61.8L212.6 83.4V83.6L233.1 112.8C234 114.1 233.4 115.1 231.9 115.1H230.2C229.2 115.1 228.5 114.8 228 113.9L208.6 85.7H198.7V113.2C198.7 114.4 198 115.1 196.8 115.1H195.9C194.7 115.1 194 114.4 194 113.2L194.1 39.1Z" fill="#313235"/>
<path d="M240.401 106.3L241.201 105.5C242.001 104.7 242.901 104.6 243.901 105.4C246.701 107.6 253.601 112.2 262.901 112.2C273.101 112.2 280.601 106.7 280.601 98.1C280.601 78 240.701 83 240.701 60.8C240.701 49.5 251.101 42.4 264.201 42.4C273.601 42.4 280.001 46.1 282.601 48C283.501 48.6 283.701 49.4 283.101 50.4L282.401 51.3C281.701 52.2 280.701 52.3 279.701 51.6C277.101 49.9 271.601 46.7 264.001 46.7C254.401 46.7 245.701 51.8 245.701 60.5C245.701 79.6 285.601 74.3 285.601 97.6C285.601 108.4 277.001 116.6 262.801 116.6C251.301 116.6 243.501 111.3 240.501 108.9C239.601 107.9 239.601 107.1 240.401 106.3Z" fill="#313235"/>
<path d="M298.601 64.1H293.101C291.901 64.1 291.201 63.4 291.201 62.2V61.7C291.201 60.5 291.901 59.8 293.101 59.8H298.601V45.9C298.601 44.7 299.301 44 300.501 44H301.401C302.601 44 303.301 44.7 303.301 45.9V59.8H316.001C317.201 59.8 317.901 60.5 317.901 61.7V62.2C317.901 63.4 317.201 64.1 316.001 64.1H303.301V94.7C303.301 109.6 312.301 111.1 316.901 111.3C318.601 111.4 319.101 112 319.101 113.2V113.8C319.101 114.9 318.601 115.7 317.201 115.7C304.101 115.7 298.601 107.3 298.601 95.1V64.1Z" fill="#313235"/>
<path d="M327.6 61.4C327.6 60.2 328.3 59.5 329.5 59.5H330.4C331.6 59.5 332.3 60.2 332.3 61.4V70.1C332.3 72.7 331.8 74.7 331.8 74.7H332C334.8 66.1 341.4 59.2 350.7 59.2C352.3 59.2 353 59.9 353 61.1V62.1C353 63.3 352 64 350.5 64C338 64 332.1 78.8 332.1 91.2V113.4C332.1 114.6 331.4 115.3 330.2 115.3H329.3C328.1 115.3 327.4 114.6 327.4 113.4L327.6 61.4Z" fill="#313235"/>
<path d="M361.102 46.5V44.2C361.102 43 361.802 42.3 363.002 42.3H364.802C366.002 42.3 366.702 43 366.702 44.2V46.5C366.702 47.7 366.002 48.4 364.802 48.4H363.002C361.802 48.4 361.102 47.7 361.102 46.5ZM361.502 61.4C361.502 60.2 362.202 59.5 363.402 59.5H364.302C365.502 59.5 366.202 60.2 366.202 61.4V113.3C366.202 114.5 365.502 115.2 364.302 115.2H363.402C362.202 115.2 361.502 114.5 361.502 113.3V61.4Z" fill="#313235"/>
<path d="M401.301 58.2C415.301 58.2 420.601 70.8 420.601 70.8H420.801C420.801 70.8 420.301 68.8 420.301 66.2V39.1C420.301 37.9 421.001 37.2 422.201 37.2H423.101C424.301 37.2 425.001 37.9 425.001 39.1V113.3C425.001 114.5 424.301 115.2 423.101 115.2H422.201C421.001 115.2 420.301 114.5 420.301 113.3V108.2C420.301 105.6 420.801 104 420.801 104H420.601C420.601 104 415.801 116.6 400.401 116.6C385.501 116.6 376.301 104.7 376.301 87.4C376.401 69.7 386.701 58.2 401.301 58.2ZM400.601 112C410.801 112 420.401 104.8 420.401 87.3C420.401 74.9 414.101 62.8 401.001 62.8C390.101 62.8 381.201 71.8 381.201 87.4C381.301 102.4 389.301 112 400.601 112Z" fill="#313235"/>
<path d="M464.1 58.2C478.6 58.2 486.8 68.7 486.8 84.7C486.8 85.9 485.9 86.6 484.8 86.6H441.9C441.9 102.7 452.8 112 465.7 112C473.4 112 479 108.4 481.4 106.3C482.4 105.5 483.3 105.6 484 106.6L484.7 107.5C485.3 108.3 485.2 109.3 484.2 110C481.5 112.2 474.8 116.6 465.7 116.6C450 116.6 437 105.2 437 87.5C437 68.7 449.9 58.2 464.1 58.2ZM481.9 82.2C481.3 68.6 473.2 62.5 464 62.5C453.8 62.5 444.3 69.2 442.3 82.2H481.9Z" fill="#313235"/>
<path d="M551.799 20.7L545.899 0C545.399 0 544.799 0 544.299 0C543.799 0 543.299 0 542.799 0L536.999 20.8H536.899L531.899 1.7C531.099 1.9 530.399 2.1 529.699 2.4L535.599 23.5C536.599 23.1 537.599 22.9 538.599 22.6L544.299 2.3H544.399L550.199 22.7C551.199 22.9 552.099 23.2 553.099 23.6L558.899 2.5C558.199 2.3 557.499 2.1 556.799 1.9L551.799 20.7Z" fill="#6E6E6E"/>
<path d="M552.999 70.6C551.999 71 550.999 71.2 549.999 71.5L544.299 91.8H544.199L538.399 71.4C537.399 71.2 536.499 70.9 535.499 70.5L529.699 91.6C530.399 91.8 531.099 92 531.799 92.2L536.799 73.1H536.899L542.699 93.8C543.199 93.8 543.699 93.8 544.299 93.8C544.799 93.8 545.299 93.8 545.799 93.8L551.599 73.1H551.699L556.699 92.2C557.499 92 558.199 91.8 558.899 91.5L552.999 70.6Z" fill="#BBBBBB"/>
<path d="M585.2 23.7L568.2 33.7V33.6L578.8 14.8C578.1 14 577.4 13.3 576.6 12.6L557.8 23.2V23.1L567.8 6.1C567.1 5.7 566.4 5.3 565.7 5L554.9 24.1C555.8 24.5 556.7 25 557.6 25.6L576 15.3V15.4L565.7 33.9C566.2 34.8 566.7 35.6 567.1 36.5L586.2 25.7C585.9 25 585.6 24.3 585.2 23.7Z" fill="#7F7F7F"/>
<path d="M523 88.9L533.8 69.8C532.9 69.4 532 68.9 531.1 68.3L512.7 78.6L523 60.1C522.5 59.2 522 58.4 521.6 57.5L502.5 68.3C502.8 68.9 503.2 69.6 503.5 70.2L520.5 60.2L509.9 79C510.6 79.8 511.3 80.5 512.1 81.2L530.9 70.6L520.9 87.6C521.6 88.2 522.3 88.5 523 88.9Z" fill="#949494"/>
<path d="M589.701 34.7C589.501 33.9 589.301 33.2 589.001 32.5L567.901 38.4C568.201 39.4 568.501 40.3 568.801 41.3L589.101 47V47.1L568.701 52.9C568.501 53.9 568.201 54.8 567.801 55.8L588.901 61.6C589.101 60.9 589.301 60.2 589.501 59.5L570.401 54.5V54.4L591.101 48.6C591.101 48.1 591.101 47.5 591.101 47C591.101 46.5 591.101 46 591.101 45.5L570.401 39.7V39.6L589.701 34.7Z" fill="#828282"/>
<path d="M498.9 59.3C499.1 60.1 499.3 60.8 499.6 61.5L520.7 55.6C520.4 54.6 520.1 53.6 519.8 52.6L499.5 47V46.9L519.9 41.1C520.1 40.1 520.4 39.2 520.8 38.2L499.7 32.4C499.5 33.1 499.3 33.8 499.1 34.5L518.2 39.5V39.6L497.5 45.4C497.5 45.9 497.5 46.5 497.5 47C497.5 47.5 497.5 48 497.5 48.5L518.3 54.3V54.4L498.9 59.3Z" fill="#737373"/>
<path d="M585.101 70.4C585.501 69.7 585.901 69 586.201 68.4L567.101 57.6C566.701 58.5 566.201 59.4 565.601 60.3L575.901 78.7L557.501 68.4C556.701 68.9 555.801 69.4 554.801 69.8L565.601 88.9C566.301 88.6 566.901 88.2 567.501 87.9L557.501 70.9L576.301 81.5C577.101 80.8 577.801 80.1 578.501 79.3L567.901 60.5L585.101 70.4Z" fill="#BDBDBD"/>
<path d="M503.5 23.6C503.1 24.3 502.7 25 502.4 25.7L521.5 36.5C521.9 35.6 522.4 34.7 523 33.8L512.7 15.4V15.3L531.2 25.6C532 25.1 532.9 24.6 533.9 24.2L523.1 5.09998C522.4 5.39998 521.8 5.79998 521.2 6.09998L531.2 23.1V23.2L512.4 12.6C511.6 13.3 510.9 14 510.2 14.8L520.8 33.6V33.7L503.5 23.6Z" fill="#313235"/>
</g>
<defs>
<clipPath id="clip0_2_1513">
<rect width="591.1" height="116.6" fill="white"/>
</clipPath>
</defs>
</svg>
